%FSLAX44Y44*%
%MOMM*%
G71*
G01*
G75*
G04 Layer_Color=2752767*
%ADD10R,2.0066X3.8100*%
%ADD11R,2.0066X1.5240*%
%ADD12R,1.2192X1.2192*%
%ADD13R,0.6604X2.0320*%
%ADD14R,3.5052X2.5146*%
%ADD15R,1.2192X1.2192*%
%ADD16R,1.3208X1.6002*%
%ADD17R,2.5146X3.5052*%
%ADD18R,1.6002X1.3208*%
%ADD19R,1.2700X0.5588*%
%ADD20R,0.5588X1.2700*%
%ADD21C,0.3048*%
%ADD22C,0.4064*%
%ADD23C,0.8128*%
%ADD24C,0.0000*%
G04:AMPARAMS|DCode=25|XSize=1.524mm|YSize=1.524mm|CornerRadius=0mm|HoleSize=0mm|Usage=FLASHONLY|Rotation=270.000|XOffset=0mm|YOffset=0mm|HoleType=Round|Shape=Octagon|*
%AMOCTAGOND25*
4,1,8,-0.3810,-0.7620,0.3810,-0.7620,0.7620,-0.3810,0.7620,0.3810,0.3810,0.7620,-0.3810,0.7620,-0.7620,0.3810,-0.7620,-0.3810,-0.3810,-0.7620,0.0*
%
%ADD25OCTAGOND25*%

%ADD26O,1.5240X3.0480*%
%ADD27O,3.0480X1.5240*%
G04:AMPARAMS|DCode=28|XSize=1.524mm|YSize=1.524mm|CornerRadius=0mm|HoleSize=0mm|Usage=FLASHONLY|Rotation=0.000|XOffset=0mm|YOffset=0mm|HoleType=Round|Shape=Octagon|*
%AMOCTAGOND28*
4,1,8,0.7620,-0.3810,0.7620,0.3810,0.3810,0.7620,-0.3810,0.7620,-0.7620,0.3810,-0.7620,-0.3810,-0.3810,-0.7620,0.3810,-0.7620,0.7620,-0.3810,0.0*
%
%ADD28OCTAGOND28*%

%ADD29C,1.2700*%
%ADD30C,0.8128*%
%ADD31R,1.2192X0.8128*%
%ADD32R,2.7432X2.1590*%
%ADD33R,1.0160X1.2192*%
%ADD34R,1.0160X1.5240*%
%ADD35R,0.8128X1.2192*%
%ADD36C,0.1524*%
%ADD37C,0.2032*%
%ADD38C,0.0508*%
%ADD39C,0.0518*%
%ADD40C,0.0648*%
%ADD41C,0.2540*%
%ADD42R,0.2016X0.2032*%
%ADD43R,1.2700X1.9050*%
%ADD44R,0.7620X1.7780*%
%ADD45R,1.2700X0.7620*%
%ADD46R,0.2032X0.2016*%
%ADD47R,2.2098X4.0132*%
%ADD48R,2.2098X1.7272*%
%ADD49R,1.4224X1.4224*%
%ADD50R,0.8636X2.2352*%
%ADD51R,3.7084X2.7178*%
%ADD52R,1.4224X1.4224*%
%ADD53R,1.5240X1.8034*%
%ADD54R,2.7178X3.7084*%
%ADD55R,1.8034X1.5240*%
%ADD56R,1.4732X0.7620*%
%ADD57R,0.7620X1.4732*%
G04:AMPARAMS|DCode=58|XSize=1.7272mm|YSize=1.7272mm|CornerRadius=0mm|HoleSize=0mm|Usage=FLASHONLY|Rotation=270.000|XOffset=0mm|YOffset=0mm|HoleType=Round|Shape=Octagon|*
%AMOCTAGOND58*
4,1,8,-0.4318,-0.8636,0.4318,-0.8636,0.8636,-0.4318,0.8636,0.4318,0.4318,0.8636,-0.4318,0.8636,-0.8636,0.4318,-0.8636,-0.4318,-0.4318,-0.8636,0.0*
%
%ADD58OCTAGOND58*%

%ADD59O,1.7272X3.2512*%
%ADD60O,3.2512X1.7272*%
G04:AMPARAMS|DCode=61|XSize=1.7272mm|YSize=1.7272mm|CornerRadius=0mm|HoleSize=0mm|Usage=FLASHONLY|Rotation=0.000|XOffset=0mm|YOffset=0mm|HoleType=Round|Shape=Octagon|*
%AMOCTAGOND61*
4,1,8,0.8636,-0.4318,0.8636,0.4318,0.4318,0.8636,-0.4318,0.8636,-0.8636,0.4318,-0.8636,-0.4318,-0.4318,-0.8636,0.4318,-0.8636,0.8636,-0.4318,0.0*
%
%ADD61OCTAGOND61*%

%ADD62C,1.4732*%
%ADD63R,1.4224X1.0160*%
%ADD64R,2.9464X2.3622*%
%ADD65R,1.2192X1.4224*%
%ADD66R,1.2192X1.7272*%
%ADD67R,1.0160X1.4224*%
%ADD68C,0.0762*%
%ADD69C,0.1270*%
%ADD70R,0.3024X0.7056*%
%ADD71C,0.1693*%
D24*
Y546100D01*
D69*
X313690Y297180D02*
Y307340D01*
X323850D01*
Y297180D01*
X313690D01*
Y271780D02*
Y281940D01*
X323850D01*
Y271780D01*
X313690D01*
Y246380D02*
Y256540D01*
X323850D01*
Y246380D01*
X313690D01*
Y220980D02*
Y231140D01*
X323850D01*
Y220980D01*
X313690D01*
Y195580D02*
Y205740D01*
X323850D01*
Y195580D01*
X313690D01*
X339090Y297180D02*
Y307340D01*
X349250D01*
Y297180D01*
X339090D01*
Y271780D02*
Y281940D01*
X349250D01*
Y271780D01*
X339090D01*
Y246380D02*
Y256540D01*
X349250D01*
Y246380D01*
X339090D01*
Y220980D02*
Y231140D01*
X349250D01*
Y220980D01*
X339090D01*
Y195580D02*
Y205740D01*
X349250D01*
Y195580D01*
X339090D01*
X201930Y58420D02*
Y68580D01*
X212090D01*
Y58420D01*
X201930D01*
X176530D02*
Y68580D01*
X186690D01*
Y58420D01*
X176530D01*
X151130D02*
Y68580D01*
X161290D01*
Y58420D01*
X151130D01*
X125730D02*
Y68580D01*
X135890D01*
Y58420D01*
X125730D01*
X201930Y20320D02*
Y30480D01*
X212090D01*
Y20320D01*
X201930D01*
X227330D02*
Y30480D01*
X237490D01*
Y20320D01*
X227330D01*
X252730D02*
Y30480D01*
X262890D01*
Y20320D01*
X252730D01*
X278130D02*
Y30480D01*
X288290D01*
Y20320D01*
X278130D01*
X82550D02*
Y30480D01*
X92710D01*
Y20320D01*
X82550D01*
X107950D02*
Y30480D01*
X118110D01*
Y20320D01*
X107950D01*
X133350D02*
Y30480D01*
X143510D01*
Y20320D01*
X133350D01*
X158750D02*
Y30480D01*
X168910D01*
Y20320D01*
X158750D01*
X33020Y231140D02*
Y241300D01*
X43180D01*
Y231140D01*
X33020D01*
Y205740D02*
Y215900D01*
X43180D01*
Y205740D01*
X33020D01*
Y180340D02*
Y190500D01*
X43180D01*
Y180340D01*
X33020D01*
X327660Y400050D02*
Y410210D01*
X337820D01*
Y400050D01*
X327660D01*
Y374650D02*
Y384810D01*
X337820D01*
Y374650D01*
X327660D01*
X302260Y400050D02*
Y410210D01*
X312420D01*
Y400050D01*
X302260D01*
Y374650D02*
Y384810D01*
X312420D01*
Y374650D01*
X302260D01*
X276860Y400050D02*
Y410210D01*
X287020D01*
Y400050D01*
X276860D01*
Y374650D02*
Y384810D01*
X287020D01*
Y374650D01*
X276860D01*
X251460Y400050D02*
Y410210D01*
X261620D01*
Y400050D01*
X251460D01*
Y374650D02*
Y384810D01*
X261620D01*
Y374650D01*
X251460D01*
X226060Y400050D02*
Y410210D01*
X236220D01*
Y400050D01*
X226060D01*
Y374650D02*
Y384810D01*
X236220D01*
Y374650D01*
X226060D01*
X280381Y71640D02*
X275301Y81800D01*
X285461D01*
X280381Y71640D01*
X338801D02*
X333721Y81800D01*
X343881D01*
X338801Y71640D01*
X93980Y353060D02*
X88900Y363220D01*
X99060D01*
X93980Y353060D01*
X58420Y392430D02*
X53340Y402590D01*
X63500D01*
X58420Y392430D01*
X76200D02*
X71120Y402590D01*
X81280D01*
X76200Y392430D01*
X161290Y191770D02*
X156210Y201930D01*
X166370D01*
X161290Y191770D01*
X167894Y202184D02*
X162814Y212344D01*
X172974D01*
X167894Y202184D01*
X196850Y191770D02*
X191770Y201930D01*
X201930D01*
X196850Y191770D01*
X189230Y202184D02*
X184150Y212344D01*
X194310D01*
X189230Y202184D01*
X242281Y106680D02*
X237201Y116840D01*
X247361D01*
X242281Y106680D01*
X300701D02*
X295621Y116840D01*
X305781D01*
X300701Y106680D01*
X260350Y125730D02*
X255270Y135890D01*
X265430D01*
X260350Y125730D01*
X223520Y135890D02*
X218440Y146050D01*
X228600D01*
X223520Y135890D01*
X280670Y125730D02*
X275590Y135890D01*
X285750D01*
X280670Y125730D01*
X199070Y132400D02*
X193990Y142560D01*
X204150D01*
X199070Y132400D01*
X183070Y281750D02*
X177990Y291910D01*
X188150D01*
X183070Y281750D01*
X158750Y132080D02*
X153670Y142240D01*
X163830D01*
X158750Y132080D01*
X149860Y142240D02*
X144780Y152400D01*
X154940D01*
X149860Y142240D01*
X158750Y304800D02*
X153670Y314960D01*
X163830D01*
X158750Y304800D01*
X242570D02*
X237490Y314960D01*
X247650D01*
X242570Y304800D01*
X232410Y295910D02*
X227330Y306070D01*
X237490D01*
X232410Y295910D01*
X125730Y415290D02*
X120650Y425450D01*
X130810D01*
X125730Y415290D01*
X203200Y281940D02*
X198120Y292100D01*
X208280D01*
X203200Y281940D01*
X215900D02*
X210820Y292100D01*
X220980D01*
X215900Y281940D01*
X109220Y215900D02*
X104140Y226060D01*
X114300D01*
X109220Y215900D01*
X139700Y278130D02*
X134620Y288290D01*
X144780D01*
X139700Y278130D01*
X63500Y306070D02*
X58420Y316230D01*
X68580D01*
X63500Y306070D01*
Y293370D02*
X58420Y303530D01*
X68580D01*
X63500Y293370D01*
Y318770D02*
X58420Y328930D01*
X68580D01*
X63500Y318770D01*
Y331470D02*
X58420Y341630D01*
X68580D01*
X63500Y331470D01*
Y280670D02*
X58420Y290830D01*
X68580D01*
X63500Y280670D01*
D71*
X119380Y184150D02*
G03*
X119380Y184150I-5080J0D01*
G01*
X99060D02*
G03*
X99060Y184150I-5080J0D01*
G01*
M02*
