%FSLAX44Y44*%
%MOMM*%
G71*
G01*
G75*
G04 Layer_Color=16711935*
%ADD10R,2.0066X3.8100*%
%ADD11R,2.0066X1.5240*%
%ADD12R,1.2192X1.2192*%
%ADD13R,0.6604X2.0320*%
%ADD14R,3.5052X2.5146*%
%ADD15R,1.2192X1.2192*%
%ADD16R,1.3208X1.6002*%
%ADD17R,2.5146X3.5052*%
%ADD18R,1.6002X1.3208*%
%ADD19R,1.2700X0.5588*%
%ADD20R,0.5588X1.2700*%
%ADD21C,0.4060*%
%ADD22C,0.4064*%
%ADD23C,0.3048*%
%ADD24C,0.3050*%
%ADD25C,0.8128*%
%ADD26C,0.0000*%
G04:AMPARAMS|DCode=27|XSize=1.524mm|YSize=1.524mm|CornerRadius=0mm|HoleSize=0mm|Usage=FLASHONLY|Rotation=270.000|XOffset=0mm|YOffset=0mm|HoleType=Round|Shape=Octagon|*
%AMOCTAGOND27*
4,1,8,-0.3810,-0.7620,0.3810,-0.7620,0.7620,-0.3810,0.7620,0.3810,0.3810,0.7620,-0.3810,0.7620,-0.7620,0.3810,-0.7620,-0.3810,-0.3810,-0.7620,0.0*
%
%ADD27OCTAGOND27*%

%ADD28O,1.5240X3.0480*%
%ADD29O,3.0480X1.5240*%
G04:AMPARAMS|DCode=30|XSize=1.524mm|YSize=1.524mm|CornerRadius=0mm|HoleSize=0mm|Usage=FLASHONLY|Rotation=0.000|XOffset=0mm|YOffset=0mm|HoleType=Round|Shape=Octagon|*
%AMOCTAGOND30*
4,1,8,0.7620,-0.3810,0.7620,0.3810,0.3810,0.7620,-0.3810,0.7620,-0.7620,0.3810,-0.7620,-0.3810,-0.3810,-0.7620,0.3810,-0.7620,0.7620,-0.3810,0.0*
%
%ADD30OCTAGOND30*%

%ADD31C,1.2700*%
%ADD32R,1.2192X0.8128*%
%ADD33R,2.7432X2.1590*%
%ADD34R,1.0160X1.2192*%
%ADD35R,1.0160X1.5240*%
%ADD36R,0.8128X1.2192*%
%ADD37C,0.6096*%
%ADD38C,0.1524*%
%ADD39C,0.2032*%
%ADD40C,0.0508*%
%ADD41C,0.0648*%
%ADD42C,0.0518*%
%ADD43C,0.2540*%
%ADD44R,0.2016X0.2032*%
%ADD45R,1.2700X1.9050*%
%ADD46R,0.7620X1.7780*%
%ADD47R,1.2700X0.7620*%
%ADD48R,0.2032X0.2016*%
%ADD49R,2.2098X4.0132*%
%ADD50R,2.2098X1.7272*%
%ADD51R,1.4224X1.4224*%
%ADD52R,0.8636X2.2352*%
%ADD53R,3.7084X2.7178*%
%ADD54R,1.4224X1.4224*%
%ADD55R,1.5240X1.8034*%
%ADD56R,2.7178X3.7084*%
%ADD57R,1.8034X1.5240*%
%ADD58R,1.4732X0.7620*%
%ADD59R,0.7620X1.4732*%
G04:AMPARAMS|DCode=60|XSize=1.7272mm|YSize=1.7272mm|CornerRadius=0mm|HoleSize=0mm|Usage=FLASHONLY|Rotation=270.000|XOffset=0mm|YOffset=0mm|HoleType=Round|Shape=Octagon|*
%AMOCTAGOND60*
4,1,8,-0.4318,-0.8636,0.4318,-0.8636,0.8636,-0.4318,0.8636,0.4318,0.4318,0.8636,-0.4318,0.8636,-0.8636,0.4318,-0.8636,-0.4318,-0.4318,-0.8636,0.0*
%
%ADD60OCTAGOND60*%

%ADD61O,1.7272X3.2512*%
%ADD62O,3.2512X1.7272*%
G04:AMPARAMS|DCode=63|XSize=1.7272mm|YSize=1.7272mm|CornerRadius=0mm|HoleSize=0mm|Usage=FLASHONLY|Rotation=0.000|XOffset=0mm|YOffset=0mm|HoleType=Round|Shape=Octagon|*
%AMOCTAGOND63*
4,1,8,0.8636,-0.4318,0.8636,0.4318,0.4318,0.8636,-0.4318,0.8636,-0.8636,0.4318,-0.8636,-0.4318,-0.4318,-0.8636,0.4318,-0.8636,0.8636,-0.4318,0.0*
%
%ADD63OCTAGOND63*%

%ADD64C,1.4732*%
%ADD65R,1.4224X1.0160*%
%ADD66R,2.9464X2.3622*%
%ADD67R,1.2192X1.4224*%
%ADD68R,1.2192X1.7272*%
%ADD69R,1.0160X1.4224*%
D26*
Y546100D01*
D55*
X76040Y414020D02*
D03*
X55880D02*
D03*
X56388Y360680D02*
D03*
X75540D02*
D03*
X56388Y382270D02*
D03*
X75540D02*
D03*
D57*
X318770Y347472D02*
D03*
Y328320D02*
D03*
X344246Y328168D02*
D03*
Y347320D02*
D03*
X69850Y238600D02*
D03*
Y218440D02*
D03*
Y180500D02*
D03*
Y200660D02*
D03*
X181610Y91948D02*
D03*
Y111100D02*
D03*
X156210Y111252D02*
D03*
Y92100D02*
D03*
X212090Y111252D02*
D03*
Y92100D02*
D03*
D60*
X318770Y302260D02*
D03*
Y276860D02*
D03*
Y251460D02*
D03*
Y226060D02*
D03*
Y200660D02*
D03*
X344170Y302260D02*
D03*
Y276860D02*
D03*
Y251460D02*
D03*
Y226060D02*
D03*
Y200660D02*
D03*
D61*
X207010Y63500D02*
D03*
X181610D02*
D03*
X156210D02*
D03*
X130810D02*
D03*
X207010Y25400D02*
D03*
X232410D02*
D03*
X257810D02*
D03*
X283210D02*
D03*
X87630D02*
D03*
X113030D02*
D03*
X138430D02*
D03*
X163830D02*
D03*
D62*
X38100Y236220D02*
D03*
Y210820D02*
D03*
Y185420D02*
D03*
D63*
X332740Y405130D02*
D03*
Y379730D02*
D03*
X307340Y405130D02*
D03*
Y379730D02*
D03*
X281940Y405130D02*
D03*
Y379730D02*
D03*
X256540Y405130D02*
D03*
Y379730D02*
D03*
X231140Y405130D02*
D03*
Y379730D02*
D03*
D64*
X196850Y210820D02*
D03*
X172720D02*
D03*
X189230Y302260D02*
D03*
X220980Y285750D02*
D03*
X237490Y302260D02*
D03*
X266700Y285750D02*
D03*
Y307340D02*
D03*
X106680Y215900D02*
D03*
X116840Y176530D02*
D03*
X95250D02*
D03*
X158750Y137160D02*
D03*
X137160Y148590D02*
D03*
X150876Y310896D02*
D03*
X137160Y283210D02*
D03*
X157480Y394970D02*
D03*
X98810Y346960D02*
D03*
X289560Y118110D02*
D03*
X238760D02*
D03*
X226060Y151130D02*
D03*
X267970Y132080D02*
D03*
X321310Y121920D02*
D03*
X339090Y72390D02*
D03*
X280670D02*
D03*
X125730Y420370D02*
D03*
X63500Y336550D02*
D03*
D65*
X147320Y207264D02*
D03*
Y189120D02*
D03*
X207010Y254254D02*
D03*
Y236110D02*
D03*
X152400Y254254D02*
D03*
Y236110D02*
D03*
X205740Y392176D02*
D03*
Y410320D02*
D03*
X220980Y204216D02*
D03*
Y222360D02*
D03*
D66*
X27686Y93218D02*
D03*
X27940Y137414D02*
D03*
X68326Y93218D02*
D03*
X68580Y137414D02*
D03*
D67*
X189230Y252476D02*
D03*
Y230300D02*
D03*
X170180Y252476D02*
D03*
Y230300D02*
D03*
D68*
X184150Y410972D02*
D03*
Y391920D02*
D03*
D69*
X310607Y94500D02*
D03*
X328751D02*
D03*
X252187D02*
D03*
X270331D02*
D03*
M02*
