%FSLAX44Y44*%
%MOMM*%
G71*
G01*
G75*
G04 Layer_Color=8388736*
%ADD10R,0.5588X1.2700*%
%ADD11R,1.2700X0.5588*%
%ADD12R,2.5146X3.5052*%
%ADD13R,3.5052X2.5146*%
%ADD14R,1.3208X1.6002*%
%ADD15R,1.2192X1.2192*%
%ADD16R,0.6604X2.0320*%
%ADD17R,1.2192X1.2192*%
%ADD18R,2.0066X1.5240*%
%ADD19R,2.0066X3.8100*%
%ADD20R,1.6002X1.3208*%
%ADD21C,0.8128*%
%ADD22C,0.4064*%
%ADD23C,0.3048*%
%ADD24C,0.3050*%
%ADD25C,0.4060*%
%ADD26C,0.0000*%
G04:AMPARAMS|DCode=27|XSize=1.524mm|YSize=1.524mm|CornerRadius=0mm|HoleSize=0mm|Usage=FLASHONLY|Rotation=0.000|XOffset=0mm|YOffset=0mm|HoleType=Round|Shape=Octagon|*
%AMOCTAGOND27*
4,1,8,0.7620,-0.3810,0.7620,0.3810,0.3810,0.7620,-0.3810,0.7620,-0.7620,0.3810,-0.7620,-0.3810,-0.3810,-0.7620,0.3810,-0.7620,0.7620,-0.3810,0.0*
%
%ADD27OCTAGOND27*%

%ADD28O,3.0480X1.5240*%
%ADD29O,1.5240X3.0480*%
G04:AMPARAMS|DCode=30|XSize=1.524mm|YSize=1.524mm|CornerRadius=0mm|HoleSize=0mm|Usage=FLASHONLY|Rotation=270.000|XOffset=0mm|YOffset=0mm|HoleType=Round|Shape=Octagon|*
%AMOCTAGOND30*
4,1,8,-0.3810,-0.7620,0.3810,-0.7620,0.7620,-0.3810,0.7620,0.3810,0.3810,0.7620,-0.3810,0.7620,-0.7620,0.3810,-0.7620,-0.3810,-0.3810,-0.7620,0.0*
%
%ADD30OCTAGOND30*%

%ADD31C,1.2700*%
%ADD32R,0.8128X1.2192*%
%ADD33R,1.2192X0.8128*%
%ADD34R,1.0160X1.5240*%
%ADD35R,1.0160X1.2192*%
%ADD36R,2.7432X2.1590*%
%ADD37C,0.6096*%
%ADD38C,0.1524*%
%ADD39C,0.2032*%
%ADD40C,0.0508*%
%ADD41C,0.0518*%
%ADD42C,0.0648*%
%ADD43C,0.2540*%
%ADD44R,0.2032X0.2016*%
%ADD45R,1.2700X1.9050*%
%ADD46R,0.7620X1.7780*%
%ADD47R,1.2700X0.7620*%
%ADD48R,0.2016X0.2032*%
%ADD49R,0.9652X1.6764*%
%ADD50R,1.6764X0.9652*%
%ADD51R,2.9210X3.9116*%
%ADD52R,3.9116X2.9210*%
%ADD53R,1.7272X2.0066*%
%ADD54R,1.6256X1.6256*%
%ADD55R,1.0668X2.4384*%
%ADD56R,1.6256X1.6256*%
%ADD57R,2.4130X1.9304*%
%ADD58R,2.4130X4.2164*%
%ADD59R,2.0066X1.7272*%
G04:AMPARAMS|DCode=60|XSize=1.9304mm|YSize=1.9304mm|CornerRadius=0mm|HoleSize=0mm|Usage=FLASHONLY|Rotation=0.000|XOffset=0mm|YOffset=0mm|HoleType=Round|Shape=Octagon|*
%AMOCTAGOND60*
4,1,8,0.9652,-0.4826,0.9652,0.4826,0.4826,0.9652,-0.4826,0.9652,-0.9652,0.4826,-0.9652,-0.4826,-0.4826,-0.9652,0.4826,-0.9652,0.9652,-0.4826,0.0*
%
%ADD60OCTAGOND60*%

%ADD61O,3.4544X1.9304*%
%ADD62O,1.9304X3.4544*%
G04:AMPARAMS|DCode=63|XSize=1.9304mm|YSize=1.9304mm|CornerRadius=0mm|HoleSize=0mm|Usage=FLASHONLY|Rotation=270.000|XOffset=0mm|YOffset=0mm|HoleType=Round|Shape=Octagon|*
%AMOCTAGOND63*
4,1,8,-0.4826,-0.9652,0.4826,-0.9652,0.9652,-0.4826,0.9652,0.4826,0.4826,0.9652,-0.4826,0.9652,-0.9652,0.4826,-0.9652,-0.4826,-0.4826,-0.9652,0.0*
%
%ADD63OCTAGOND63*%

%ADD64C,1.6764*%
D26*
Y546100D01*
D49*
X150876Y181864D02*
D03*
X159004D02*
D03*
X166878D02*
D03*
X175006D02*
D03*
X183070D02*
D03*
X191070D02*
D03*
X199070D02*
D03*
X207070D02*
D03*
Y267716D02*
D03*
X199070D02*
D03*
X191070D02*
D03*
X183070D02*
D03*
X175006D02*
D03*
X166878D02*
D03*
X159004D02*
D03*
X150876D02*
D03*
D50*
X221996Y196790D02*
D03*
Y204790D02*
D03*
Y212790D02*
D03*
Y220790D02*
D03*
Y228854D02*
D03*
Y236982D02*
D03*
Y244856D02*
D03*
Y252984D02*
D03*
X136144D02*
D03*
Y244856D02*
D03*
Y236982D02*
D03*
Y228854D02*
D03*
Y220790D02*
D03*
Y212790D02*
D03*
Y204790D02*
D03*
Y196790D02*
D03*
D51*
X157480Y430010D02*
D03*
Y364998D02*
D03*
D52*
X93460Y311150D02*
D03*
X28448D02*
D03*
X28460Y109220D02*
D03*
X93472D02*
D03*
D53*
X70510Y257810D02*
D03*
X89662D02*
D03*
X70510Y232410D02*
D03*
X89662D02*
D03*
D54*
X68072Y203200D02*
D03*
X89240D02*
D03*
D55*
X242281Y94246D02*
D03*
Y155714D02*
D03*
X254981Y94246D02*
D03*
X267681D02*
D03*
X254981Y155714D02*
D03*
X267681D02*
D03*
X280381Y94246D02*
D03*
Y155714D02*
D03*
X300701Y94246D02*
D03*
Y155714D02*
D03*
X313401Y94246D02*
D03*
X326101D02*
D03*
X313401Y155714D02*
D03*
X326101D02*
D03*
X338801Y94246D02*
D03*
Y155714D02*
D03*
D56*
X111760Y238252D02*
D03*
Y259420D02*
D03*
D57*
X98810Y374510D02*
D03*
Y397510D02*
D03*
Y420624D02*
D03*
D58*
X35560Y397510D02*
D03*
D59*
X207010Y111100D02*
D03*
Y91948D02*
D03*
D60*
X231140Y379730D02*
D03*
Y405130D02*
D03*
X256540Y379730D02*
D03*
Y405130D02*
D03*
X281940Y379730D02*
D03*
Y405130D02*
D03*
X307340Y379730D02*
D03*
Y405130D02*
D03*
X332740Y379730D02*
D03*
Y405130D02*
D03*
D61*
X38100Y185420D02*
D03*
Y210820D02*
D03*
Y236220D02*
D03*
D62*
X163830Y25400D02*
D03*
X138430D02*
D03*
X113030D02*
D03*
X87630D02*
D03*
X283210D02*
D03*
X257810D02*
D03*
X232410D02*
D03*
X207010D02*
D03*
X130810Y63500D02*
D03*
X156210D02*
D03*
X181610D02*
D03*
X207010D02*
D03*
D63*
X344170Y200660D02*
D03*
Y226060D02*
D03*
Y251460D02*
D03*
Y276860D02*
D03*
Y302260D02*
D03*
X318770Y200660D02*
D03*
Y226060D02*
D03*
Y251460D02*
D03*
Y276860D02*
D03*
Y302260D02*
D03*
D64*
X63500Y336550D02*
D03*
X125730Y420370D02*
D03*
X280670Y72390D02*
D03*
X339090D02*
D03*
X321310Y121920D02*
D03*
X267970Y132080D02*
D03*
X226060Y151130D02*
D03*
X238760Y118110D02*
D03*
X289560D02*
D03*
X98810Y346960D02*
D03*
X157480Y394970D02*
D03*
X137160Y283210D02*
D03*
X150876Y310896D02*
D03*
X137160Y148590D02*
D03*
X158750Y137160D02*
D03*
X95250Y176530D02*
D03*
X116840D02*
D03*
X106680Y215900D02*
D03*
X266700Y307340D02*
D03*
Y285750D02*
D03*
X237490Y302260D02*
D03*
X220980Y285750D02*
D03*
X189230Y302260D02*
D03*
X172720Y210820D02*
D03*
X196850D02*
D03*
M02*
