%FSLAX44Y44*%
%MOMM*%
G71*
G01*
G75*
G04 Layer_Color=8388736*
%ADD10R,2.0066X3.8100*%
%ADD11R,2.0066X1.5240*%
%ADD12R,1.2192X1.2192*%
%ADD13R,0.6604X2.0320*%
%ADD14R,3.5052X2.5146*%
%ADD15R,1.2192X1.2192*%
%ADD16R,1.3208X1.6002*%
%ADD17R,2.5146X3.5052*%
%ADD18R,1.6002X1.3208*%
%ADD19R,1.2700X0.5588*%
%ADD20R,0.5588X1.2700*%
%ADD21C,0.3048*%
%ADD22C,0.4064*%
%ADD23C,0.8128*%
%ADD24C,0.0000*%
G04:AMPARAMS|DCode=25|XSize=1.524mm|YSize=1.524mm|CornerRadius=0mm|HoleSize=0mm|Usage=FLASHONLY|Rotation=270.000|XOffset=0mm|YOffset=0mm|HoleType=Round|Shape=Octagon|*
%AMOCTAGOND25*
4,1,8,-0.3810,-0.7620,0.3810,-0.7620,0.7620,-0.3810,0.7620,0.3810,0.3810,0.7620,-0.3810,0.7620,-0.7620,0.3810,-0.7620,-0.3810,-0.3810,-0.7620,0.0*
%
%ADD25OCTAGOND25*%

%ADD26O,1.5240X3.0480*%
%ADD27O,3.0480X1.5240*%
G04:AMPARAMS|DCode=28|XSize=1.524mm|YSize=1.524mm|CornerRadius=0mm|HoleSize=0mm|Usage=FLASHONLY|Rotation=0.000|XOffset=0mm|YOffset=0mm|HoleType=Round|Shape=Octagon|*
%AMOCTAGOND28*
4,1,8,0.7620,-0.3810,0.7620,0.3810,0.3810,0.7620,-0.3810,0.7620,-0.7620,0.3810,-0.7620,-0.3810,-0.3810,-0.7620,0.3810,-0.7620,0.7620,-0.3810,0.0*
%
%ADD28OCTAGOND28*%

%ADD29C,1.2700*%
%ADD30C,0.8128*%
%ADD31R,1.2192X0.8128*%
%ADD32R,2.7432X2.1590*%
%ADD33R,1.0160X1.2192*%
%ADD34R,1.0160X1.5240*%
%ADD35R,0.8128X1.2192*%
%ADD36C,0.1524*%
%ADD37C,0.2032*%
%ADD38C,0.0508*%
%ADD39C,0.0518*%
%ADD40C,0.0648*%
%ADD41C,0.2540*%
%ADD42R,0.2016X0.2032*%
%ADD43R,1.2700X1.9050*%
%ADD44R,0.7620X1.7780*%
%ADD45R,1.2700X0.7620*%
%ADD46R,0.2032X0.2016*%
%ADD47R,2.2098X4.0132*%
%ADD48R,2.2098X1.7272*%
%ADD49R,1.4224X1.4224*%
%ADD50R,0.8636X2.2352*%
%ADD51R,3.7084X2.7178*%
%ADD52R,1.4224X1.4224*%
%ADD53R,1.5240X1.8034*%
%ADD54R,2.7178X3.7084*%
%ADD55R,1.8034X1.5240*%
%ADD56R,1.4732X0.7620*%
%ADD57R,0.7620X1.4732*%
G04:AMPARAMS|DCode=58|XSize=1.7272mm|YSize=1.7272mm|CornerRadius=0mm|HoleSize=0mm|Usage=FLASHONLY|Rotation=270.000|XOffset=0mm|YOffset=0mm|HoleType=Round|Shape=Octagon|*
%AMOCTAGOND58*
4,1,8,-0.4318,-0.8636,0.4318,-0.8636,0.8636,-0.4318,0.8636,0.4318,0.4318,0.8636,-0.4318,0.8636,-0.8636,0.4318,-0.8636,-0.4318,-0.4318,-0.8636,0.0*
%
%ADD58OCTAGOND58*%

%ADD59O,1.7272X3.2512*%
%ADD60O,3.2512X1.7272*%
G04:AMPARAMS|DCode=61|XSize=1.7272mm|YSize=1.7272mm|CornerRadius=0mm|HoleSize=0mm|Usage=FLASHONLY|Rotation=0.000|XOffset=0mm|YOffset=0mm|HoleType=Round|Shape=Octagon|*
%AMOCTAGOND61*
4,1,8,0.8636,-0.4318,0.8636,0.4318,0.4318,0.8636,-0.4318,0.8636,-0.8636,0.4318,-0.8636,-0.4318,-0.4318,-0.8636,0.4318,-0.8636,0.8636,-0.4318,0.0*
%
%ADD61OCTAGOND61*%

%ADD62C,1.4732*%
D24*
Y546100D01*
D47*
X35560Y397510D02*
D03*
D48*
X98810Y420624D02*
D03*
Y397510D02*
D03*
Y374510D02*
D03*
D49*
X111760Y259420D02*
D03*
Y238252D02*
D03*
D50*
X338801Y155714D02*
D03*
Y94246D02*
D03*
X326101Y155714D02*
D03*
X313401D02*
D03*
X326101Y94246D02*
D03*
X313401D02*
D03*
X300701Y155714D02*
D03*
Y94246D02*
D03*
X280381Y155714D02*
D03*
Y94246D02*
D03*
X267681Y155714D02*
D03*
X254981D02*
D03*
X267681Y94246D02*
D03*
X254981D02*
D03*
X242281Y155714D02*
D03*
Y94246D02*
D03*
D51*
X93472Y109220D02*
D03*
X28460D02*
D03*
X28448Y311150D02*
D03*
X93460D02*
D03*
D52*
X89240Y210820D02*
D03*
X68072D02*
D03*
D53*
X89662Y232410D02*
D03*
X70510D02*
D03*
X89662Y257810D02*
D03*
X70510D02*
D03*
D54*
X157480Y364998D02*
D03*
Y430010D02*
D03*
D55*
X207010Y91948D02*
D03*
Y111100D02*
D03*
D56*
X136144Y196790D02*
D03*
Y204790D02*
D03*
Y212790D02*
D03*
Y220790D02*
D03*
Y228854D02*
D03*
Y236982D02*
D03*
Y244856D02*
D03*
Y252984D02*
D03*
X221996D02*
D03*
Y244856D02*
D03*
Y236982D02*
D03*
Y228854D02*
D03*
Y220790D02*
D03*
Y212790D02*
D03*
Y204790D02*
D03*
Y196790D02*
D03*
D57*
X150876Y267716D02*
D03*
X159004D02*
D03*
X166878D02*
D03*
X175006D02*
D03*
X183070D02*
D03*
X191070D02*
D03*
X199070D02*
D03*
X207070D02*
D03*
Y181864D02*
D03*
X199070D02*
D03*
X191070D02*
D03*
X183070D02*
D03*
X175006D02*
D03*
X166878D02*
D03*
X159004D02*
D03*
X150876D02*
D03*
D58*
X318770Y302260D02*
D03*
Y276860D02*
D03*
Y251460D02*
D03*
Y226060D02*
D03*
Y200660D02*
D03*
X344170Y302260D02*
D03*
Y276860D02*
D03*
Y251460D02*
D03*
Y226060D02*
D03*
Y200660D02*
D03*
D59*
X207010Y63500D02*
D03*
X181610D02*
D03*
X156210D02*
D03*
X130810D02*
D03*
X207010Y25400D02*
D03*
X232410D02*
D03*
X257810D02*
D03*
X283210D02*
D03*
X87630D02*
D03*
X113030D02*
D03*
X138430D02*
D03*
X163830D02*
D03*
D60*
X38100Y236220D02*
D03*
Y210820D02*
D03*
Y185420D02*
D03*
D61*
X332740Y405130D02*
D03*
Y379730D02*
D03*
X307340Y405130D02*
D03*
Y379730D02*
D03*
X281940Y405130D02*
D03*
Y379730D02*
D03*
X256540Y405130D02*
D03*
Y379730D02*
D03*
X231140Y405130D02*
D03*
Y379730D02*
D03*
D62*
X114300Y184150D02*
D03*
X93980D02*
D03*
M02*
