%FSLAX44Y44*%
%MOMM*%
G71*
G01*
G75*
G04 Layer_Color=32896*
%ADD10R,2.0066X3.8100*%
%ADD11R,2.0066X1.5240*%
%ADD12R,1.2192X1.2192*%
%ADD13R,0.6604X2.0320*%
%ADD14R,3.5052X2.5146*%
%ADD15R,1.2192X1.2192*%
%ADD16R,1.3208X1.6002*%
%ADD17R,2.5146X3.5052*%
%ADD18R,1.6002X1.3208*%
%ADD19R,1.2700X0.5588*%
%ADD20R,0.5588X1.2700*%
%ADD21C,0.3048*%
%ADD22C,0.4064*%
%ADD23C,0.8128*%
%ADD24C,0.0000*%
G04:AMPARAMS|DCode=25|XSize=1.524mm|YSize=1.524mm|CornerRadius=0mm|HoleSize=0mm|Usage=FLASHONLY|Rotation=270.000|XOffset=0mm|YOffset=0mm|HoleType=Round|Shape=Octagon|*
%AMOCTAGOND25*
4,1,8,-0.3810,-0.7620,0.3810,-0.7620,0.7620,-0.3810,0.7620,0.3810,0.3810,0.7620,-0.3810,0.7620,-0.7620,0.3810,-0.7620,-0.3810,-0.3810,-0.7620,0.0*
%
%ADD25OCTAGOND25*%

%ADD26O,1.5240X3.0480*%
%ADD27O,3.0480X1.5240*%
G04:AMPARAMS|DCode=28|XSize=1.524mm|YSize=1.524mm|CornerRadius=0mm|HoleSize=0mm|Usage=FLASHONLY|Rotation=0.000|XOffset=0mm|YOffset=0mm|HoleType=Round|Shape=Octagon|*
%AMOCTAGOND28*
4,1,8,0.7620,-0.3810,0.7620,0.3810,0.3810,0.7620,-0.3810,0.7620,-0.7620,0.3810,-0.7620,-0.3810,-0.3810,-0.7620,0.3810,-0.7620,0.7620,-0.3810,0.0*
%
%ADD28OCTAGOND28*%

%ADD29C,1.2700*%
%ADD30C,0.8128*%
%ADD31R,1.2192X0.8128*%
%ADD32R,2.7432X2.1590*%
%ADD33R,1.0160X1.2192*%
%ADD34R,1.0160X1.5240*%
%ADD35R,0.8128X1.2192*%
%ADD36C,0.1524*%
%ADD37C,0.2032*%
%ADD38C,0.0508*%
%ADD39C,0.0518*%
%ADD40C,0.0648*%
%ADD41C,0.2540*%
%ADD42R,0.2016X0.2032*%
%ADD43R,1.2700X1.9050*%
%ADD44R,0.7620X1.7780*%
%ADD45R,1.2700X0.7620*%
%ADD46R,0.2032X0.2016*%
%ADD47R,2.2098X4.0132*%
%ADD48R,2.2098X1.7272*%
%ADD49R,1.4224X1.4224*%
%ADD50R,0.8636X2.2352*%
%ADD51R,3.7084X2.7178*%
%ADD52R,1.4224X1.4224*%
%ADD53R,1.5240X1.8034*%
%ADD54R,2.7178X3.7084*%
%ADD55R,1.8034X1.5240*%
%ADD56R,1.4732X0.7620*%
%ADD57R,0.7620X1.4732*%
G04:AMPARAMS|DCode=58|XSize=1.7272mm|YSize=1.7272mm|CornerRadius=0mm|HoleSize=0mm|Usage=FLASHONLY|Rotation=270.000|XOffset=0mm|YOffset=0mm|HoleType=Round|Shape=Octagon|*
%AMOCTAGOND58*
4,1,8,-0.4318,-0.8636,0.4318,-0.8636,0.8636,-0.4318,0.8636,0.4318,0.4318,0.8636,-0.4318,0.8636,-0.8636,0.4318,-0.8636,-0.4318,-0.4318,-0.8636,0.0*
%
%ADD58OCTAGOND58*%

%ADD59O,1.7272X3.2512*%
%ADD60O,3.2512X1.7272*%
G04:AMPARAMS|DCode=61|XSize=1.7272mm|YSize=1.7272mm|CornerRadius=0mm|HoleSize=0mm|Usage=FLASHONLY|Rotation=0.000|XOffset=0mm|YOffset=0mm|HoleType=Round|Shape=Octagon|*
%AMOCTAGOND61*
4,1,8,0.8636,-0.4318,0.8636,0.4318,0.4318,0.8636,-0.4318,0.8636,-0.8636,0.4318,-0.8636,-0.4318,-0.4318,-0.8636,0.4318,-0.8636,0.8636,-0.4318,0.0*
%
%ADD61OCTAGOND61*%

%ADD62C,1.4732*%
%ADD63R,1.4224X1.0160*%
%ADD64R,2.9464X2.3622*%
%ADD65R,1.2192X1.4224*%
%ADD66R,1.2192X1.7272*%
%ADD67R,1.0160X1.4224*%
%ADD68C,0.0762*%
%ADD69C,0.1270*%
%ADD70R,0.3024X0.7056*%
D24*
Y546100D01*
D36*
X141320Y195120D02*
Y201168D01*
X153416Y195120D02*
Y201168D01*
X9398Y94488D02*
X13462D01*
X41910D02*
X46482D01*
X42164Y136652D02*
X46482D01*
X9398D02*
X13716D01*
X46482Y94488D02*
Y136652D01*
X9398Y94488D02*
Y136652D01*
X50038Y94488D02*
X54102D01*
X82550D02*
X87122D01*
X82804Y136652D02*
X87122D01*
X50038D02*
X54356D01*
X87122Y94488D02*
Y136652D01*
X50038Y94488D02*
Y136652D01*
X201010Y234490D02*
Y240538D01*
X213106Y234490D02*
Y240538D01*
X146400Y234490D02*
Y240538D01*
X158496Y234490D02*
Y240538D01*
X211740Y398272D02*
Y404320D01*
X199644Y398272D02*
Y404320D01*
X216820Y195072D02*
Y201120D01*
X204724Y195072D02*
Y201120D01*
X316703Y88500D02*
X322751D01*
X316703Y100596D02*
X322751D01*
X258283Y88500D02*
X264331D01*
X258283Y100596D02*
X264331D01*
D38*
X41910Y134366D02*
X44196D01*
X11684D02*
X13970D01*
X44196Y96774D02*
Y134366D01*
X41656Y96774D02*
X44196D01*
X11684D02*
X13716D01*
X11684D02*
Y134366D01*
X82550D02*
X84836D01*
X52324D02*
X54610D01*
X84836Y96774D02*
Y134366D01*
X82296Y96774D02*
X84836D01*
X52324D02*
X54356D01*
X52324D02*
Y134366D01*
D39*
X150623Y176846D02*
X151702Y177925D01*
X153861D01*
X154940Y176846D01*
Y172529D01*
X153861Y171450D01*
X151702D01*
X150623Y172529D01*
X148465Y171450D02*
X146307D01*
X147386D01*
Y177925D01*
X148465Y176846D01*
X143069D02*
X141990Y177925D01*
X139832D01*
X138753Y176846D01*
Y172529D01*
X139832Y171450D01*
X141990D01*
X143069Y172529D01*
Y176846D01*
X209043Y261936D02*
X210123Y263015D01*
X212281D01*
X213360Y261936D01*
Y257619D01*
X212281Y256540D01*
X210123D01*
X209043Y257619D01*
X206885D02*
X205806Y256540D01*
X203648D01*
X202568Y257619D01*
Y261936D01*
X203648Y263015D01*
X205806D01*
X206885Y261936D01*
Y260857D01*
X205806Y259778D01*
X202568D01*
X193040Y263015D02*
Y256540D01*
X188723D01*
X182248D02*
X186565D01*
X182248Y260857D01*
Y261936D01*
X183328Y263015D01*
X185486D01*
X186565Y261936D01*
X173990Y263015D02*
Y256540D01*
X169673D01*
X167515D02*
X165357D01*
X166436D01*
Y263015D01*
X167515Y261936D01*
X153163D02*
X154242Y263015D01*
X156401D01*
X157480Y261936D01*
Y257619D01*
X156401Y256540D01*
X154242D01*
X153163Y257619D01*
X151005Y261936D02*
X149926Y263015D01*
X147768D01*
X146688Y261936D01*
Y260857D01*
X147768Y259778D01*
X146688Y258698D01*
Y257619D01*
X147768Y256540D01*
X149926D01*
X151005Y257619D01*
Y258698D01*
X149926Y259778D01*
X151005Y260857D01*
Y261936D01*
X149926Y259778D02*
X147768D01*
X33783Y415606D02*
X34862Y416685D01*
X37021D01*
X38100Y415606D01*
Y411289D01*
X37021Y410210D01*
X34862D01*
X33783Y411289D01*
X27308Y416685D02*
X29467Y415606D01*
X31625Y413447D01*
Y411289D01*
X30546Y410210D01*
X28388D01*
X27308Y411289D01*
Y412368D01*
X28388Y413447D01*
X31625D01*
X212853Y428306D02*
X213932Y429385D01*
X216091D01*
X217170Y428306D01*
Y423989D01*
X216091Y422910D01*
X213932D01*
X212853Y423989D01*
X210695Y429385D02*
X206378D01*
Y428306D01*
X210695Y423989D01*
Y422910D01*
X325120Y360680D02*
Y367155D01*
X321883D01*
X320803Y366076D01*
Y363918D01*
X321883Y362838D01*
X325120D01*
X322962D02*
X320803Y360680D01*
X318645D02*
X316487D01*
X317566D01*
Y367155D01*
X318645Y366076D01*
X313249D02*
X312170Y367155D01*
X310012D01*
X308933Y366076D01*
Y361759D01*
X310012Y360680D01*
X312170D01*
X313249Y361759D01*
Y366076D01*
X350520Y360680D02*
Y367155D01*
X347282D01*
X346203Y366076D01*
Y363918D01*
X347282Y362838D01*
X350520D01*
X348362D02*
X346203Y360680D01*
X344045D02*
X341887D01*
X342966D01*
Y367155D01*
X344045Y366076D01*
X338649Y360680D02*
X336491D01*
X337570D01*
Y367155D01*
X338649Y366076D01*
X189230Y424180D02*
Y430655D01*
X185993D01*
X184913Y429576D01*
Y427417D01*
X185993Y426338D01*
X189230D01*
X187072D02*
X184913Y424180D01*
X178438Y430655D02*
X182755D01*
Y427417D01*
X180597Y428497D01*
X179518D01*
X178438Y427417D01*
Y425259D01*
X179518Y424180D01*
X181676D01*
X182755Y425259D01*
X38100Y356870D02*
Y363345D01*
X34862D01*
X33783Y362266D01*
Y360107D01*
X34862Y359028D01*
X38100D01*
X35942D02*
X33783Y356870D01*
X27308D02*
X31625D01*
X27308Y361187D01*
Y362266D01*
X28388Y363345D01*
X30546D01*
X31625Y362266D01*
X38100Y378460D02*
Y384935D01*
X34862D01*
X33783Y383856D01*
Y381698D01*
X34862Y380618D01*
X38100D01*
X35942D02*
X33783Y378460D01*
X31625D02*
X29467D01*
X30546D01*
Y384935D01*
X31625Y383856D01*
X89663Y228916D02*
X90743Y229995D01*
X92901D01*
X93980Y228916D01*
Y224599D01*
X92901Y223520D01*
X90743D01*
X89663Y224599D01*
X84268Y223520D02*
Y229995D01*
X87505Y226758D01*
X83188D01*
X231903Y200976D02*
X232983Y202055D01*
X235141D01*
X236220Y200976D01*
Y196659D01*
X235141Y195580D01*
X232983D01*
X231903Y196659D01*
X229745Y195580D02*
X227587D01*
X228666D01*
Y202055D01*
X229745Y200976D01*
X224349Y195580D02*
X222191D01*
X223270D01*
Y202055D01*
X224349Y200976D01*
X88393Y173036D02*
X89473Y174115D01*
X91631D01*
X92710Y173036D01*
Y168719D01*
X91631Y167640D01*
X89473D01*
X88393Y168719D01*
X81918Y167640D02*
X86235D01*
X81918Y171957D01*
Y173036D01*
X82998Y174115D01*
X85156D01*
X86235Y173036D01*
X189230Y124460D02*
Y130935D01*
X185993D01*
X184913Y129856D01*
Y127697D01*
X185993Y126618D01*
X189230D01*
X187072D02*
X184913Y124460D01*
X179518D02*
Y130935D01*
X182755Y127697D01*
X178438D01*
X161290Y124460D02*
Y130935D01*
X158053D01*
X156973Y129856D01*
Y127697D01*
X158053Y126618D01*
X161290D01*
X159132D02*
X156973Y124460D01*
X154815Y129856D02*
X153736Y130935D01*
X151578D01*
X150499Y129856D01*
Y128777D01*
X151578Y127697D01*
X152657D01*
X151578D01*
X150499Y126618D01*
Y125539D01*
X151578Y124460D01*
X153736D01*
X154815Y125539D01*
X214510Y123942D02*
Y130417D01*
X211272D01*
X210193Y129338D01*
Y127179D01*
X211272Y126100D01*
X214510D01*
X212351D02*
X210193Y123942D01*
X208035Y125021D02*
X206956Y123942D01*
X204797D01*
X203718Y125021D01*
Y129338D01*
X204797Y130417D01*
X206956D01*
X208035Y129338D01*
Y128258D01*
X206956Y127179D01*
X203718D01*
X323343Y80326D02*
X324422Y81405D01*
X326581D01*
X327660Y80326D01*
Y76009D01*
X326581Y74930D01*
X324422D01*
X323343Y76009D01*
X321185Y74930D02*
X319027D01*
X320106D01*
Y81405D01*
X321185Y80326D01*
X311473Y74930D02*
X315789D01*
X311473Y79247D01*
Y80326D01*
X312552Y81405D01*
X314710D01*
X315789Y80326D01*
X264923D02*
X266003Y81405D01*
X268161D01*
X269240Y80326D01*
Y76009D01*
X268161Y74930D01*
X266003D01*
X264923Y76009D01*
X262765Y74930D02*
X260607D01*
X261686D01*
Y81405D01*
X262765Y80326D01*
X257369D02*
X256290Y81405D01*
X254132D01*
X253053Y80326D01*
Y79247D01*
X254132Y78168D01*
X255211D01*
X254132D01*
X253053Y77088D01*
Y76009D01*
X254132Y74930D01*
X256290D01*
X257369Y76009D01*
D40*
X33020Y75055D02*
Y68580D01*
X29783D01*
X28703Y69659D01*
Y73976D01*
X29783Y75055D01*
X33020D01*
X26545Y68580D02*
X24387D01*
X25466D01*
Y75055D01*
X26545Y73976D01*
X71120Y73785D02*
Y67310D01*
X67882D01*
X66803Y68389D01*
Y72706D01*
X67882Y73785D01*
X71120D01*
X60328Y67310D02*
X64645D01*
X60328Y71627D01*
Y72706D01*
X61408Y73785D01*
X63566D01*
X64645Y72706D01*
D41*
X265430Y431800D02*
X260352D01*
X262891D01*
Y447035D01*
X265430Y444496D01*
X252734Y431800D02*
Y434339D01*
X250195D01*
Y431800D01*
X252734D01*
X240038Y444496D02*
X237499Y447035D01*
X232421D01*
X229881Y444496D01*
Y434339D01*
X232421Y431800D01*
X237499D01*
X240038Y434339D01*
Y444496D01*
D68*
X182980Y223680D02*
Y243840D01*
X195580Y223680D02*
Y243840D01*
X163930Y223680D02*
Y243840D01*
X176530Y223680D02*
Y243840D01*
D69*
X189230Y220680D02*
Y245872D01*
X170180Y220680D02*
Y245872D01*
D70*
X189242Y233708D02*
D03*
X170192D02*
D03*
M02*
