%FSLAX44Y44*%
%MOMM*%
G71*
G01*
G75*
G04 Layer_Physical_Order=1*
G04 Layer_Color=255*
%ADD10R,1.6002X1.3208*%
%ADD11R,2.0066X3.8100*%
%ADD12R,2.0066X1.5240*%
%ADD13R,1.2192X1.2192*%
%ADD14R,0.6604X2.0320*%
%ADD15R,3.5052X2.5146*%
%ADD16R,1.2192X1.2192*%
%ADD17R,1.3208X1.6002*%
%ADD18R,2.5146X3.5052*%
%ADD19R,1.2700X0.5588*%
%ADD20R,0.5588X1.2700*%
%ADD21C,0.4060*%
%ADD22C,0.4064*%
%ADD23C,0.3048*%
%ADD24C,0.3050*%
%ADD25C,0.8128*%
%ADD26C,0.0000*%
G04:AMPARAMS|DCode=27|XSize=1.524mm|YSize=1.524mm|CornerRadius=0mm|HoleSize=0mm|Usage=FLASHONLY|Rotation=270.000|XOffset=0mm|YOffset=0mm|HoleType=Round|Shape=Octagon|*
%AMOCTAGOND27*
4,1,8,-0.3810,-0.7620,0.3810,-0.7620,0.7620,-0.3810,0.7620,0.3810,0.3810,0.7620,-0.3810,0.7620,-0.7620,0.3810,-0.7620,-0.3810,-0.3810,-0.7620,0.0*
%
%ADD27OCTAGOND27*%

%ADD28O,1.5240X3.0480*%
%ADD29O,3.0480X1.5240*%
G04:AMPARAMS|DCode=30|XSize=1.524mm|YSize=1.524mm|CornerRadius=0mm|HoleSize=0mm|Usage=FLASHONLY|Rotation=0.000|XOffset=0mm|YOffset=0mm|HoleType=Round|Shape=Octagon|*
%AMOCTAGOND30*
4,1,8,0.7620,-0.3810,0.7620,0.3810,0.3810,0.7620,-0.3810,0.7620,-0.7620,0.3810,-0.7620,-0.3810,-0.3810,-0.7620,0.3810,-0.7620,0.7620,-0.3810,0.0*
%
%ADD30OCTAGOND30*%

%ADD31C,1.2700*%
G36*
X370000Y-0D02*
X370000Y-0D01*
X-0D01*
X-0Y458730D01*
X1270Y460000D01*
X370000D01*
Y-0D01*
D02*
G37*
%LPC*%
G36*
X299431Y106946D02*
X294859D01*
Y95516D01*
X299431D01*
Y106946D01*
D02*
G37*
G36*
X241011D02*
X236439D01*
Y95516D01*
X241011D01*
Y106946D01*
D02*
G37*
G36*
X48526Y124333D02*
X29730D01*
Y110490D01*
X48526D01*
Y124333D01*
D02*
G37*
G36*
X27190D02*
X8394D01*
Y110490D01*
X27190D01*
Y124333D01*
D02*
G37*
G36*
X299431Y92976D02*
X294859D01*
Y81546D01*
X299431D01*
Y92976D01*
D02*
G37*
G36*
X241011D02*
X236439D01*
Y81546D01*
X241011D01*
Y92976D01*
D02*
G37*
G36*
X48526Y107950D02*
X29730D01*
Y94107D01*
X48526D01*
Y107950D01*
D02*
G37*
G36*
X27190D02*
X8394D01*
Y94107D01*
X27190D01*
Y107950D01*
D02*
G37*
G36*
X55800Y209550D02*
X39370D01*
Y200572D01*
X45720D01*
X48372Y200921D01*
X50844Y201945D01*
X52966Y203574D01*
X54595Y205696D01*
X55619Y208168D01*
X55800Y209550D01*
D02*
G37*
G36*
X36830D02*
X20399D01*
X20582Y208168D01*
X21605Y205696D01*
X23234Y203574D01*
X25356Y201945D01*
X27828Y200921D01*
X30480Y200572D01*
X36830D01*
Y209550D01*
D02*
G37*
G36*
X45720Y221068D02*
X39370D01*
Y212090D01*
X55800D01*
X55619Y213472D01*
X54595Y215944D01*
X52966Y218066D01*
X50844Y219695D01*
X48372Y220718D01*
X45720Y221068D01*
D02*
G37*
G36*
X36830D02*
X30480D01*
X27828Y220718D01*
X25356Y219695D01*
X23234Y218066D01*
X21605Y215944D01*
X20582Y213472D01*
X20399Y212090D01*
X36830D01*
Y221068D01*
D02*
G37*
G36*
X331546Y119888D02*
X323342D01*
Y111684D01*
X324029Y111774D01*
X326562Y112823D01*
X328737Y114493D01*
X330407Y116668D01*
X331456Y119201D01*
X331546Y119888D01*
D02*
G37*
G36*
X319278D02*
X311074D01*
X311164Y119201D01*
X312213Y116668D01*
X313883Y114493D01*
X316058Y112823D01*
X318591Y111774D01*
X319278Y111684D01*
Y119888D01*
D02*
G37*
G36*
X323342Y132156D02*
Y123952D01*
X331546D01*
X331456Y124639D01*
X330407Y127172D01*
X328737Y129347D01*
X326562Y131017D01*
X324029Y132066D01*
X323342Y132156D01*
D02*
G37*
G36*
X319278D02*
X318591Y132066D01*
X316058Y131017D01*
X313883Y129347D01*
X312213Y127172D01*
X311164Y124639D01*
X311074Y123952D01*
X319278D01*
Y132156D01*
D02*
G37*
G36*
X182880Y81201D02*
Y64770D01*
X191858D01*
Y71120D01*
X191509Y73772D01*
X190485Y76244D01*
X188856Y78366D01*
X186734Y79995D01*
X184262Y81018D01*
X182880Y81201D01*
D02*
G37*
G36*
X174078Y24130D02*
X165100D01*
Y7699D01*
X166482Y7882D01*
X168954Y8905D01*
X171076Y10534D01*
X172705Y12656D01*
X173729Y15128D01*
X174078Y17780D01*
Y24130D01*
D02*
G37*
G36*
X162560D02*
X153582D01*
Y17780D01*
X153932Y15128D01*
X154955Y12656D01*
X156584Y10534D01*
X158706Y8905D01*
X161178Y7882D01*
X162560Y7699D01*
Y24130D01*
D02*
G37*
G36*
X139700Y43101D02*
Y26670D01*
X148678D01*
Y33020D01*
X148329Y35672D01*
X147305Y38144D01*
X145676Y40266D01*
X143554Y41895D01*
X141082Y42919D01*
X139700Y43101D01*
D02*
G37*
G36*
X137160D02*
X135778Y42919D01*
X133306Y41895D01*
X131184Y40266D01*
X129555Y38144D01*
X128532Y35672D01*
X128182Y33020D01*
Y26670D01*
X137160D01*
Y43101D01*
D02*
G37*
G36*
X113030Y43780D02*
X110245Y43413D01*
X107650Y42339D01*
X105421Y40628D01*
X103712Y38400D01*
X102637Y35805D01*
X102270Y33020D01*
Y17780D01*
X102637Y14995D01*
X103712Y12400D01*
X105421Y10172D01*
X107650Y8461D01*
X110245Y7387D01*
X113030Y7020D01*
X115815Y7387D01*
X118410Y8461D01*
X120639Y10172D01*
X122348Y12400D01*
X123423Y14995D01*
X123790Y17780D01*
Y33020D01*
X123423Y35805D01*
X122348Y38400D01*
X120639Y40628D01*
X118410Y42339D01*
X115815Y43413D01*
X113030Y43780D01*
D02*
G37*
G36*
X87630D02*
X84845Y43413D01*
X82250Y42339D01*
X80021Y40628D01*
X78312Y38400D01*
X77237Y35805D01*
X76870Y33020D01*
Y17780D01*
X77237Y14995D01*
X78312Y12400D01*
X80021Y10172D01*
X82250Y8461D01*
X84845Y7387D01*
X87630Y7020D01*
X90415Y7387D01*
X93010Y8461D01*
X95239Y10172D01*
X96948Y12400D01*
X98023Y14995D01*
X98390Y17780D01*
Y33020D01*
X98023Y35805D01*
X96948Y38400D01*
X95239Y40628D01*
X93010Y42339D01*
X90415Y43413D01*
X87630Y43780D01*
D02*
G37*
G36*
X148678Y24130D02*
X139700D01*
Y7699D01*
X141082Y7882D01*
X143554Y8905D01*
X145676Y10534D01*
X147305Y12656D01*
X148329Y15128D01*
X148678Y17780D01*
Y24130D01*
D02*
G37*
G36*
X137160D02*
X128182D01*
Y17780D01*
X128532Y15128D01*
X129555Y12656D01*
X131184Y10534D01*
X133306Y8905D01*
X135778Y7882D01*
X137160Y7699D01*
Y24130D01*
D02*
G37*
G36*
X191858Y62230D02*
X182880D01*
Y45799D01*
X184262Y45981D01*
X186734Y47005D01*
X188856Y48634D01*
X190485Y50756D01*
X191509Y53228D01*
X191858Y55880D01*
Y62230D01*
D02*
G37*
G36*
X180340D02*
X171362D01*
Y55880D01*
X171712Y53228D01*
X172735Y50756D01*
X174364Y48634D01*
X176486Y47005D01*
X178958Y45981D01*
X180340Y45799D01*
Y62230D01*
D02*
G37*
G36*
Y81201D02*
X178958Y81018D01*
X176486Y79995D01*
X174364Y78366D01*
X172735Y76244D01*
X171712Y73772D01*
X171362Y71120D01*
Y64770D01*
X180340D01*
Y81201D01*
D02*
G37*
G36*
X307051Y107454D02*
X306543Y106946D01*
X301971D01*
Y94246D01*
Y81546D01*
X303702D01*
X304188Y80373D01*
X283605Y59790D01*
X273050D01*
X271068Y59395D01*
X269387Y58273D01*
X254177Y43062D01*
X252430Y42339D01*
X250201Y40628D01*
X248491Y38400D01*
X247417Y35805D01*
X247050Y33020D01*
Y17780D01*
X247417Y14995D01*
X248491Y12400D01*
X250201Y10172D01*
X252430Y8461D01*
X255025Y7387D01*
X257810Y7020D01*
X260595Y7387D01*
X263190Y8461D01*
X265418Y10172D01*
X267129Y12400D01*
X268203Y14995D01*
X268570Y17780D01*
Y33020D01*
X268203Y35805D01*
X267129Y38400D01*
X265842Y40077D01*
X275195Y49430D01*
X285750D01*
X285912Y49463D01*
X286538Y48292D01*
X281846Y43601D01*
X280425Y43413D01*
X277830Y42339D01*
X275602Y40628D01*
X273892Y38400D01*
X272817Y35805D01*
X272450Y33020D01*
Y17780D01*
X272817Y14995D01*
X273892Y12400D01*
X275602Y10172D01*
X277830Y8461D01*
X280425Y7387D01*
X283210Y7020D01*
X285995Y7387D01*
X288590Y8461D01*
X290819Y10172D01*
X292528Y12400D01*
X293603Y14995D01*
X293970Y17780D01*
Y33020D01*
X293603Y35805D01*
X292528Y38400D01*
X291993Y39098D01*
X329139Y76244D01*
X330216Y75524D01*
X329934Y74843D01*
X329611Y72390D01*
X329934Y69937D01*
X330881Y67650D01*
X332387Y65687D01*
X334351Y64181D01*
X336637Y63234D01*
X339090Y62911D01*
X341543Y63234D01*
X343829Y64181D01*
X345793Y65687D01*
X347299Y67650D01*
X348246Y69937D01*
X348569Y72390D01*
X348246Y74843D01*
X347299Y77130D01*
X345793Y79093D01*
X344912Y79768D01*
X345151Y81038D01*
X345151D01*
Y107454D01*
X307051D01*
Y107454D01*
D02*
G37*
G36*
X165100Y43101D02*
Y26670D01*
X174078D01*
Y33020D01*
X173729Y35672D01*
X172705Y38144D01*
X171076Y40266D01*
X168954Y41895D01*
X166482Y42919D01*
X165100Y43101D01*
D02*
G37*
G36*
X162560D02*
X161178Y42919D01*
X158706Y41895D01*
X156584Y40266D01*
X154955Y38144D01*
X153932Y35672D01*
X153582Y33020D01*
Y26670D01*
X162560D01*
Y43101D01*
D02*
G37*
G36*
X45720Y196180D02*
X30480D01*
X27695Y195813D01*
X25100Y194739D01*
X22871Y193029D01*
X21161Y190800D01*
X20087Y188205D01*
X19720Y185420D01*
X20087Y182635D01*
X21161Y180040D01*
X22871Y177812D01*
X25100Y176101D01*
X27695Y175027D01*
X30480Y174660D01*
X30927D01*
Y160020D01*
X31171Y158163D01*
X31381Y157657D01*
X31888Y156433D01*
X33028Y154948D01*
X72898Y115077D01*
Y93599D01*
X114046D01*
Y102047D01*
X120219D01*
X146562Y75704D01*
X145817Y73905D01*
X145450Y71120D01*
Y55880D01*
X145817Y53095D01*
X146891Y50500D01*
X148602Y48271D01*
X150830Y46561D01*
X153425Y45487D01*
X156210Y45120D01*
X158995Y45487D01*
X161590Y46561D01*
X163818Y48271D01*
X165529Y50500D01*
X166603Y53095D01*
X166970Y55880D01*
Y71120D01*
X166603Y73905D01*
X165529Y76500D01*
X163818Y78728D01*
X162398Y79819D01*
X161282Y81272D01*
X128262Y114292D01*
X126777Y115432D01*
X125553Y115939D01*
X125047Y116149D01*
X123190Y116393D01*
X114046D01*
Y124841D01*
X83424D01*
X45273Y162991D01*
Y174660D01*
X45720D01*
X48505Y175027D01*
X51100Y176101D01*
X53328Y177812D01*
X55038Y180040D01*
X56113Y182635D01*
X56480Y185420D01*
X56113Y188205D01*
X55038Y190800D01*
X53328Y193029D01*
X51100Y194739D01*
X48505Y195813D01*
X45720Y196180D01*
D02*
G37*
G36*
X130810Y81880D02*
X128025Y81513D01*
X125430Y80438D01*
X123202Y78728D01*
X121491Y76500D01*
X120417Y73905D01*
X120050Y71120D01*
Y55880D01*
X120417Y53095D01*
X121491Y50500D01*
X123202Y48271D01*
X125430Y46561D01*
X128025Y45487D01*
X130810Y45120D01*
X133595Y45487D01*
X136190Y46561D01*
X138419Y48271D01*
X140128Y50500D01*
X141203Y53095D01*
X141570Y55880D01*
Y71120D01*
X141203Y73905D01*
X140128Y76500D01*
X138419Y78728D01*
X136190Y80438D01*
X133595Y81513D01*
X130810Y81880D01*
D02*
G37*
G36*
X156210Y428740D02*
X142367D01*
Y409944D01*
X156210D01*
Y428740D01*
D02*
G37*
G36*
X337820Y415290D02*
X334010D01*
Y406400D01*
X342900D01*
Y410210D01*
X337820Y415290D01*
D02*
G37*
G36*
X331470D02*
X327660D01*
X322580Y410210D01*
Y406400D01*
X331470D01*
Y415290D01*
D02*
G37*
G36*
X349250Y312420D02*
X345440D01*
Y303530D01*
X354330D01*
Y307340D01*
X349250Y312420D01*
D02*
G37*
G36*
X69850Y442783D02*
X26670D01*
X24813Y442539D01*
X24307Y442329D01*
X23083Y441822D01*
X21598Y440682D01*
X10168Y429252D01*
X9028Y427767D01*
X8521Y426543D01*
X8311Y426037D01*
X8067Y424180D01*
Y326771D01*
X7874D01*
Y295529D01*
X8067D01*
Y250190D01*
X8311Y248333D01*
X8521Y247827D01*
X9028Y246603D01*
X10168Y245118D01*
X19819Y235466D01*
X20087Y233435D01*
X21161Y230840D01*
X22871Y228612D01*
X25100Y226901D01*
X27695Y225827D01*
X30480Y225460D01*
X45720D01*
X48505Y225827D01*
X51100Y226901D01*
X53328Y228612D01*
X53662Y229047D01*
X60858D01*
Y221361D01*
X84578D01*
Y212344D01*
X80096D01*
Y194056D01*
X94934D01*
X95420Y192883D01*
X91954Y189416D01*
X90943Y187904D01*
X90884Y187608D01*
X90588Y186120D01*
Y184771D01*
X90511Y184739D01*
X88547Y183233D01*
X87041Y181269D01*
X86094Y178983D01*
X85771Y176530D01*
X86094Y174077D01*
X87041Y171791D01*
X88547Y169827D01*
X90511Y168321D01*
X92797Y167374D01*
X95250Y167051D01*
X97703Y167374D01*
X99990Y168321D01*
X101953Y169827D01*
X103459Y171791D01*
X104406Y174077D01*
X104729Y176530D01*
X104406Y178983D01*
X103459Y181269D01*
X101953Y183233D01*
X101021Y183948D01*
X100938Y185215D01*
X110908Y195186D01*
X112178Y194660D01*
Y184771D01*
X112100Y184739D01*
X110137Y183233D01*
X108631Y181269D01*
X107684Y178983D01*
X107361Y176530D01*
X107684Y174077D01*
X108631Y171791D01*
X110137Y169827D01*
X112100Y168321D01*
X114387Y167374D01*
X116840Y167051D01*
X119293Y167374D01*
X121580Y168321D01*
X123543Y169827D01*
X125049Y171791D01*
X125996Y174077D01*
X126319Y176530D01*
X125996Y178983D01*
X125049Y181269D01*
X123543Y183233D01*
X121580Y184739D01*
X121502Y184771D01*
Y193649D01*
X125573Y197720D01*
X126746Y197234D01*
Y190948D01*
X131422D01*
Y173575D01*
X117449Y159602D01*
X76861D01*
X72734Y163729D01*
Y194056D01*
X77216D01*
Y212344D01*
X58928D01*
Y194056D01*
X63410D01*
Y161798D01*
X63706Y160310D01*
X63765Y160014D01*
X64776Y158502D01*
X71634Y151644D01*
X73146Y150633D01*
X74930Y150278D01*
X119380D01*
X120868Y150574D01*
X121164Y150633D01*
X122676Y151644D01*
X139380Y168348D01*
X140391Y169860D01*
X140746Y171644D01*
Y190948D01*
X145034D01*
Y172466D01*
X146214D01*
Y164237D01*
X139691Y157714D01*
X139613Y157746D01*
X137160Y158069D01*
X134707Y157746D01*
X132421Y156799D01*
X130457Y155293D01*
X128951Y153329D01*
X128004Y151043D01*
X127681Y148590D01*
X128004Y146137D01*
X128951Y143850D01*
X130457Y141887D01*
X132421Y140381D01*
X134707Y139434D01*
X137160Y139111D01*
X139613Y139434D01*
X141899Y140381D01*
X143863Y141887D01*
X145369Y143850D01*
X146316Y146137D01*
X146639Y148590D01*
X146316Y151043D01*
X146284Y151121D01*
X153072Y157910D01*
X154342Y157384D01*
Y145507D01*
X154010Y145369D01*
X152047Y143863D01*
X150541Y141899D01*
X149594Y139613D01*
X149271Y137160D01*
X149594Y134707D01*
X150541Y132421D01*
X152047Y130457D01*
X154010Y128951D01*
X156297Y128004D01*
X158750Y127681D01*
X161203Y128004D01*
X163489Y128951D01*
X165453Y130457D01*
X166959Y132421D01*
X167906Y134707D01*
X168229Y137160D01*
X167906Y139613D01*
X166959Y141899D01*
X165453Y143863D01*
X163666Y145234D01*
Y172466D01*
X164846D01*
Y172974D01*
X165608D01*
Y181864D01*
X168148D01*
Y172974D01*
X169164D01*
Y172466D01*
X169827D01*
Y156464D01*
X170221Y154482D01*
X171343Y152802D01*
X201831Y122315D01*
Y120752D01*
X195961D01*
Y101448D01*
Y82296D01*
X201831D01*
Y80521D01*
X201630Y80438D01*
X199401Y78728D01*
X197691Y76500D01*
X196617Y73905D01*
X196250Y71120D01*
Y55880D01*
X196617Y53095D01*
X197691Y50500D01*
X199401Y48271D01*
X201630Y46561D01*
X204225Y45487D01*
X207010Y45120D01*
X209795Y45487D01*
X212390Y46561D01*
X213724Y47586D01*
X214564Y46629D01*
X210893Y42958D01*
X209795Y43413D01*
X207010Y43780D01*
X204225Y43413D01*
X201630Y42339D01*
X199401Y40628D01*
X197691Y38400D01*
X196617Y35805D01*
X196250Y33020D01*
Y17780D01*
X196617Y14995D01*
X197691Y12400D01*
X199401Y10172D01*
X201630Y8461D01*
X204225Y7387D01*
X207010Y7020D01*
X209795Y7387D01*
X212390Y8461D01*
X214618Y10172D01*
X216329Y12400D01*
X217403Y14995D01*
X217770Y17780D01*
Y33020D01*
X217518Y34933D01*
X223159Y40574D01*
X224116Y39734D01*
X223092Y38400D01*
X222017Y35805D01*
X221650Y33020D01*
Y17780D01*
X222017Y14995D01*
X223092Y12400D01*
X224802Y10172D01*
X227030Y8461D01*
X229625Y7387D01*
X232410Y7020D01*
X235195Y7387D01*
X237790Y8461D01*
X240019Y10172D01*
X241728Y12400D01*
X242803Y14995D01*
X243170Y17780D01*
Y33020D01*
X242803Y35805D01*
X241728Y38400D01*
X240019Y40628D01*
X239178Y41273D01*
X239095Y42540D01*
X270056Y73501D01*
X271259Y72908D01*
X271191Y72390D01*
X271514Y69937D01*
X272461Y67650D01*
X273967Y65687D01*
X275931Y64181D01*
X278217Y63234D01*
X280670Y62911D01*
X283123Y63234D01*
X285410Y64181D01*
X287373Y65687D01*
X288879Y67650D01*
X289826Y69937D01*
X290149Y72390D01*
X289826Y74843D01*
X288879Y77130D01*
X287373Y79093D01*
X286492Y79768D01*
X286731Y81038D01*
X286731D01*
Y107454D01*
X249183D01*
X248764Y107454D01*
X248631D01*
X247571Y106946D01*
X247361Y106946D01*
X243551D01*
Y94246D01*
Y81546D01*
X247361D01*
X247571Y81546D01*
X247720Y81475D01*
X248274Y80339D01*
X216261Y48326D01*
X215305Y49166D01*
X216329Y50500D01*
X217403Y53095D01*
X217770Y55880D01*
Y71120D01*
X217403Y73905D01*
X216329Y76500D01*
X214618Y78728D01*
X212390Y80438D01*
X212190Y80521D01*
Y82296D01*
X218059D01*
Y101448D01*
Y120752D01*
X212190D01*
Y124460D01*
X211795Y126442D01*
X210672Y128123D01*
X180186Y158609D01*
Y172466D01*
X180848D01*
Y172974D01*
X181800D01*
Y181864D01*
X184340D01*
Y172974D01*
X185228D01*
Y172466D01*
X194408D01*
Y150180D01*
X194704Y148692D01*
X194763Y148396D01*
X195774Y146884D01*
X227844Y114814D01*
X229356Y113803D01*
X229652Y113744D01*
X230463Y113583D01*
X230551Y113371D01*
X232057Y111407D01*
X234021Y109901D01*
X236307Y108954D01*
X238760Y108631D01*
X241213Y108954D01*
X243500Y109901D01*
X245463Y111407D01*
X246969Y113371D01*
X247916Y115657D01*
X248239Y118110D01*
X247916Y120563D01*
X246969Y122850D01*
X245463Y124813D01*
X243500Y126319D01*
X241213Y127266D01*
X238760Y127589D01*
X236307Y127266D01*
X234021Y126319D01*
X232057Y124813D01*
X231093Y124749D01*
X203732Y152111D01*
Y172466D01*
X209060D01*
X210832Y170694D01*
X211842Y170019D01*
X212344Y169683D01*
X214128Y169328D01*
X234829D01*
X235931Y168922D01*
X235931Y168058D01*
Y155176D01*
X234661Y154924D01*
X234269Y155870D01*
X232763Y157833D01*
X230800Y159339D01*
X228513Y160286D01*
X226060Y160609D01*
X223607Y160286D01*
X221320Y159339D01*
X219357Y157833D01*
X217851Y155870D01*
X216904Y153583D01*
X216581Y151130D01*
X216904Y148677D01*
X217851Y146390D01*
X219357Y144427D01*
X221320Y142921D01*
X223607Y141974D01*
X224997Y141791D01*
X231654Y135134D01*
X233166Y134123D01*
X234950Y133768D01*
X250190D01*
X251678Y134064D01*
X251974Y134123D01*
X253486Y135134D01*
X258277Y139925D01*
X259288Y141437D01*
X259347Y141733D01*
X259500Y142506D01*
X263308D01*
Y140322D01*
X263230Y140289D01*
X261267Y138783D01*
X259761Y136819D01*
X258814Y134533D01*
X258491Y132080D01*
X258814Y129627D01*
X259761Y127340D01*
X261267Y125377D01*
X263230Y123871D01*
X265517Y122924D01*
X267970Y122601D01*
X270423Y122924D01*
X272710Y123871D01*
X274673Y125377D01*
X276179Y127340D01*
X277126Y129627D01*
X277449Y132080D01*
X277126Y134533D01*
X276898Y135083D01*
X277975Y135802D01*
X284898Y128879D01*
Y126351D01*
X284820Y126319D01*
X282857Y124813D01*
X281351Y122850D01*
X280404Y120563D01*
X280081Y118110D01*
X280404Y115657D01*
X281351Y113371D01*
X282857Y111407D01*
X284820Y109901D01*
X287107Y108954D01*
X289560Y108631D01*
X292013Y108954D01*
X294300Y109901D01*
X296263Y111407D01*
X297769Y113371D01*
X298716Y115657D01*
X299039Y118110D01*
X298716Y120563D01*
X297769Y122850D01*
X296263Y124813D01*
X294300Y126319D01*
X294222Y126351D01*
Y130810D01*
X293867Y132594D01*
X292856Y134106D01*
X285726Y141236D01*
X286252Y142506D01*
X286731D01*
Y168058D01*
X286731Y168922D01*
X287833Y169328D01*
X287833D01*
X293249D01*
X294351Y168922D01*
Y142506D01*
X345151D01*
Y168922D01*
X343462D01*
Y169199D01*
X343108Y170983D01*
X342097Y172495D01*
X325250Y189342D01*
X325145Y191033D01*
X329438Y195326D01*
Y205734D01*
X330520Y206447D01*
X333502Y203466D01*
Y195326D01*
X338836Y189992D01*
X349504D01*
X354838Y195326D01*
Y205994D01*
X349504Y211328D01*
X338836D01*
X338830Y211322D01*
X333496Y216656D01*
X331984Y217667D01*
X331688Y217726D01*
X330200Y218022D01*
X328393D01*
X327907Y219195D01*
X329438Y220726D01*
Y231394D01*
X328013Y232819D01*
X328468Y233963D01*
X329566Y234071D01*
X333502Y230136D01*
Y220726D01*
X338836Y215392D01*
X349504D01*
X354838Y220726D01*
Y231394D01*
X349504Y236728D01*
X340094D01*
X334766Y242056D01*
X333254Y243067D01*
X332958Y243126D01*
X331470Y243422D01*
X328393D01*
X327907Y244595D01*
X329438Y246126D01*
Y256794D01*
X324104Y262128D01*
X313436D01*
X308102Y256794D01*
Y246126D01*
X309633Y244595D01*
X309147Y243422D01*
X306070D01*
X304582Y243126D01*
X304286Y243067D01*
X302774Y242056D01*
X302361Y241644D01*
X285455D01*
X284969Y242817D01*
X303016Y260864D01*
X304027Y262376D01*
X304086Y262672D01*
X304382Y264160D01*
Y307949D01*
X352546Y356114D01*
X353221Y357124D01*
X353557Y357626D01*
X353912Y359410D01*
Y388620D01*
X353616Y390108D01*
X353557Y390404D01*
X352546Y391916D01*
X348736Y395726D01*
X347224Y396737D01*
X346928Y396796D01*
X345440Y397092D01*
X341601D01*
X341115Y398265D01*
X342900Y400050D01*
Y403860D01*
X322580D01*
Y400050D01*
X324365Y398265D01*
X323879Y397092D01*
X316201D01*
X315715Y398265D01*
X317500Y400050D01*
Y403860D01*
X297180D01*
Y400050D01*
X298965Y398265D01*
X298479Y397092D01*
X290801D01*
X290315Y398265D01*
X292100Y400050D01*
Y403860D01*
X271780D01*
Y400050D01*
X273565Y398265D01*
X273079Y397092D01*
X265401D01*
X264915Y398265D01*
X266700Y400050D01*
Y403860D01*
X246380D01*
Y400050D01*
X248165Y398265D01*
X247679Y397092D01*
X243840D01*
X242352Y396796D01*
X242056Y396737D01*
X240544Y395726D01*
X235216Y390398D01*
X225806D01*
X220472Y385064D01*
Y374396D01*
X225806Y369062D01*
X236474D01*
X241808Y374396D01*
Y383806D01*
X245744Y387741D01*
X246842Y387633D01*
X247297Y386489D01*
X245872Y385064D01*
Y374396D01*
X251206Y369062D01*
X261874D01*
X267208Y374396D01*
Y385064D01*
X265677Y386595D01*
X266163Y387768D01*
X272317D01*
X272803Y386595D01*
X271272Y385064D01*
Y374396D01*
X276606Y369062D01*
X287274D01*
X292608Y374396D01*
Y385064D01*
X291077Y386595D01*
X291563Y387768D01*
X297717D01*
X298203Y386595D01*
X296672Y385064D01*
Y374396D01*
X302006Y369062D01*
X302678D01*
Y337211D01*
X283724Y318256D01*
X282713Y316744D01*
X282654Y316448D01*
X282358Y314960D01*
Y282601D01*
X272135Y272378D01*
X212912D01*
Y277114D01*
X207358D01*
X206872Y278287D01*
X209155Y280571D01*
X213109D01*
X214277Y279047D01*
X216241Y277541D01*
X218527Y276594D01*
X220980Y276271D01*
X223433Y276594D01*
X225720Y277541D01*
X227683Y279047D01*
X229189Y281010D01*
X230136Y283297D01*
X230459Y285750D01*
X230136Y288203D01*
X229189Y290490D01*
X227683Y292453D01*
X225720Y293959D01*
X223433Y294906D01*
X220980Y295229D01*
X218527Y294906D01*
X216241Y293959D01*
X214277Y292453D01*
X213109Y290930D01*
X209011D01*
X208525Y292103D01*
X214021Y297598D01*
X229249D01*
X229281Y297521D01*
X230787Y295557D01*
X232750Y294051D01*
X235037Y293104D01*
X237490Y292781D01*
X239943Y293104D01*
X242229Y294051D01*
X244193Y295557D01*
X245699Y297521D01*
X246646Y299807D01*
X246969Y302260D01*
X246646Y304713D01*
X245699Y306999D01*
X244193Y308963D01*
X242229Y310469D01*
X239943Y311416D01*
X237490Y311739D01*
X235037Y311416D01*
X232750Y310469D01*
X230787Y308963D01*
X229281Y306999D01*
X229249Y306922D01*
X212090D01*
X210602Y306626D01*
X210306Y306567D01*
X208794Y305556D01*
X189423Y286185D01*
X188249Y286671D01*
Y291947D01*
X189204Y292784D01*
X189230Y292781D01*
X191683Y293104D01*
X193969Y294051D01*
X195933Y295557D01*
X197439Y297521D01*
X198386Y299807D01*
X198709Y302260D01*
X198386Y304713D01*
X197439Y306999D01*
X195933Y308963D01*
X193969Y310469D01*
X191683Y311416D01*
X189230Y311739D01*
X186777Y311416D01*
X184491Y310469D01*
X182527Y308963D01*
X181021Y306999D01*
X180620Y306032D01*
X179350Y306285D01*
Y322618D01*
X196241Y339508D01*
X244449D01*
X249338Y334619D01*
Y298450D01*
X249634Y296962D01*
X249693Y296666D01*
X250704Y295154D01*
X257576Y288281D01*
X257544Y288203D01*
X257221Y285750D01*
X257544Y283297D01*
X258491Y281010D01*
X259997Y279047D01*
X261961Y277541D01*
X264247Y276594D01*
X266700Y276271D01*
X269153Y276594D01*
X271439Y277541D01*
X273403Y279047D01*
X274909Y281010D01*
X275856Y283297D01*
X276179Y285750D01*
X275856Y288203D01*
X274909Y290490D01*
X273403Y292453D01*
X271439Y293959D01*
X269153Y294906D01*
X266700Y295229D01*
X264247Y294906D01*
X264169Y294874D01*
X260035Y299008D01*
X260874Y299965D01*
X261961Y299131D01*
X264247Y298184D01*
X266700Y297861D01*
X269153Y298184D01*
X271439Y299131D01*
X273403Y300637D01*
X274909Y302600D01*
X275856Y304887D01*
X276179Y307340D01*
X275856Y309793D01*
X274909Y312080D01*
X273403Y314043D01*
X271439Y315549D01*
X271362Y315581D01*
Y345440D01*
X271007Y347224D01*
X270671Y347726D01*
X269996Y348736D01*
X263646Y355086D01*
X262134Y356097D01*
X261838Y356156D01*
X260350Y356452D01*
X191770D01*
X189986Y356097D01*
X188474Y355086D01*
X164852Y331464D01*
X163841Y329952D01*
X163782Y329656D01*
X163486Y328168D01*
Y308509D01*
X159208Y304231D01*
X158251Y305070D01*
X159085Y306157D01*
X160032Y308443D01*
X160355Y310896D01*
X160032Y313349D01*
X159085Y315636D01*
X157579Y317599D01*
X155616Y319105D01*
X153329Y320052D01*
X150876Y320375D01*
X148423Y320052D01*
X146137Y319105D01*
X144173Y317599D01*
X142667Y315636D01*
X141720Y313349D01*
X141397Y310896D01*
X141720Y308443D01*
X142667Y306157D01*
X144173Y304193D01*
X146137Y302687D01*
X146214Y302654D01*
Y288934D01*
X144944Y288503D01*
X143863Y289913D01*
X141899Y291419D01*
X139613Y292366D01*
X137927Y292588D01*
X134173Y296341D01*
Y352629D01*
X138861Y357317D01*
X141859D01*
Y344424D01*
X173101D01*
Y385572D01*
X164653D01*
Y388881D01*
X165689Y390230D01*
X166636Y392517D01*
X166959Y394970D01*
X166636Y397423D01*
X165689Y399710D01*
X164183Y401673D01*
X162220Y403179D01*
X159933Y404126D01*
X157480Y404449D01*
X155027Y404126D01*
X152740Y403179D01*
X150777Y401673D01*
X149271Y399710D01*
X148324Y397423D01*
X148001Y394970D01*
X148324Y392517D01*
X149271Y390230D01*
X150307Y388881D01*
Y385572D01*
X141859D01*
Y371663D01*
X137591D01*
X134173Y375081D01*
Y387350D01*
X133929Y389207D01*
X133212Y390937D01*
X132072Y392422D01*
X121912Y402582D01*
X120427Y403722D01*
X119203Y404229D01*
X118697Y404439D01*
X116840Y404683D01*
X111891D01*
Y408178D01*
X85729D01*
Y404683D01*
X48641D01*
Y419608D01*
X22479D01*
X22413Y420851D01*
Y421209D01*
X29641Y428437D01*
X66879D01*
X79764Y415552D01*
X81249Y414412D01*
X82473Y413905D01*
X82979Y413695D01*
X84836Y413451D01*
X85729D01*
Y409956D01*
X111891D01*
Y415191D01*
X117858D01*
X119027Y413667D01*
X120990Y412161D01*
X123277Y411214D01*
X125730Y410891D01*
X128183Y411214D01*
X130470Y412161D01*
X132433Y413667D01*
X133939Y415630D01*
X134886Y417917D01*
X135209Y420370D01*
X134886Y422823D01*
X133939Y425109D01*
X132433Y427073D01*
X130470Y428579D01*
X128183Y429526D01*
X125730Y429849D01*
X123277Y429526D01*
X120990Y428579D01*
X119027Y427073D01*
X117858Y425550D01*
X111891D01*
Y431292D01*
X85729D01*
X85729Y431292D01*
Y431292D01*
X84589Y431016D01*
X74922Y440682D01*
X73437Y441822D01*
X72213Y442329D01*
X71707Y442539D01*
X69850Y442783D01*
D02*
G37*
G36*
X172593Y428740D02*
X158750D01*
Y409944D01*
X172593D01*
Y428740D01*
D02*
G37*
G36*
X342900Y312420D02*
X339090D01*
X334010Y307340D01*
Y303530D01*
X342900D01*
Y312420D01*
D02*
G37*
G36*
X236474Y415798D02*
X225806D01*
X220472Y410464D01*
Y399796D01*
X225806Y394462D01*
X236474D01*
X241808Y399796D01*
Y410464D01*
X236474Y415798D01*
D02*
G37*
G36*
X255270Y415290D02*
X251460D01*
X246380Y410210D01*
Y406400D01*
X255270D01*
Y415290D01*
D02*
G37*
G36*
X261620D02*
X257810D01*
Y406400D01*
X266700D01*
Y410210D01*
X261620Y415290D01*
D02*
G37*
G36*
X280670D02*
X276860D01*
X271780Y410210D01*
Y406400D01*
X280670D01*
Y415290D01*
D02*
G37*
G36*
X312420D02*
X308610D01*
Y406400D01*
X317500D01*
Y410210D01*
X312420Y415290D01*
D02*
G37*
G36*
X306070D02*
X302260D01*
X297180Y410210D01*
Y406400D01*
X306070D01*
Y415290D01*
D02*
G37*
G36*
X287020D02*
X283210D01*
Y406400D01*
X292100D01*
Y410210D01*
X287020Y415290D01*
D02*
G37*
G36*
X324104Y287528D02*
X313436D01*
X308102Y282194D01*
Y271526D01*
X313436Y266192D01*
X324104D01*
X329438Y271526D01*
Y282194D01*
X324104Y287528D01*
D02*
G37*
G36*
X349504D02*
X338836D01*
X333502Y282194D01*
Y271526D01*
X338836Y266192D01*
X349504D01*
X354838Y271526D01*
Y282194D01*
X349504Y287528D01*
D02*
G37*
G36*
Y262128D02*
X338836D01*
X333502Y256794D01*
Y246126D01*
X338836Y240792D01*
X349504D01*
X354838Y246126D01*
Y256794D01*
X349504Y262128D01*
D02*
G37*
G36*
X172593Y450076D02*
X158750D01*
Y431280D01*
X172593D01*
Y450076D01*
D02*
G37*
G36*
X156210D02*
X142367D01*
Y431280D01*
X156210D01*
Y450076D01*
D02*
G37*
G36*
X324104Y312928D02*
X313436D01*
X308102Y307594D01*
Y296926D01*
X313436Y291592D01*
X324104D01*
X329438Y296926D01*
Y307594D01*
X324104Y312928D01*
D02*
G37*
G36*
X342900Y300990D02*
X334010D01*
Y297180D01*
X339090Y292100D01*
X342900D01*
Y300990D01*
D02*
G37*
G36*
X354330D02*
X345440D01*
Y292100D01*
X349250D01*
X354330Y297180D01*
Y300990D01*
D02*
G37*
%LPD*%
G36*
X176276Y258826D02*
X177228D01*
Y258318D01*
X212598D01*
Y247142D01*
Y239014D01*
Y231140D01*
Y223012D01*
Y214948D01*
Y206948D01*
Y198948D01*
Y191262D01*
X196250D01*
Y196150D01*
X195951Y197649D01*
X200434Y202132D01*
X201590Y202611D01*
X203553Y204117D01*
X205059Y206080D01*
X206006Y208367D01*
X206329Y210820D01*
X206006Y213273D01*
X205059Y215560D01*
X203553Y217523D01*
X201590Y219029D01*
X199303Y219976D01*
X196850Y220299D01*
X194397Y219976D01*
X192111Y219029D01*
X190147Y217523D01*
X188641Y215560D01*
X187694Y213273D01*
X187371Y210820D01*
X187694Y208367D01*
X188641Y206080D01*
X189117Y205459D01*
X186957Y203300D01*
X181677D01*
X181050Y204569D01*
X181817Y205568D01*
X182866Y208101D01*
X182956Y208788D01*
X162484D01*
X162574Y208101D01*
X162682Y207841D01*
X162093Y206960D01*
X161698Y204978D01*
Y191262D01*
X145542D01*
Y198948D01*
Y206948D01*
Y214948D01*
Y223012D01*
Y231140D01*
Y239014D01*
Y247142D01*
Y258318D01*
X172720D01*
Y258826D01*
X173736D01*
Y267716D01*
X176276D01*
Y258826D01*
D02*
G37*
G36*
X119827Y384379D02*
Y372110D01*
X120071Y370253D01*
X120281Y369747D01*
X120788Y368523D01*
X121928Y367038D01*
X125110Y363855D01*
X121928Y360672D01*
X120788Y359187D01*
X120281Y357963D01*
X120071Y357457D01*
X119827Y355600D01*
Y293370D01*
X120071Y291513D01*
X120281Y291007D01*
X120788Y289783D01*
X121928Y288298D01*
X127782Y282444D01*
X128004Y280757D01*
X128951Y278470D01*
X130457Y276507D01*
X132421Y275001D01*
X134707Y274054D01*
X137160Y273731D01*
X139613Y274054D01*
X141899Y275001D01*
X143764Y276432D01*
X144192Y276350D01*
X145034Y275947D01*
Y258826D01*
X126746D01*
Y247142D01*
Y239014D01*
Y233516D01*
X123089D01*
X120904Y235700D01*
Y247396D01*
X102616D01*
Y229108D01*
X114312D01*
X116697Y226723D01*
X116171Y225453D01*
X111570D01*
X109786Y225098D01*
X109498Y224905D01*
X109133Y225056D01*
X106680Y225379D01*
X104227Y225056D01*
X101940Y224109D01*
X100584Y223068D01*
X99314Y223695D01*
Y243459D01*
X75690D01*
Y246761D01*
X99314D01*
Y252631D01*
X102616D01*
Y250276D01*
X120904D01*
Y268564D01*
X102616D01*
Y262990D01*
X99314D01*
Y268859D01*
X60858D01*
Y246761D01*
X65331D01*
Y243459D01*
X60858D01*
Y243393D01*
X53662D01*
X53328Y243829D01*
X51100Y245539D01*
X48505Y246613D01*
X45720Y246980D01*
X30480D01*
X28814Y246761D01*
X22413Y253161D01*
Y295529D01*
X49022D01*
Y326771D01*
X22413D01*
Y374169D01*
X22479Y375412D01*
X48641D01*
Y390337D01*
X85729D01*
Y386842D01*
X111891D01*
Y390337D01*
X113869D01*
X119827Y384379D01*
D02*
G37*
G36*
X308102Y220726D02*
X309633Y219195D01*
X309147Y218022D01*
X249581D01*
X244680Y222922D01*
X245206Y224192D01*
X308102D01*
Y220726D01*
D02*
G37*
G36*
Y195326D02*
X310903Y192525D01*
X310417Y191352D01*
X250851D01*
X247442Y194761D01*
X247503Y195122D01*
X248000Y195998D01*
X308102D01*
Y195326D01*
D02*
G37*
G36*
X288708Y274107D02*
Y271171D01*
X275183Y257646D01*
X231394D01*
Y258826D01*
X212912D01*
Y263054D01*
X274066D01*
X275554Y263350D01*
X275850Y263409D01*
X277362Y264420D01*
X287535Y274593D01*
X288708Y274107D01*
D02*
G37*
G36*
X309633Y207525D02*
X308102Y205994D01*
Y205322D01*
X249581D01*
X247442Y207461D01*
X247503Y207822D01*
X248000Y208698D01*
X309147D01*
X309633Y207525D01*
D02*
G37*
G36*
X323603Y386595D02*
X322072Y385064D01*
Y374396D01*
X327406Y369062D01*
X328078D01*
Y353721D01*
X313175Y338817D01*
X312002Y339303D01*
Y369062D01*
X312674D01*
X318008Y374396D01*
Y385064D01*
X316477Y386595D01*
X316963Y387768D01*
X323117D01*
X323603Y386595D01*
D02*
G37*
G36*
X235223Y179825D02*
X234737Y178652D01*
X216059D01*
X212912Y181799D01*
Y190948D01*
X224100D01*
X235223Y179825D01*
D02*
G37*
%LPC*%
G36*
X113526Y309880D02*
X94730D01*
Y296037D01*
X113526D01*
Y309880D01*
D02*
G37*
G36*
X92190Y326263D02*
X73394D01*
Y312420D01*
X92190D01*
Y326263D01*
D02*
G37*
G36*
Y309880D02*
X73394D01*
Y296037D01*
X92190D01*
Y309880D01*
D02*
G37*
G36*
X174752Y221056D02*
Y212852D01*
X182956D01*
X182866Y213539D01*
X181817Y216072D01*
X180147Y218247D01*
X177972Y219917D01*
X175439Y220966D01*
X174752Y221056D01*
D02*
G37*
G36*
X170688D02*
X170001Y220966D01*
X167468Y219917D01*
X165293Y218247D01*
X163623Y216072D01*
X162574Y213539D01*
X162484Y212852D01*
X170688D01*
Y221056D01*
D02*
G37*
G36*
X113526Y326263D02*
X94730D01*
Y312420D01*
X113526D01*
Y326263D01*
D02*
G37*
G36*
X61468Y346786D02*
X60781Y346696D01*
X58248Y345647D01*
X56073Y343977D01*
X54403Y341802D01*
X53354Y339269D01*
X53264Y338582D01*
X61468D01*
Y346786D01*
D02*
G37*
G36*
X65532D02*
Y338582D01*
X73736D01*
X73646Y339269D01*
X72597Y341802D01*
X70927Y343977D01*
X68752Y345647D01*
X66219Y346696D01*
X65532Y346786D01*
D02*
G37*
G36*
X111891Y385178D02*
X85729D01*
Y363842D01*
X93631D01*
Y354832D01*
X92107Y353663D01*
X90601Y351700D01*
X89654Y349413D01*
X89331Y346960D01*
X89654Y344507D01*
X90601Y342220D01*
X92107Y340257D01*
X94070Y338751D01*
X96357Y337804D01*
X98810Y337481D01*
X101263Y337804D01*
X103550Y338751D01*
X105513Y340257D01*
X107019Y342220D01*
X107966Y344507D01*
X108289Y346960D01*
X107966Y349413D01*
X107019Y351700D01*
X105513Y353663D01*
X103989Y354832D01*
Y363842D01*
X111891D01*
Y385178D01*
D02*
G37*
G36*
X61468Y334518D02*
X53264D01*
X53354Y333831D01*
X54403Y331298D01*
X56073Y329123D01*
X58248Y327453D01*
X60781Y326404D01*
X61468Y326314D01*
Y334518D01*
D02*
G37*
G36*
X73736D02*
X65532D01*
Y326314D01*
X66219Y326404D01*
X68752Y327453D01*
X70927Y329123D01*
X72597Y331298D01*
X73646Y333831D01*
X73736Y334518D01*
D02*
G37*
%LPD*%
D10*
X207010Y91948D02*
D03*
Y111100D02*
D03*
D11*
X35560Y397510D02*
D03*
D12*
X98810Y420624D02*
D03*
Y397510D02*
D03*
Y374510D02*
D03*
D13*
X111760Y259420D02*
D03*
Y238252D02*
D03*
D14*
X338801Y155714D02*
D03*
Y94246D02*
D03*
X326101Y155714D02*
D03*
X313401D02*
D03*
X326101Y94246D02*
D03*
X313401D02*
D03*
X300701Y155714D02*
D03*
Y94246D02*
D03*
X280381Y155714D02*
D03*
Y94246D02*
D03*
X267681Y155714D02*
D03*
X254981D02*
D03*
X267681Y94246D02*
D03*
X254981D02*
D03*
X242281Y155714D02*
D03*
Y94246D02*
D03*
D15*
X93472Y109220D02*
D03*
X28460D02*
D03*
X28448Y311150D02*
D03*
X93460D02*
D03*
D16*
X89240Y203200D02*
D03*
X68072D02*
D03*
D17*
X89662Y232410D02*
D03*
X70510D02*
D03*
X89662Y257810D02*
D03*
X70510D02*
D03*
D18*
X157480Y364998D02*
D03*
Y430010D02*
D03*
D19*
X136144Y196790D02*
D03*
Y204790D02*
D03*
Y212790D02*
D03*
Y220790D02*
D03*
Y228854D02*
D03*
Y236982D02*
D03*
Y244856D02*
D03*
Y252984D02*
D03*
X221996D02*
D03*
Y244856D02*
D03*
Y236982D02*
D03*
Y228854D02*
D03*
Y220790D02*
D03*
Y212790D02*
D03*
Y204790D02*
D03*
Y196790D02*
D03*
D20*
X150876Y267716D02*
D03*
X159004D02*
D03*
X166878D02*
D03*
X175006D02*
D03*
X183070D02*
D03*
X191070D02*
D03*
X199070D02*
D03*
X207070D02*
D03*
Y181864D02*
D03*
X199070D02*
D03*
X191070D02*
D03*
X183070D02*
D03*
X175006D02*
D03*
X166878D02*
D03*
X159004D02*
D03*
X150876D02*
D03*
D21*
X189100Y198120D02*
X196850Y205870D01*
Y210820D01*
D22*
X166878Y204978D02*
X172720Y210820D01*
X166878Y181864D02*
Y204978D01*
X189100Y198120D02*
X191070Y196150D01*
Y181864D02*
Y196150D01*
X175006Y195834D02*
X177292Y198120D01*
X175006Y181864D02*
Y195834D01*
X177292Y198120D02*
X189100D01*
X183070Y296100D02*
X189230Y302260D01*
X183070Y267716D02*
Y296100D01*
X199070Y277810D02*
X207010Y285750D01*
X199070Y267716D02*
Y277810D01*
X207010Y285750D02*
X220980D01*
X207010Y111100D02*
Y124460D01*
X175006Y156464D02*
X207010Y124460D01*
X175006Y156464D02*
Y181864D01*
X98810Y346960D02*
Y374510D01*
X339090Y72390D02*
Y93957D01*
X338801Y94246D02*
X339090Y93957D01*
X280670Y72390D02*
Y93957D01*
X280381Y94246D02*
X280670Y93957D01*
X89662Y257810D02*
X110150D01*
X70510Y232410D02*
Y257810D01*
X326101Y80530D02*
Y94246D01*
X254981Y79721D02*
Y94246D01*
X257810Y25400D02*
Y39370D01*
X283210Y37639D02*
X326101Y80530D01*
X207010Y25400D02*
Y31750D01*
X254981Y79721D01*
X283210Y25400D02*
Y37639D01*
X257810Y39370D02*
X273050Y54610D01*
X285750D01*
X313401Y82261D01*
Y94246D01*
X232410Y25400D02*
Y43180D01*
X267681Y78451D01*
Y94246D01*
X38100Y400050D02*
X40640Y397510D01*
X207010Y63500D02*
Y91948D01*
X183070Y178054D02*
Y181864D01*
X99064Y420370D02*
X125730D01*
D23*
X191070Y281240D02*
X212090Y302260D01*
X191070Y267716D02*
Y281240D01*
X212090Y302260D02*
X237490D01*
X254000Y298450D02*
Y336550D01*
X246380Y344170D02*
X254000Y336550D01*
X194310Y344170D02*
X246380D01*
X174688Y324548D02*
X194310Y344170D01*
X174688Y302959D02*
Y324548D01*
X166878Y295148D02*
X174688Y302959D01*
X166878Y267716D02*
Y295148D01*
X191770Y351790D02*
X260350D01*
X168148Y328168D02*
X191770Y351790D01*
X168148Y306578D02*
Y328168D01*
X266700Y307340D02*
Y345440D01*
X260350Y351790D02*
X266700Y345440D01*
X159004Y297434D02*
X168148Y306578D01*
X159004Y267716D02*
Y297434D01*
X254000Y298450D02*
X266700Y285750D01*
X89240Y203200D02*
Y231988D01*
X68072Y161798D02*
Y203200D01*
X121920Y212790D02*
X136144D01*
X95250Y186120D02*
X121920Y212790D01*
X95250Y176530D02*
Y186120D01*
X116840Y195580D02*
X126050Y204790D01*
X116840Y176530D02*
Y195580D01*
X74930Y154940D02*
X119380D01*
X68072Y161798D02*
X74930Y154940D01*
X119380D02*
X136084Y171644D01*
X137160Y148590D02*
X150876Y162306D01*
Y181864D01*
Y267716D02*
Y310896D01*
X287020Y314960D02*
X307340Y335280D01*
X287020Y280670D02*
Y314960D01*
X274066Y267716D02*
X287020Y280670D01*
X293370Y312420D02*
X332740Y351790D01*
X293370Y269240D02*
Y312420D01*
X277114Y252984D02*
X293370Y269240D01*
X207070Y267716D02*
X274066D01*
X307340Y335280D02*
Y379730D01*
X332740Y351790D02*
Y379730D01*
X299720Y309880D02*
X349250Y359410D01*
X299720Y264160D02*
Y309880D01*
X349250Y359410D02*
Y388620D01*
X221996Y252984D02*
X277114D01*
X280416Y244856D02*
X299720Y264160D01*
X221996Y244856D02*
X280416D01*
X199070Y150180D02*
Y181864D01*
Y150180D02*
X231140Y118110D01*
X289560D02*
Y130810D01*
X280670Y139700D02*
X289560Y130810D01*
X280670Y139700D02*
Y155425D01*
X231140Y118110D02*
X238760D01*
X214128Y173990D02*
X307340D01*
X207070Y181048D02*
X214128Y173990D01*
X207070Y181048D02*
Y181864D01*
X226060Y147320D02*
Y151130D01*
Y147320D02*
X234950Y138430D01*
X267970Y132080D02*
Y155425D01*
X126050Y204790D02*
X136144D01*
X136084Y171644D02*
Y196850D01*
X111760Y238252D02*
X121158Y228854D01*
X136144D01*
X250190Y138430D02*
X254981Y143221D01*
Y155714D01*
X267681D02*
X267970Y155425D01*
X234950Y138430D02*
X250190D01*
X313690Y156003D02*
Y167640D01*
X326101Y155714D02*
Y169199D01*
X338801Y155714D02*
Y169199D01*
X221996Y228854D02*
X315976D01*
X318770Y226060D01*
X221996Y204790D02*
X230820D01*
X221996Y212790D02*
X235520D01*
X247650Y200660D01*
X318770D01*
X342900D02*
X344170D01*
X330200Y213360D02*
X342900Y200660D01*
X221996Y220790D02*
X240220D01*
X247650Y213360D01*
X330200D01*
X331470Y238760D02*
X344170Y226060D01*
X221996Y236982D02*
X304292D01*
X306070Y238760D01*
X331470D01*
X221996Y196790D02*
X224850D01*
X230820Y204790D02*
X248920Y186690D01*
X321310D01*
X338801Y169199D01*
X224850Y196790D02*
X241300Y180340D01*
X314960D01*
X326101Y169199D01*
X307340Y173990D02*
X313690Y167640D01*
X345440Y392430D02*
X349250Y388620D01*
X243840Y392430D02*
X345440D01*
X231140Y379730D02*
X243840Y392430D01*
X159004Y137414D02*
Y181864D01*
D24*
X106680Y215900D02*
X111570Y220790D01*
X136144D01*
D25*
X127000Y293370D02*
X137160Y283210D01*
X127000Y293370D02*
Y355600D01*
X157480Y364998D02*
Y394970D01*
X15240Y424180D02*
X26670Y435610D01*
X69850D01*
X84836Y420624D01*
X98810D01*
X93472Y109220D02*
X123190D01*
X156210Y76200D01*
Y63500D02*
Y76200D01*
X15240Y250190D02*
X29210Y236220D01*
X38100D01*
X15240Y250190D02*
Y424180D01*
X40640Y397510D02*
X116840D01*
X127000Y387350D01*
Y372110D02*
Y387350D01*
Y372110D02*
X134620Y364490D01*
X156972D01*
X157480Y364998D01*
X38100Y160020D02*
Y185420D01*
Y160020D02*
X88900Y109220D01*
X93472D01*
X38100Y236220D02*
X66650D01*
X134620Y363220D02*
Y364490D01*
X127000Y355600D02*
X134620Y363220D01*
D26*
X-254000Y-254000D02*
Y546100D01*
D27*
X318770Y302260D02*
D03*
Y276860D02*
D03*
Y251460D02*
D03*
Y226060D02*
D03*
Y200660D02*
D03*
X344170Y302260D02*
D03*
Y276860D02*
D03*
Y251460D02*
D03*
Y226060D02*
D03*
Y200660D02*
D03*
D28*
X207010Y63500D02*
D03*
X181610D02*
D03*
X156210D02*
D03*
X130810D02*
D03*
X207010Y25400D02*
D03*
X232410D02*
D03*
X257810D02*
D03*
X283210D02*
D03*
X87630D02*
D03*
X113030D02*
D03*
X138430D02*
D03*
X163830D02*
D03*
D29*
X38100Y236220D02*
D03*
Y210820D02*
D03*
Y185420D02*
D03*
D30*
X332740Y405130D02*
D03*
Y379730D02*
D03*
X307340Y405130D02*
D03*
Y379730D02*
D03*
X281940Y405130D02*
D03*
Y379730D02*
D03*
X256540Y405130D02*
D03*
Y379730D02*
D03*
X231140Y405130D02*
D03*
Y379730D02*
D03*
D31*
X196850Y210820D02*
D03*
X172720D02*
D03*
X189230Y302260D02*
D03*
X220980Y285750D02*
D03*
X237490Y302260D02*
D03*
X266700Y285750D02*
D03*
Y307340D02*
D03*
X106680Y215900D02*
D03*
X116840Y176530D02*
D03*
X95250D02*
D03*
X158750Y137160D02*
D03*
X137160Y148590D02*
D03*
X150876Y310896D02*
D03*
X137160Y283210D02*
D03*
X157480Y394970D02*
D03*
X98810Y346960D02*
D03*
X289560Y118110D02*
D03*
X238760D02*
D03*
X226060Y151130D02*
D03*
X267970Y132080D02*
D03*
X321310Y121920D02*
D03*
X339090Y72390D02*
D03*
X280670D02*
D03*
X125730Y420370D02*
D03*
X63500Y336550D02*
D03*
M02*
