%FSLAX44Y44*%
%MOMM*%
G71*
G01*
G75*
G04 Layer_Color=2752767*
%ADD10R,0.5588X1.2700*%
%ADD11R,1.2700X0.5588*%
%ADD12R,2.5146X3.5052*%
%ADD13R,3.5052X2.5146*%
%ADD14R,1.3208X1.6002*%
%ADD15R,1.2192X1.2192*%
%ADD16R,0.6604X2.0320*%
%ADD17R,1.2192X1.2192*%
%ADD18R,2.0066X1.5240*%
%ADD19R,2.0066X3.8100*%
%ADD20R,1.6002X1.3208*%
%ADD21C,0.8128*%
%ADD22C,0.4064*%
%ADD23C,0.3048*%
%ADD24C,0.3050*%
%ADD25C,0.4060*%
%ADD26C,0.0000*%
G04:AMPARAMS|DCode=27|XSize=1.524mm|YSize=1.524mm|CornerRadius=0mm|HoleSize=0mm|Usage=FLASHONLY|Rotation=0.000|XOffset=0mm|YOffset=0mm|HoleType=Round|Shape=Octagon|*
%AMOCTAGOND27*
4,1,8,0.7620,-0.3810,0.7620,0.3810,0.3810,0.7620,-0.3810,0.7620,-0.7620,0.3810,-0.7620,-0.3810,-0.3810,-0.7620,0.3810,-0.7620,0.7620,-0.3810,0.0*
%
%ADD27OCTAGOND27*%

%ADD28O,3.0480X1.5240*%
%ADD29O,1.5240X3.0480*%
G04:AMPARAMS|DCode=30|XSize=1.524mm|YSize=1.524mm|CornerRadius=0mm|HoleSize=0mm|Usage=FLASHONLY|Rotation=270.000|XOffset=0mm|YOffset=0mm|HoleType=Round|Shape=Octagon|*
%AMOCTAGOND30*
4,1,8,-0.3810,-0.7620,0.3810,-0.7620,0.7620,-0.3810,0.7620,0.3810,0.3810,0.7620,-0.3810,0.7620,-0.7620,0.3810,-0.7620,-0.3810,-0.3810,-0.7620,0.0*
%
%ADD30OCTAGOND30*%

%ADD31C,1.2700*%
%ADD32R,0.8128X1.2192*%
%ADD33R,1.2192X0.8128*%
%ADD34R,1.0160X1.5240*%
%ADD35R,1.0160X1.2192*%
%ADD36R,2.7432X2.1590*%
%ADD37C,0.6096*%
%ADD38C,0.1524*%
%ADD39C,0.2032*%
%ADD40C,0.0508*%
%ADD41C,0.0518*%
%ADD42C,0.0648*%
%ADD43C,0.2540*%
%ADD44R,0.2032X0.2016*%
%ADD45R,1.2700X1.9050*%
%ADD46R,0.7620X1.7780*%
%ADD47R,1.2700X0.7620*%
%ADD48R,0.2016X0.2032*%
%ADD49R,0.9652X1.6764*%
%ADD50R,1.6764X0.9652*%
%ADD51R,2.9210X3.9116*%
%ADD52R,3.9116X2.9210*%
%ADD53R,1.7272X2.0066*%
%ADD54R,1.6256X1.6256*%
%ADD55R,1.0668X2.4384*%
%ADD56R,1.6256X1.6256*%
%ADD57R,2.4130X1.9304*%
%ADD58R,2.4130X4.2164*%
%ADD59R,2.0066X1.7272*%
G04:AMPARAMS|DCode=60|XSize=1.9304mm|YSize=1.9304mm|CornerRadius=0mm|HoleSize=0mm|Usage=FLASHONLY|Rotation=0.000|XOffset=0mm|YOffset=0mm|HoleType=Round|Shape=Octagon|*
%AMOCTAGOND60*
4,1,8,0.9652,-0.4826,0.9652,0.4826,0.4826,0.9652,-0.4826,0.9652,-0.9652,0.4826,-0.9652,-0.4826,-0.4826,-0.9652,0.4826,-0.9652,0.9652,-0.4826,0.0*
%
%ADD60OCTAGOND60*%

%ADD61O,3.4544X1.9304*%
%ADD62O,1.9304X3.4544*%
G04:AMPARAMS|DCode=63|XSize=1.9304mm|YSize=1.9304mm|CornerRadius=0mm|HoleSize=0mm|Usage=FLASHONLY|Rotation=270.000|XOffset=0mm|YOffset=0mm|HoleType=Round|Shape=Octagon|*
%AMOCTAGOND63*
4,1,8,-0.4826,-0.9652,0.4826,-0.9652,0.9652,-0.4826,0.9652,0.4826,0.4826,0.9652,-0.4826,0.9652,-0.9652,0.4826,-0.9652,-0.4826,-0.4826,-0.9652,0.0*
%
%ADD63OCTAGOND63*%

%ADD64C,1.6764*%
%ADD65R,1.2192X1.6256*%
%ADD66R,1.6256X1.2192*%
%ADD67R,1.4224X1.9304*%
%ADD68R,1.4224X1.6256*%
%ADD69R,3.1496X2.5654*%
%ADD70C,0.1270*%
%ADD71C,0.0762*%
%ADD72R,0.3024X0.7056*%
%ADD73C,0.1693*%
D26*
Y546100D01*
D70*
X226060Y374650D02*
Y384810D01*
X236220D01*
Y374650D01*
X226060D01*
Y400050D02*
Y410210D01*
X236220D01*
Y400050D01*
X226060D01*
X251460Y374650D02*
Y384810D01*
X261620D01*
Y374650D01*
X251460D01*
Y400050D02*
Y410210D01*
X261620D01*
Y400050D01*
X251460D01*
X276860Y374650D02*
Y384810D01*
X287020D01*
Y374650D01*
X276860D01*
Y400050D02*
Y410210D01*
X287020D01*
Y400050D01*
X276860D01*
X302260Y374650D02*
Y384810D01*
X312420D01*
Y374650D01*
X302260D01*
Y400050D02*
Y410210D01*
X312420D01*
Y400050D01*
X302260D01*
X327660Y374650D02*
Y384810D01*
X337820D01*
Y374650D01*
X327660D01*
Y400050D02*
Y410210D01*
X337820D01*
Y400050D01*
X327660D01*
X33020Y180340D02*
Y190500D01*
X43180D01*
Y180340D01*
X33020D01*
Y205740D02*
Y215900D01*
X43180D01*
Y205740D01*
X33020D01*
Y231140D02*
Y241300D01*
X43180D01*
Y231140D01*
X33020D01*
X158750Y20320D02*
Y30480D01*
X168910D01*
Y20320D01*
X158750D01*
X133350D02*
Y30480D01*
X143510D01*
Y20320D01*
X133350D01*
X107950D02*
Y30480D01*
X118110D01*
Y20320D01*
X107950D01*
X82550D02*
Y30480D01*
X92710D01*
Y20320D01*
X82550D01*
X278130D02*
Y30480D01*
X288290D01*
Y20320D01*
X278130D01*
X252730D02*
Y30480D01*
X262890D01*
Y20320D01*
X252730D01*
X227330D02*
Y30480D01*
X237490D01*
Y20320D01*
X227330D01*
X201930D02*
Y30480D01*
X212090D01*
Y20320D01*
X201930D01*
X125730Y58420D02*
Y68580D01*
X135890D01*
Y58420D01*
X125730D01*
X151130D02*
Y68580D01*
X161290D01*
Y58420D01*
X151130D01*
X176530D02*
Y68580D01*
X186690D01*
Y58420D01*
X176530D01*
X201930D02*
Y68580D01*
X212090D01*
Y58420D01*
X201930D01*
X339090Y195580D02*
Y205740D01*
X349250D01*
Y195580D01*
X339090D01*
Y220980D02*
Y231140D01*
X349250D01*
Y220980D01*
X339090D01*
Y246380D02*
Y256540D01*
X349250D01*
Y246380D01*
X339090D01*
Y271780D02*
Y281940D01*
X349250D01*
Y271780D01*
X339090D01*
Y297180D02*
Y307340D01*
X349250D01*
Y297180D01*
X339090D01*
X313690Y195580D02*
Y205740D01*
X323850D01*
Y195580D01*
X313690D01*
Y220980D02*
Y231140D01*
X323850D01*
Y220980D01*
X313690D01*
Y246380D02*
Y256540D01*
X323850D01*
Y246380D01*
X313690D01*
Y271780D02*
Y281940D01*
X323850D01*
Y271780D01*
X313690D01*
Y297180D02*
Y307340D01*
X323850D01*
Y297180D01*
X313690D01*
D73*
X68580Y336550D02*
G03*
X68580Y336550I-5080J0D01*
G01*
X130810Y420370D02*
G03*
X130810Y420370I-5080J0D01*
G01*
X285750Y72390D02*
G03*
X285750Y72390I-5080J0D01*
G01*
X344170D02*
G03*
X344170Y72390I-5080J0D01*
G01*
X326390Y121920D02*
G03*
X326390Y121920I-5080J0D01*
G01*
X273050Y132080D02*
G03*
X273050Y132080I-5080J0D01*
G01*
X231140Y151130D02*
G03*
X231140Y151130I-5080J0D01*
G01*
X243840Y118110D02*
G03*
X243840Y118110I-5080J0D01*
G01*
X294640D02*
G03*
X294640Y118110I-5080J0D01*
G01*
X103890Y346960D02*
G03*
X103890Y346960I-5080J0D01*
G01*
X162560Y394970D02*
G03*
X162560Y394970I-5080J0D01*
G01*
X142240Y283210D02*
G03*
X142240Y283210I-5080J0D01*
G01*
X155956Y310896D02*
G03*
X155956Y310896I-5080J0D01*
G01*
X142240Y148590D02*
G03*
X142240Y148590I-5080J0D01*
G01*
X163830Y137160D02*
G03*
X163830Y137160I-5080J0D01*
G01*
X100330Y176530D02*
G03*
X100330Y176530I-5080J0D01*
G01*
X121920D02*
G03*
X121920Y176530I-5080J0D01*
G01*
X111760Y215900D02*
G03*
X111760Y215900I-5080J0D01*
G01*
X271780Y307340D02*
G03*
X271780Y307340I-5080J0D01*
G01*
Y285750D02*
G03*
X271780Y285750I-5080J0D01*
G01*
X242570Y302260D02*
G03*
X242570Y302260I-5080J0D01*
G01*
X226060Y285750D02*
G03*
X226060Y285750I-5080J0D01*
G01*
X194310Y302260D02*
G03*
X194310Y302260I-5080J0D01*
G01*
X177800Y210820D02*
G03*
X177800Y210820I-5080J0D01*
G01*
X201930D02*
G03*
X201930Y210820I-5080J0D01*
G01*
M02*
