%FSLAX44Y44*%
%MOMM*%
G71*
G01*
G75*
%ADD10R,2.0066X3.8100*%
%ADD11R,2.0066X1.5240*%
%ADD12R,1.2192X1.2192*%
%ADD13R,0.6604X2.0320*%
%ADD14R,3.5052X2.5146*%
%ADD15R,1.2192X1.2192*%
%ADD16R,1.3208X1.6002*%
%ADD17R,2.5146X3.5052*%
%ADD18R,1.6002X1.3208*%
%ADD19R,1.2700X0.5588*%
%ADD20R,0.5588X1.2700*%
%ADD21C,0.3048*%
%ADD22C,0.4064*%
%ADD23C,0.8128*%
%ADD24C,0.0000*%
G04:AMPARAMS|DCode=25|XSize=1.524mm|YSize=1.524mm|CornerRadius=0mm|HoleSize=0mm|Usage=FLASHONLY|Rotation=270.000|XOffset=0mm|YOffset=0mm|HoleType=Round|Shape=Octagon|*
%AMOCTAGOND25*
4,1,8,-0.3810,-0.7620,0.3810,-0.7620,0.7620,-0.3810,0.7620,0.3810,0.3810,0.7620,-0.3810,0.7620,-0.7620,0.3810,-0.7620,-0.3810,-0.3810,-0.7620,0.0*
%
%ADD25OCTAGOND25*%

%ADD26O,1.5240X3.0480*%
%ADD27O,3.0480X1.5240*%
G04:AMPARAMS|DCode=28|XSize=1.524mm|YSize=1.524mm|CornerRadius=0mm|HoleSize=0mm|Usage=FLASHONLY|Rotation=0.000|XOffset=0mm|YOffset=0mm|HoleType=Round|Shape=Octagon|*
%AMOCTAGOND28*
4,1,8,0.7620,-0.3810,0.7620,0.3810,0.3810,0.7620,-0.3810,0.7620,-0.7620,0.3810,-0.7620,-0.3810,-0.3810,-0.7620,0.3810,-0.7620,0.7620,-0.3810,0.0*
%
%ADD28OCTAGOND28*%

%ADD29C,1.2700*%
%ADD30C,0.8128*%
%ADD31R,1.2192X0.8128*%
%ADD32R,2.7432X2.1590*%
%ADD33R,1.0160X1.2192*%
%ADD34R,1.0160X1.5240*%
%ADD35R,0.8128X1.2192*%
%ADD36C,0.1524*%
%ADD37C,0.2032*%
%ADD38C,0.0508*%
%ADD39C,0.0518*%
%ADD40C,0.0648*%
%ADD41C,0.2540*%
%ADD42R,0.2016X0.2032*%
%ADD43R,1.2700X1.9050*%
%ADD44R,0.7620X1.7780*%
%ADD45R,1.2700X0.7620*%
%ADD46R,0.2032X0.2016*%
%ADD47R,2.2098X4.0132*%
%ADD48R,2.2098X1.7272*%
%ADD49R,1.4224X1.4224*%
%ADD50R,0.8636X2.2352*%
%ADD51R,3.7084X2.7178*%
%ADD52R,1.4224X1.4224*%
%ADD53R,1.5240X1.8034*%
%ADD54R,2.7178X3.7084*%
%ADD55R,1.8034X1.5240*%
%ADD56R,1.4732X0.7620*%
%ADD57R,0.7620X1.4732*%
G04:AMPARAMS|DCode=58|XSize=1.7272mm|YSize=1.7272mm|CornerRadius=0mm|HoleSize=0mm|Usage=FLASHONLY|Rotation=270.000|XOffset=0mm|YOffset=0mm|HoleType=Round|Shape=Octagon|*
%AMOCTAGOND58*
4,1,8,-0.4318,-0.8636,0.4318,-0.8636,0.8636,-0.4318,0.8636,0.4318,0.4318,0.8636,-0.4318,0.8636,-0.8636,0.4318,-0.8636,-0.4318,-0.4318,-0.8636,0.0*
%
%ADD58OCTAGOND58*%

%ADD59O,1.7272X3.2512*%
%ADD60O,3.2512X1.7272*%
G04:AMPARAMS|DCode=61|XSize=1.7272mm|YSize=1.7272mm|CornerRadius=0mm|HoleSize=0mm|Usage=FLASHONLY|Rotation=0.000|XOffset=0mm|YOffset=0mm|HoleType=Round|Shape=Octagon|*
%AMOCTAGOND61*
4,1,8,0.8636,-0.4318,0.8636,0.4318,0.4318,0.8636,-0.4318,0.8636,-0.8636,0.4318,-0.8636,-0.4318,-0.4318,-0.8636,0.4318,-0.8636,0.8636,-0.4318,0.0*
%
%ADD61OCTAGOND61*%

%ADD62C,1.4732*%
%ADD63R,1.4224X1.0160*%
%ADD64R,2.9464X2.3622*%
%ADD65R,1.2192X1.4224*%
%ADD66R,1.2192X1.7272*%
%ADD67R,1.0160X1.4224*%
%ADD68C,0.0762*%
%ADD69C,0.1270*%
%ADD70R,0.3024X0.7056*%
%ADD71C,0.1693*%
D24*
Y546100D01*
D69*
X313690Y302260D02*
X323850D01*
X318770Y297180D02*
Y307340D01*
X313690Y276860D02*
X323850D01*
X318770Y271780D02*
Y281940D01*
X313690Y251460D02*
X323850D01*
X318770Y246380D02*
Y256540D01*
X313690Y226060D02*
X323850D01*
X318770Y220980D02*
Y231140D01*
X313690Y200660D02*
X323850D01*
X318770Y195580D02*
Y205740D01*
X339090Y302260D02*
X349250D01*
X344170Y297180D02*
Y307340D01*
X339090Y276860D02*
X349250D01*
X344170Y271780D02*
Y281940D01*
X339090Y251460D02*
X349250D01*
X344170Y246380D02*
Y256540D01*
X339090Y226060D02*
X349250D01*
X344170Y220980D02*
Y231140D01*
X339090Y200660D02*
X349250D01*
X344170Y195580D02*
Y205740D01*
X201930Y63500D02*
X212090D01*
X207010Y58420D02*
Y68580D01*
X176530Y63500D02*
X186690D01*
X181610Y58420D02*
Y68580D01*
X151130Y63500D02*
X161290D01*
X156210Y58420D02*
Y68580D01*
X125730Y63500D02*
X135890D01*
X130810Y58420D02*
Y68580D01*
X201930Y25400D02*
X212090D01*
X207010Y20320D02*
Y30480D01*
X227330Y25400D02*
X237490D01*
X232410Y20320D02*
Y30480D01*
X252730Y25400D02*
X262890D01*
X257810Y20320D02*
Y30480D01*
X278130Y25400D02*
X288290D01*
X283210Y20320D02*
Y30480D01*
X82550Y25400D02*
X92710D01*
X87630Y20320D02*
Y30480D01*
X107950Y25400D02*
X118110D01*
X113030Y20320D02*
Y30480D01*
X133350Y25400D02*
X143510D01*
X138430Y20320D02*
Y30480D01*
X158750Y25400D02*
X168910D01*
X163830Y20320D02*
Y30480D01*
X33020Y236220D02*
X43180D01*
X38100Y231140D02*
Y241300D01*
X33020Y210820D02*
X43180D01*
X38100Y205740D02*
Y215900D01*
X33020Y185420D02*
X43180D01*
X38100Y180340D02*
Y190500D01*
X327660Y405130D02*
X337820D01*
X332740Y400050D02*
Y410210D01*
X327660Y379730D02*
X337820D01*
X332740Y374650D02*
Y384810D01*
X302260Y405130D02*
X312420D01*
X307340Y400050D02*
Y410210D01*
X302260Y379730D02*
X312420D01*
X307340Y374650D02*
Y384810D01*
X276860Y405130D02*
X287020D01*
X281940Y400050D02*
Y410210D01*
X276860Y379730D02*
X287020D01*
X281940Y374650D02*
Y384810D01*
X251460Y405130D02*
X261620D01*
X256540Y400050D02*
Y410210D01*
X251460Y379730D02*
X261620D01*
X256540Y374650D02*
Y384810D01*
X226060Y405130D02*
X236220D01*
X231140Y400050D02*
Y410210D01*
X226060Y379730D02*
X236220D01*
X231140Y374650D02*
Y384810D01*
X110744Y184150D02*
X117856D01*
X114300Y180594D02*
Y187706D01*
X90424Y184150D02*
X97536D01*
X93980Y180594D02*
Y187706D01*
X278349Y76720D02*
X282413D01*
X280381Y74688D02*
Y78752D01*
X336769Y76720D02*
X340833D01*
X338801Y74688D02*
Y78752D01*
X91948Y358140D02*
X96012D01*
X93980Y356108D02*
Y360172D01*
X56388Y397510D02*
X60452D01*
X58420Y395478D02*
Y399542D01*
X74168Y397510D02*
X78232D01*
X76200Y395478D02*
Y399542D01*
X159258Y196850D02*
X163322D01*
X161290Y194818D02*
Y198882D01*
X165862Y207264D02*
X169926D01*
X167894Y205232D02*
Y209296D01*
X194818Y196850D02*
X198882D01*
X196850Y194818D02*
Y198882D01*
X187198Y207264D02*
X191262D01*
X189230Y205232D02*
Y209296D01*
X240249Y111760D02*
X244313D01*
X242281Y109728D02*
Y113792D01*
X298669Y111760D02*
X302733D01*
X300701Y109728D02*
Y113792D01*
X258318Y130810D02*
X262382D01*
X260350Y128778D02*
Y132842D01*
X221488Y140970D02*
X225552D01*
X223520Y138938D02*
Y143002D01*
X278638Y130810D02*
X282702D01*
X280670Y128778D02*
Y132842D01*
X197038Y137480D02*
X201102D01*
X199070Y135448D02*
Y139512D01*
X181038Y286830D02*
X185102D01*
X183070Y284798D02*
Y288862D01*
X156718Y137160D02*
X160782D01*
X158750Y135128D02*
Y139192D01*
X147828Y147320D02*
X151892D01*
X149860Y145288D02*
Y149352D01*
X156718Y309880D02*
X160782D01*
X158750Y307848D02*
Y311912D01*
X240538Y309880D02*
X244602D01*
X242570Y307848D02*
Y311912D01*
X230378Y300990D02*
X234442D01*
X232410Y298958D02*
Y303022D01*
X123698Y420370D02*
X127762D01*
X125730Y418338D02*
Y422402D01*
X201168Y287020D02*
X205232D01*
X203200Y284988D02*
Y289052D01*
X213868Y287020D02*
X217932D01*
X215900Y284988D02*
Y289052D01*
X107188Y220980D02*
X111252D01*
X109220Y218948D02*
Y223012D01*
X137668Y283210D02*
X141732D01*
X139700Y281178D02*
Y285242D01*
X61468Y311150D02*
X65532D01*
X63500Y309118D02*
Y313182D01*
X61468Y298450D02*
X65532D01*
X63500Y296418D02*
Y300482D01*
X61468Y323850D02*
X65532D01*
X63500Y321818D02*
Y325882D01*
X61468Y336550D02*
X65532D01*
X63500Y334518D02*
Y338582D01*
X61468Y285750D02*
X65532D01*
X63500Y283718D02*
Y287782D01*
M02*
