M48
;Layer_Color=9474304
;FILE_FORMAT=4:4
METRIC,LZ
;TYPE=PLATED
T1F00S00C0.8000
T2F00S00C0.8128
T3F00S00C1.0160
T4F00S00C3.2004
%
T01
X0023876Y0011811
T02
X0015875Y0013716
X0026797Y0013208
X0028956Y0011811
X0032131Y0012192
X0033909Y0007239
X0028067
X0022606Y0015113
X0019685Y0021082
X0017272
X0018923Y0030226
X00150876Y00310896
X0015748Y0039497
X0023749Y0030226
X0022098Y0028575
X002667
Y0030734
X0013716Y0028321
X0010668Y002159
X0011684Y0017653
X0009525
X0013716Y0014859
X0009881Y0034696
X000635Y0033655
X0012573Y0042037
T03
X0008763Y000254
X0011303
X0013843
X0013081Y000635
X0015621
X0018161
X0020701
Y000254
X0023241
X0025781
X0028321
X0016383
X0031877Y0020066
X0034417
Y0022606
Y0025146
Y0027686
Y0030226
X0031877
Y0027686
Y0025146
Y0022606
X0030734Y0037973
X0028194
X0025654
X0023114
Y0040513
X0025654
X0028194
X0030734
X0033274
Y0037973
X000381Y0023622
Y0021082
Y0018542
T04
X0004Y0004
X0033
M30
