%FSLAX44Y44*%
%MOMM*%
G71*
G01*
G75*
G04 Layer_Color=2752767*
%ADD10R,0.5588X1.2700*%
%ADD11R,1.2700X0.5588*%
%ADD12R,2.5146X3.5052*%
%ADD13R,3.5052X2.5146*%
%ADD14R,1.3208X1.6002*%
%ADD15R,1.2192X1.2192*%
%ADD16R,0.6604X2.0320*%
%ADD17R,1.2192X1.2192*%
%ADD18R,2.0066X1.5240*%
%ADD19R,2.0066X3.8100*%
%ADD20R,1.6002X1.3208*%
%ADD21C,0.8128*%
%ADD22C,0.4064*%
%ADD23C,0.3048*%
%ADD24C,0.3050*%
%ADD25C,0.4060*%
%ADD26C,0.2540*%
G04:AMPARAMS|DCode=27|XSize=1.524mm|YSize=1.524mm|CornerRadius=0mm|HoleSize=0mm|Usage=FLASHONLY|Rotation=0.000|XOffset=0mm|YOffset=0mm|HoleType=Round|Shape=Octagon|*
%AMOCTAGOND27*
4,1,8,0.7620,-0.3810,0.7620,0.3810,0.3810,0.7620,-0.3810,0.7620,-0.7620,0.3810,-0.7620,-0.3810,-0.3810,-0.7620,0.3810,-0.7620,0.7620,-0.3810,0.0*
%
%ADD27OCTAGOND27*%

%ADD28O,3.0480X1.5240*%
%ADD29O,1.5240X3.0480*%
G04:AMPARAMS|DCode=30|XSize=1.524mm|YSize=1.524mm|CornerRadius=0mm|HoleSize=0mm|Usage=FLASHONLY|Rotation=270.000|XOffset=0mm|YOffset=0mm|HoleType=Round|Shape=Octagon|*
%AMOCTAGOND30*
4,1,8,-0.3810,-0.7620,0.3810,-0.7620,0.7620,-0.3810,0.7620,0.3810,0.3810,0.7620,-0.3810,0.7620,-0.7620,0.3810,-0.7620,-0.3810,-0.3810,-0.7620,0.0*
%
%ADD30OCTAGOND30*%

%ADD31C,3.5560*%
%ADD32C,1.2700*%
%ADD33R,0.8128X1.2192*%
%ADD34R,1.2192X0.8128*%
%ADD35R,1.0160X1.5240*%
%ADD36R,1.0160X1.2192*%
%ADD37R,2.7432X2.1590*%
%ADD38C,0.6096*%
%ADD39C,0.1524*%
%ADD40C,0.2032*%
%ADD41C,0.0000*%
%ADD42C,0.0508*%
%ADD43C,0.0518*%
%ADD44C,0.0648*%
%ADD45R,0.2032X0.2016*%
%ADD46R,1.2700X1.9050*%
%ADD47R,0.7620X1.7780*%
%ADD48R,1.2700X0.7620*%
%ADD49R,0.2016X0.2032*%
%ADD50R,0.9652X1.6764*%
%ADD51R,1.6764X0.9652*%
%ADD52R,2.9210X3.9116*%
%ADD53R,3.9116X2.9210*%
%ADD54R,1.7272X2.0066*%
%ADD55R,1.6256X1.6256*%
%ADD56R,1.0668X2.4384*%
%ADD57R,1.6256X1.6256*%
%ADD58R,2.4130X1.9304*%
%ADD59R,2.4130X4.2164*%
%ADD60R,2.0066X1.7272*%
G04:AMPARAMS|DCode=61|XSize=1.9304mm|YSize=1.9304mm|CornerRadius=0mm|HoleSize=0mm|Usage=FLASHONLY|Rotation=0.000|XOffset=0mm|YOffset=0mm|HoleType=Round|Shape=Octagon|*
%AMOCTAGOND61*
4,1,8,0.9652,-0.4826,0.9652,0.4826,0.4826,0.9652,-0.4826,0.9652,-0.9652,0.4826,-0.9652,-0.4826,-0.4826,-0.9652,0.4826,-0.9652,0.9652,-0.4826,0.0*
%
%ADD61OCTAGOND61*%

%ADD62O,3.4544X1.9304*%
%ADD63O,1.9304X3.4544*%
G04:AMPARAMS|DCode=64|XSize=1.9304mm|YSize=1.9304mm|CornerRadius=0mm|HoleSize=0mm|Usage=FLASHONLY|Rotation=270.000|XOffset=0mm|YOffset=0mm|HoleType=Round|Shape=Octagon|*
%AMOCTAGOND64*
4,1,8,-0.4826,-0.9652,0.4826,-0.9652,0.9652,-0.4826,0.9652,0.4826,0.4826,0.9652,-0.4826,0.9652,-0.9652,0.4826,-0.9652,-0.4826,-0.4826,-0.9652,0.0*
%
%ADD64OCTAGOND64*%

%ADD65C,4.3688*%
%ADD66C,3.9624*%
%ADD67C,1.6764*%
%ADD68R,1.2192X1.6256*%
%ADD69R,1.6256X1.2192*%
%ADD70R,1.4224X1.9304*%
%ADD71R,1.4224X1.6256*%
%ADD72R,3.1496X2.5654*%
%ADD73C,0.1270*%
%ADD74C,0.0762*%
%ADD75R,0.3024X0.7056*%
%ADD76C,0.1693*%
D26*
X0Y0D02*
X370840D01*
Y461010D01*
X369570Y459740D02*
X370840Y461010D01*
X0Y459740D02*
X369570D01*
X0Y0D02*
Y459740D01*
D73*
X226060Y374650D02*
Y384810D01*
X236220D01*
Y374650D01*
X226060D01*
Y400050D02*
Y410210D01*
X236220D01*
Y400050D01*
X226060D01*
X251460Y374650D02*
Y384810D01*
X261620D01*
Y374650D01*
X251460D01*
Y400050D02*
Y410210D01*
X261620D01*
Y400050D01*
X251460D01*
X276860Y374650D02*
Y384810D01*
X287020D01*
Y374650D01*
X276860D01*
Y400050D02*
Y410210D01*
X287020D01*
Y400050D01*
X276860D01*
X302260Y374650D02*
Y384810D01*
X312420D01*
Y374650D01*
X302260D01*
Y400050D02*
Y410210D01*
X312420D01*
Y400050D01*
X302260D01*
X327660Y374650D02*
Y384810D01*
X337820D01*
Y374650D01*
X327660D01*
Y400050D02*
Y410210D01*
X337820D01*
Y400050D01*
X327660D01*
X33020Y180340D02*
Y190500D01*
X43180D01*
Y180340D01*
X33020D01*
Y205740D02*
Y215900D01*
X43180D01*
Y205740D01*
X33020D01*
Y231140D02*
Y241300D01*
X43180D01*
Y231140D01*
X33020D01*
X158750Y20320D02*
Y30480D01*
X168910D01*
Y20320D01*
X158750D01*
X133350D02*
Y30480D01*
X143510D01*
Y20320D01*
X133350D01*
X107950D02*
Y30480D01*
X118110D01*
Y20320D01*
X107950D01*
X82550D02*
Y30480D01*
X92710D01*
Y20320D01*
X82550D01*
X278130D02*
Y30480D01*
X288290D01*
Y20320D01*
X278130D01*
X252730D02*
Y30480D01*
X262890D01*
Y20320D01*
X252730D01*
X227330D02*
Y30480D01*
X237490D01*
Y20320D01*
X227330D01*
X201930D02*
Y30480D01*
X212090D01*
Y20320D01*
X201930D01*
X125730Y58420D02*
Y68580D01*
X135890D01*
Y58420D01*
X125730D01*
X151130D02*
Y68580D01*
X161290D01*
Y58420D01*
X151130D01*
X176530D02*
Y68580D01*
X186690D01*
Y58420D01*
X176530D01*
X201930D02*
Y68580D01*
X212090D01*
Y58420D01*
X201930D01*
X339090Y195580D02*
Y205740D01*
X349250D01*
Y195580D01*
X339090D01*
Y220980D02*
Y231140D01*
X349250D01*
Y220980D01*
X339090D01*
Y246380D02*
Y256540D01*
X349250D01*
Y246380D01*
X339090D01*
Y271780D02*
Y281940D01*
X349250D01*
Y271780D01*
X339090D01*
Y297180D02*
Y307340D01*
X349250D01*
Y297180D01*
X339090D01*
X313690Y195580D02*
Y205740D01*
X323850D01*
Y195580D01*
X313690D01*
Y220980D02*
Y231140D01*
X323850D01*
Y220980D01*
X313690D01*
Y246380D02*
Y256540D01*
X323850D01*
Y246380D01*
X313690D01*
Y271780D02*
Y281940D01*
X323850D01*
Y271780D01*
X313690D01*
Y297180D02*
Y307340D01*
X323850D01*
Y297180D01*
X313690D01*
X63500Y331470D02*
X58420Y341630D01*
X68580D01*
X63500Y331470D01*
X125730Y415290D02*
X120650Y425450D01*
X130810D01*
X125730Y415290D01*
X280670Y67310D02*
X275590Y77470D01*
X285750D01*
X280670Y67310D01*
X339090D02*
X334010Y77470D01*
X344170D01*
X339090Y67310D01*
X321310Y116840D02*
X316230Y127000D01*
X326390D01*
X321310Y116840D01*
X267970Y127000D02*
X262890Y137160D01*
X273050D01*
X267970Y127000D01*
X226060Y146050D02*
X220980Y156210D01*
X231140D01*
X226060Y146050D01*
X238760Y113030D02*
X241300Y115570D01*
X243840D01*
X241300Y118110D01*
X243840Y120650D01*
X241300D01*
X238760Y123190D01*
X236220Y120650D01*
X233680D01*
X236220Y118110D01*
X233680Y115570D01*
X236220D01*
X238760Y113030D01*
X289560D02*
X284480Y123190D01*
X294640D01*
X289560Y113030D01*
X98810Y341880D02*
X93730Y352040D01*
X103890D01*
X98810Y341880D01*
X157480Y389890D02*
X152400Y400050D01*
X162560D01*
X157480Y389890D01*
X137160Y278130D02*
X132080Y288290D01*
X142240D01*
X137160Y278130D01*
X150876Y305816D02*
X145796Y315976D01*
X155956D01*
X150876Y305816D01*
X137160Y143510D02*
X132080Y153670D01*
X142240D01*
X137160Y143510D01*
X158750Y132080D02*
X153670Y142240D01*
X163830D01*
X158750Y132080D01*
X95250Y171450D02*
X90170Y181610D01*
X100330D01*
X95250Y171450D01*
X116840D02*
X111760Y181610D01*
X121920D01*
X116840Y171450D01*
X106680Y210820D02*
X101600Y220980D01*
X111760D01*
X106680Y210820D01*
X266700Y302260D02*
X261620Y312420D01*
X271780D01*
X266700Y302260D01*
Y280670D02*
X261620Y290830D01*
X271780D01*
X266700Y280670D01*
X237490Y297180D02*
X232410Y307340D01*
X242570D01*
X237490Y297180D01*
X220980Y280670D02*
X215900Y290830D01*
X226060D01*
X220980Y280670D01*
X189230Y297180D02*
X184150Y307340D01*
X194310D01*
X189230Y297180D01*
X172720Y205740D02*
X167640Y215900D01*
X177800D01*
X172720Y205740D01*
X196850D02*
X191770Y215900D01*
X201930D01*
X196850Y205740D01*
D76*
X335080Y40000D02*
G03*
X335080Y40000I-5080J0D01*
G01*
X45080D02*
G03*
X45080Y40000I-5080J0D01*
G01*
M02*
