%FSLAX44Y44*%
%MOMM*%
G71*
G01*
G75*
G04 Layer_Physical_Order=1*
G04 Layer_Color=255*
%ADD10R,1.6002X1.3208*%
%ADD11R,2.0066X3.8100*%
%ADD12R,2.0066X1.5240*%
%ADD13R,1.2192X1.2192*%
%ADD14R,0.6604X2.0320*%
%ADD15R,3.5052X2.5146*%
%ADD16R,1.2192X1.2192*%
%ADD17R,1.3208X1.6002*%
%ADD18R,2.5146X3.5052*%
%ADD19R,1.2700X0.5588*%
%ADD20R,0.5588X1.2700*%
%ADD21C,0.4060*%
%ADD22C,0.4064*%
%ADD23C,0.3048*%
%ADD24C,0.3050*%
%ADD25C,0.8128*%
%ADD26C,0.2540*%
%ADD27C,3.5560*%
G04:AMPARAMS|DCode=28|XSize=1.524mm|YSize=1.524mm|CornerRadius=0mm|HoleSize=0mm|Usage=FLASHONLY|Rotation=270.000|XOffset=0mm|YOffset=0mm|HoleType=Round|Shape=Octagon|*
%AMOCTAGOND28*
4,1,8,-0.3810,-0.7620,0.3810,-0.7620,0.7620,-0.3810,0.7620,0.3810,0.3810,0.7620,-0.3810,0.7620,-0.7620,0.3810,-0.7620,-0.3810,-0.3810,-0.7620,0.0*
%
%ADD28OCTAGOND28*%

%ADD29O,1.5240X3.0480*%
%ADD30O,3.0480X1.5240*%
G04:AMPARAMS|DCode=31|XSize=1.524mm|YSize=1.524mm|CornerRadius=0mm|HoleSize=0mm|Usage=FLASHONLY|Rotation=0.000|XOffset=0mm|YOffset=0mm|HoleType=Round|Shape=Octagon|*
%AMOCTAGOND31*
4,1,8,0.7620,-0.3810,0.7620,0.3810,0.3810,0.7620,-0.3810,0.7620,-0.7620,0.3810,-0.7620,-0.3810,-0.3810,-0.7620,0.3810,-0.7620,0.7620,-0.3810,0.0*
%
%ADD31OCTAGOND31*%

%ADD32C,1.2700*%
G36*
X370000Y-0D02*
X370000Y-0D01*
X-0D01*
X-0Y458730D01*
X1270Y460000D01*
X370000D01*
Y-0D01*
D02*
G37*
%LPC*%
G36*
X241011Y106946D02*
X236439D01*
Y95516D01*
X241011D01*
Y106946D01*
D02*
G37*
G36*
X48526Y107950D02*
X29730D01*
Y94107D01*
X48526D01*
Y107950D01*
D02*
G37*
G36*
X248123Y106946D02*
X243551D01*
Y95516D01*
X248123D01*
Y106946D01*
D02*
G37*
G36*
X306543D02*
X301971D01*
Y95516D01*
X306543D01*
Y106946D01*
D02*
G37*
G36*
X299431D02*
X294859D01*
Y95516D01*
X299431D01*
Y106946D01*
D02*
G37*
G36*
X27190Y107950D02*
X8394D01*
Y94107D01*
X27190D01*
Y107950D01*
D02*
G37*
G36*
X248123Y92976D02*
X243551D01*
Y81546D01*
X248123D01*
Y92976D01*
D02*
G37*
G36*
X241011D02*
X236439D01*
Y81546D01*
X241011D01*
Y92976D01*
D02*
G37*
G36*
X299431D02*
X294859D01*
Y81546D01*
X299431D01*
Y92976D01*
D02*
G37*
G36*
X318735Y106438D02*
X308067D01*
Y83802D01*
X307813Y83633D01*
X306543Y84312D01*
Y92976D01*
X301971D01*
Y81546D01*
X305030D01*
X305556Y80276D01*
X284034Y58754D01*
X273050D01*
X271464Y58438D01*
X270120Y57540D01*
X254880Y42300D01*
X254837Y42236D01*
X252942Y41451D01*
X250926Y39904D01*
X249379Y37888D01*
X248406Y35540D01*
X248075Y33020D01*
Y17780D01*
X248406Y15260D01*
X249379Y12912D01*
X250926Y10896D01*
X252942Y9349D01*
X255290Y8376D01*
X257810Y8045D01*
X260330Y8376D01*
X262678Y9349D01*
X264694Y10896D01*
X266241Y12912D01*
X267214Y15260D01*
X267545Y17780D01*
Y33020D01*
X267214Y35540D01*
X266241Y37888D01*
X264694Y39904D01*
X264664Y40364D01*
X274766Y50466D01*
X285750D01*
X287336Y50782D01*
X288680Y51680D01*
X316331Y79331D01*
X317229Y80675D01*
X317504Y82054D01*
X318735D01*
Y106438D01*
D02*
G37*
G36*
X331435D02*
X320767D01*
Y82054D01*
X320767Y82054D01*
X320767D01*
X320532Y80822D01*
X282353Y42642D01*
X280690Y42424D01*
X278342Y41451D01*
X276326Y39904D01*
X274779Y37888D01*
X273806Y35540D01*
X273475Y33020D01*
Y17780D01*
X273806Y15260D01*
X274779Y12912D01*
X276326Y10896D01*
X278342Y9349D01*
X280690Y8376D01*
X283210Y8045D01*
X285730Y8376D01*
X288078Y9349D01*
X290094Y10896D01*
X291641Y12912D01*
X292614Y15260D01*
X292945Y17780D01*
Y33020D01*
X292614Y35540D01*
X291641Y37888D01*
X290633Y39202D01*
X329031Y77600D01*
X329929Y78945D01*
X330245Y80530D01*
Y82054D01*
X331435D01*
Y106438D01*
D02*
G37*
G36*
X323342Y132156D02*
Y123952D01*
X331546D01*
X331456Y124639D01*
X330407Y127172D01*
X328737Y129347D01*
X326562Y131017D01*
X324029Y132066D01*
X323342Y132156D01*
D02*
G37*
G36*
X319278D02*
X318591Y132066D01*
X316058Y131017D01*
X313883Y129347D01*
X312213Y127172D01*
X311164Y124639D01*
X311074Y123952D01*
X319278D01*
Y132156D01*
D02*
G37*
G36*
X247615Y167906D02*
X236947D01*
Y143522D01*
X247615D01*
Y167906D01*
D02*
G37*
G36*
X260315D02*
X249647D01*
Y143522D01*
X249647Y143522D01*
X249647D01*
X249109Y142476D01*
X248688Y142056D01*
X236452D01*
X232610Y145897D01*
X233382Y146903D01*
X234226Y148942D01*
X234514Y151130D01*
X234226Y153318D01*
X233382Y155357D01*
X232038Y157108D01*
X230287Y158452D01*
X228248Y159296D01*
X226060Y159584D01*
X223872Y159296D01*
X221833Y158452D01*
X220082Y157108D01*
X218738Y155357D01*
X217894Y153318D01*
X217606Y151130D01*
X217894Y148942D01*
X218738Y146903D01*
X220082Y145152D01*
X221833Y143808D01*
X223872Y142964D01*
X225504Y142749D01*
X232386Y135866D01*
X232386Y135866D01*
X233563Y135080D01*
X234950Y134804D01*
X234950Y134804D01*
X250190D01*
X250190Y134804D01*
X251577Y135080D01*
X252754Y135866D01*
X257545Y140657D01*
X258331Y141833D01*
X258607Y143221D01*
X259817Y143522D01*
X260315D01*
Y167906D01*
D02*
G37*
G36*
X306035D02*
X295367D01*
Y143522D01*
X306035D01*
Y167906D01*
D02*
G37*
G36*
X273015D02*
X262347D01*
Y143522D01*
X264344D01*
Y139651D01*
X263743Y139402D01*
X261992Y138058D01*
X260648Y136307D01*
X259804Y134268D01*
X259516Y132080D01*
X259804Y129892D01*
X260648Y127853D01*
X261992Y126102D01*
X263743Y124758D01*
X265782Y123914D01*
X267970Y123626D01*
X270158Y123914D01*
X272197Y124758D01*
X273948Y126102D01*
X275292Y127853D01*
X276136Y129892D01*
X276424Y132080D01*
X276136Y134268D01*
X275292Y136307D01*
X273948Y138058D01*
X272197Y139402D01*
X271596Y139651D01*
Y143522D01*
X273015D01*
Y167906D01*
D02*
G37*
G36*
X27190Y124333D02*
X8394D01*
Y110490D01*
X27190D01*
Y124333D01*
D02*
G37*
G36*
X285715Y167906D02*
X275047D01*
Y143522D01*
X277044D01*
Y139700D01*
X277044Y139700D01*
X277320Y138313D01*
X278106Y137136D01*
X285934Y129308D01*
Y125681D01*
X285333Y125432D01*
X283582Y124088D01*
X282238Y122337D01*
X281394Y120298D01*
X281106Y118110D01*
X281394Y115922D01*
X282238Y113883D01*
X283582Y112132D01*
X285333Y110788D01*
X287372Y109944D01*
X289560Y109656D01*
X291748Y109944D01*
X293787Y110788D01*
X295538Y112132D01*
X296882Y113883D01*
X297726Y115922D01*
X298014Y118110D01*
X297726Y120298D01*
X296882Y122337D01*
X295538Y124088D01*
X293787Y125432D01*
X293186Y125681D01*
Y130810D01*
X293186Y130810D01*
X292910Y132198D01*
X292124Y133374D01*
X292124Y133374D01*
X284296Y141202D01*
Y143522D01*
X285715D01*
Y167906D01*
D02*
G37*
G36*
X48526Y124333D02*
X29730D01*
Y110490D01*
X48526D01*
Y124333D01*
D02*
G37*
G36*
X331546Y119888D02*
X323342D01*
Y111684D01*
X324029Y111774D01*
X326562Y112823D01*
X328737Y114493D01*
X330407Y116668D01*
X331456Y119201D01*
X331546Y119888D01*
D02*
G37*
G36*
X319278D02*
X311074D01*
X311164Y119201D01*
X312213Y116668D01*
X313883Y114493D01*
X316058Y112823D01*
X318591Y111774D01*
X319278Y111684D01*
Y119888D01*
D02*
G37*
G36*
X182880Y81201D02*
Y64770D01*
X191858D01*
Y71120D01*
X191509Y73772D01*
X190485Y76244D01*
X188856Y78366D01*
X186734Y79995D01*
X184262Y81018D01*
X182880Y81201D01*
D02*
G37*
G36*
X40000Y59908D02*
X36116Y59525D01*
X32382Y58393D01*
X28940Y56553D01*
X25923Y54077D01*
X23447Y51060D01*
X21607Y47618D01*
X20475Y43884D01*
X20092Y40000D01*
X20475Y36116D01*
X21607Y32382D01*
X23447Y28940D01*
X25923Y25923D01*
X28940Y23447D01*
X32382Y21607D01*
X36116Y20475D01*
X40000Y20092D01*
X43884Y20475D01*
X47618Y21607D01*
X51060Y23447D01*
X54077Y25923D01*
X56553Y28940D01*
X58393Y32382D01*
X59525Y36116D01*
X59908Y40000D01*
X59525Y43884D01*
X58393Y47618D01*
X56553Y51060D01*
X54077Y54077D01*
X51060Y56553D01*
X47618Y58393D01*
X43884Y59525D01*
X40000Y59908D01*
D02*
G37*
G36*
X273015Y106438D02*
X262347D01*
Y82054D01*
X263537D01*
Y80167D01*
X229480Y46110D01*
X228582Y44766D01*
X228266Y43180D01*
Y41751D01*
X227542Y41451D01*
X225526Y39904D01*
X223979Y37888D01*
X223006Y35540D01*
X222675Y33020D01*
Y17780D01*
X223006Y15260D01*
X223979Y12912D01*
X225526Y10896D01*
X227542Y9349D01*
X229890Y8376D01*
X232410Y8045D01*
X234930Y8376D01*
X237278Y9349D01*
X239294Y10896D01*
X240841Y12912D01*
X241814Y15260D01*
X242145Y17780D01*
Y33020D01*
X241814Y35540D01*
X240841Y37888D01*
X239294Y39904D01*
X237877Y40991D01*
X237655Y42565D01*
X270611Y75521D01*
X271509Y76865D01*
X271825Y78451D01*
Y82054D01*
X273015D01*
Y106438D01*
D02*
G37*
G36*
X330000Y59908D02*
X326116Y59525D01*
X322382Y58393D01*
X318940Y56553D01*
X315923Y54077D01*
X313447Y51060D01*
X311607Y47618D01*
X310475Y43884D01*
X310092Y40000D01*
X310475Y36116D01*
X311607Y32382D01*
X313447Y28940D01*
X315923Y25923D01*
X318940Y23447D01*
X322382Y21607D01*
X326116Y20475D01*
X330000Y20092D01*
X333884Y20475D01*
X337618Y21607D01*
X341060Y23447D01*
X344077Y25923D01*
X346553Y28940D01*
X348392Y32382D01*
X349525Y36116D01*
X349908Y40000D01*
X349525Y43884D01*
X348392Y47618D01*
X346553Y51060D01*
X344077Y54077D01*
X341060Y56553D01*
X337618Y58393D01*
X333884Y59525D01*
X330000Y59908D01*
D02*
G37*
G36*
X139700Y43101D02*
Y26670D01*
X148678D01*
Y33020D01*
X148329Y35672D01*
X147305Y38144D01*
X145676Y40266D01*
X143554Y41895D01*
X141082Y42919D01*
X139700Y43101D01*
D02*
G37*
G36*
X137160D02*
X135778Y42919D01*
X133306Y41895D01*
X131184Y40266D01*
X129555Y38144D01*
X128532Y35672D01*
X128182Y33020D01*
Y26670D01*
X137160D01*
Y43101D01*
D02*
G37*
G36*
X113030Y42755D02*
X110510Y42424D01*
X108162Y41451D01*
X106146Y39904D01*
X104599Y37888D01*
X103626Y35540D01*
X103295Y33020D01*
Y17780D01*
X103626Y15260D01*
X104599Y12912D01*
X106146Y10896D01*
X108162Y9349D01*
X110510Y8376D01*
X113030Y8045D01*
X115550Y8376D01*
X117898Y9349D01*
X119914Y10896D01*
X121461Y12912D01*
X122434Y15260D01*
X122765Y17780D01*
Y33020D01*
X122434Y35540D01*
X121461Y37888D01*
X119914Y39904D01*
X117898Y41451D01*
X115550Y42424D01*
X113030Y42755D01*
D02*
G37*
G36*
X148678Y24130D02*
X139700D01*
Y7699D01*
X141082Y7882D01*
X143554Y8905D01*
X145676Y10534D01*
X147305Y12656D01*
X148329Y15128D01*
X148678Y17780D01*
Y24130D01*
D02*
G37*
G36*
X137160D02*
X128182D01*
Y17780D01*
X128532Y15128D01*
X129555Y12656D01*
X131184Y10534D01*
X133306Y8905D01*
X135778Y7882D01*
X137160Y7699D01*
Y24130D01*
D02*
G37*
G36*
X162560D02*
X153582D01*
Y17780D01*
X153932Y15128D01*
X154955Y12656D01*
X156584Y10534D01*
X158706Y8905D01*
X161178Y7882D01*
X162560Y7699D01*
Y24130D01*
D02*
G37*
G36*
X87630Y42755D02*
X85110Y42424D01*
X82762Y41451D01*
X80746Y39904D01*
X79199Y37888D01*
X78226Y35540D01*
X77895Y33020D01*
Y17780D01*
X78226Y15260D01*
X79199Y12912D01*
X80746Y10896D01*
X82762Y9349D01*
X85110Y8376D01*
X87630Y8045D01*
X90150Y8376D01*
X92498Y9349D01*
X94514Y10896D01*
X96061Y12912D01*
X97034Y15260D01*
X97365Y17780D01*
Y33020D01*
X97034Y35540D01*
X96061Y37888D01*
X94514Y39904D01*
X92498Y41451D01*
X90150Y42424D01*
X87630Y42755D01*
D02*
G37*
G36*
X174078Y24130D02*
X165100D01*
Y7699D01*
X166482Y7882D01*
X168954Y8905D01*
X171076Y10534D01*
X172705Y12656D01*
X173729Y15128D01*
X174078Y17780D01*
Y24130D01*
D02*
G37*
G36*
X217043Y100584D02*
X196977D01*
Y83312D01*
X202866D01*
Y79851D01*
X202142Y79551D01*
X200126Y78004D01*
X198579Y75988D01*
X197606Y73640D01*
X197275Y71120D01*
Y55880D01*
X197606Y53360D01*
X198579Y51012D01*
X200126Y48996D01*
X202142Y47449D01*
X204490Y46476D01*
X207010Y46145D01*
X209530Y46476D01*
X211878Y47449D01*
X213894Y48996D01*
X215441Y51012D01*
X216414Y53360D01*
X216745Y55880D01*
Y71120D01*
X216414Y73640D01*
X215441Y75988D01*
X213894Y78004D01*
X211878Y79551D01*
X211154Y79851D01*
Y83312D01*
X217043D01*
Y100584D01*
D02*
G37*
G36*
X45720Y195155D02*
X30480D01*
X27960Y194824D01*
X25612Y193851D01*
X23596Y192304D01*
X22049Y190288D01*
X21076Y187940D01*
X20745Y185420D01*
X21076Y182900D01*
X22049Y180552D01*
X23596Y178536D01*
X25612Y176989D01*
X27960Y176016D01*
X30480Y175685D01*
X31885D01*
Y160020D01*
X32279Y158036D01*
X32358Y157641D01*
X33705Y155625D01*
X73914Y115416D01*
Y94615D01*
X113030D01*
Y103005D01*
X120616D01*
X147736Y75884D01*
X146806Y73640D01*
X146475Y71120D01*
Y55880D01*
X146806Y53360D01*
X147779Y51012D01*
X149326Y48996D01*
X151342Y47449D01*
X153690Y46476D01*
X156210Y46145D01*
X158730Y46476D01*
X161078Y47449D01*
X163094Y48996D01*
X164641Y51012D01*
X165614Y53360D01*
X165945Y55880D01*
Y71120D01*
X165614Y73640D01*
X164641Y75988D01*
X163094Y78004D01*
X161539Y79197D01*
X160605Y80595D01*
X127585Y113615D01*
X125569Y114962D01*
X125174Y115041D01*
X123190Y115435D01*
X113030D01*
Y123825D01*
X83085D01*
X44315Y162595D01*
Y175685D01*
X45720D01*
X48240Y176016D01*
X50588Y176989D01*
X52604Y178536D01*
X54151Y180552D01*
X55124Y182900D01*
X55455Y185420D01*
X55124Y187940D01*
X54151Y190288D01*
X52604Y192304D01*
X50588Y193851D01*
X48240Y194824D01*
X45720Y195155D01*
D02*
G37*
G36*
X285715Y106438D02*
X275047D01*
Y82054D01*
X276526D01*
Y79746D01*
X276443Y79712D01*
X274692Y78368D01*
X273348Y76617D01*
X272504Y74578D01*
X272216Y72390D01*
X272504Y70202D01*
X273348Y68163D01*
X274692Y66412D01*
X276443Y65068D01*
X278482Y64224D01*
X280670Y63936D01*
X282858Y64224D01*
X284897Y65068D01*
X286648Y66412D01*
X287992Y68163D01*
X288836Y70202D01*
X289124Y72390D01*
X288836Y74578D01*
X287992Y76617D01*
X286648Y78368D01*
X284897Y79712D01*
X284814Y79746D01*
Y82054D01*
X285715D01*
Y106438D01*
D02*
G37*
G36*
X180340Y81201D02*
X178958Y81018D01*
X176486Y79995D01*
X174364Y78366D01*
X172735Y76244D01*
X171712Y73772D01*
X171362Y71120D01*
Y64770D01*
X180340D01*
Y81201D01*
D02*
G37*
G36*
X344135Y106438D02*
X333467D01*
Y82054D01*
X334946D01*
Y79746D01*
X334863Y79712D01*
X333112Y78368D01*
X331768Y76617D01*
X330924Y74578D01*
X330636Y72390D01*
X330924Y70202D01*
X331768Y68163D01*
X333112Y66412D01*
X334863Y65068D01*
X336902Y64224D01*
X339090Y63936D01*
X341278Y64224D01*
X343317Y65068D01*
X345068Y66412D01*
X346412Y68163D01*
X347256Y70202D01*
X347544Y72390D01*
X347256Y74578D01*
X346412Y76617D01*
X345068Y78368D01*
X343317Y79712D01*
X343234Y79746D01*
Y82054D01*
X344135D01*
Y106438D01*
D02*
G37*
G36*
X130810Y80855D02*
X128290Y80524D01*
X125942Y79551D01*
X123926Y78004D01*
X122379Y75988D01*
X121406Y73640D01*
X121075Y71120D01*
Y55880D01*
X121406Y53360D01*
X122379Y51012D01*
X123926Y48996D01*
X125942Y47449D01*
X128290Y46476D01*
X130810Y46145D01*
X133330Y46476D01*
X135678Y47449D01*
X137694Y48996D01*
X139241Y51012D01*
X140214Y53360D01*
X140545Y55880D01*
Y71120D01*
X140214Y73640D01*
X139241Y75988D01*
X137694Y78004D01*
X135678Y79551D01*
X133330Y80524D01*
X130810Y80855D01*
D02*
G37*
G36*
X165100Y43101D02*
Y26670D01*
X174078D01*
Y33020D01*
X173729Y35672D01*
X172705Y38144D01*
X171076Y40266D01*
X168954Y41895D01*
X166482Y42919D01*
X165100Y43101D01*
D02*
G37*
G36*
X162560D02*
X161178Y42919D01*
X158706Y41895D01*
X156584Y40266D01*
X154955Y38144D01*
X153932Y35672D01*
X153582Y33020D01*
Y26670D01*
X162560D01*
Y43101D01*
D02*
G37*
G36*
X260315Y106438D02*
X249647D01*
Y82054D01*
X249658D01*
X250184Y80784D01*
X211152Y41752D01*
X209530Y42424D01*
X207010Y42755D01*
X204490Y42424D01*
X202142Y41451D01*
X200126Y39904D01*
X198579Y37888D01*
X197606Y35540D01*
X197275Y33020D01*
Y17780D01*
X197606Y15260D01*
X198579Y12912D01*
X200126Y10896D01*
X202142Y9349D01*
X204490Y8376D01*
X207010Y8045D01*
X209530Y8376D01*
X211878Y9349D01*
X213894Y10896D01*
X215441Y12912D01*
X216414Y15260D01*
X216745Y17780D01*
Y33020D01*
X216442Y35322D01*
X257911Y76791D01*
X258809Y78135D01*
X259125Y79721D01*
Y82054D01*
X260315D01*
Y106438D01*
D02*
G37*
G36*
X191858Y62230D02*
X182880D01*
Y45799D01*
X184262Y45981D01*
X186734Y47005D01*
X188856Y48634D01*
X190485Y50756D01*
X191509Y53228D01*
X191858Y55880D01*
Y62230D01*
D02*
G37*
G36*
X180340D02*
X171362D01*
Y55880D01*
X171712Y53228D01*
X172735Y50756D01*
X174364Y48634D01*
X176486Y47005D01*
X178958Y45981D01*
X180340Y45799D01*
Y62230D01*
D02*
G37*
G36*
X36830Y209550D02*
X20399D01*
X20582Y208168D01*
X21605Y205696D01*
X23234Y203574D01*
X25356Y201945D01*
X27828Y200921D01*
X30480Y200572D01*
X36830D01*
Y209550D01*
D02*
G37*
G36*
X235966Y414782D02*
X226314D01*
X221488Y409956D01*
Y400304D01*
X226314Y395478D01*
X235966D01*
X240792Y400304D01*
Y409956D01*
X235966Y414782D01*
D02*
G37*
G36*
X260350Y355416D02*
X260350Y355416D01*
X191770D01*
X191770Y355416D01*
X190382Y355140D01*
X189206Y354354D01*
X189206Y354354D01*
X165584Y330732D01*
X164798Y329556D01*
X164522Y328168D01*
X164522Y328168D01*
Y308080D01*
X156440Y299998D01*
X155772Y298997D01*
X155058Y299022D01*
X154502Y299208D01*
Y303325D01*
X155103Y303574D01*
X156854Y304918D01*
X158198Y306669D01*
X159042Y308708D01*
X159330Y310896D01*
X159042Y313084D01*
X158198Y315123D01*
X156854Y316874D01*
X155103Y318218D01*
X153064Y319062D01*
X150876Y319350D01*
X148688Y319062D01*
X146649Y318218D01*
X144898Y316874D01*
X143554Y315123D01*
X142710Y313084D01*
X142422Y310896D01*
X142710Y308708D01*
X143554Y306669D01*
X144898Y304918D01*
X146649Y303574D01*
X147250Y303325D01*
Y276098D01*
X146050D01*
Y259334D01*
X169672D01*
Y258826D01*
X173736D01*
Y267716D01*
Y276606D01*
X170504D01*
Y293646D01*
X177252Y300395D01*
X177252Y300395D01*
X178038Y301571D01*
X178314Y302959D01*
X178314Y302959D01*
Y323047D01*
X195812Y340544D01*
X244878D01*
X250374Y335048D01*
Y298450D01*
X250374Y298450D01*
X250650Y297062D01*
X251436Y295886D01*
X258783Y288540D01*
X258534Y287938D01*
X258246Y285750D01*
X258534Y283562D01*
X259378Y281523D01*
X260722Y279772D01*
X262473Y278428D01*
X264512Y277584D01*
X266700Y277296D01*
X268888Y277584D01*
X270927Y278428D01*
X272678Y279772D01*
X274022Y281523D01*
X274866Y283562D01*
X275154Y285750D01*
X274866Y287938D01*
X274022Y289977D01*
X272678Y291728D01*
X270927Y293072D01*
X268888Y293916D01*
X266700Y294204D01*
X264512Y293916D01*
X263910Y293667D01*
X257626Y299952D01*
Y304025D01*
X258896Y304278D01*
X259378Y303113D01*
X260722Y301362D01*
X262473Y300018D01*
X264512Y299174D01*
X266700Y298886D01*
X268888Y299174D01*
X270927Y300018D01*
X272678Y301362D01*
X274022Y303113D01*
X274866Y305152D01*
X275154Y307340D01*
X274866Y309528D01*
X274022Y311567D01*
X272678Y313318D01*
X270927Y314662D01*
X270326Y314911D01*
Y345440D01*
X270050Y346828D01*
X269735Y347299D01*
X269264Y348004D01*
X269264Y348004D01*
X262914Y354354D01*
X261737Y355140D01*
X260350Y355416D01*
D02*
G37*
G36*
X342900Y403860D02*
X322580D01*
Y400050D01*
X325401Y397229D01*
X324915Y396056D01*
X315165D01*
X314679Y397229D01*
X317500Y400050D01*
Y403860D01*
X297180D01*
Y400050D01*
X300001Y397229D01*
X299515Y396056D01*
X289765D01*
X289279Y397229D01*
X292100Y400050D01*
Y403860D01*
X271780D01*
Y400050D01*
X274601Y397229D01*
X274115Y396056D01*
X264365D01*
X263879Y397229D01*
X266700Y400050D01*
Y403860D01*
X246380D01*
Y400050D01*
X249201Y397229D01*
X248715Y396056D01*
X243840D01*
X243840Y396056D01*
X242453Y395780D01*
X241276Y394994D01*
X241276Y394994D01*
X235665Y389382D01*
X226314D01*
X221488Y384556D01*
Y374904D01*
X226314Y370078D01*
X235966D01*
X240792Y374904D01*
Y384254D01*
X245342Y388804D01*
X249477D01*
X249963Y387631D01*
X246888Y384556D01*
Y374904D01*
X251714Y370078D01*
X261366D01*
X266192Y374904D01*
Y384556D01*
X263117Y387631D01*
X263603Y388804D01*
X274877D01*
X275363Y387631D01*
X272288Y384556D01*
Y374904D01*
X277114Y370078D01*
X286766D01*
X291592Y374904D01*
Y384556D01*
X288517Y387631D01*
X289003Y388804D01*
X300277D01*
X300763Y387631D01*
X297688Y384556D01*
Y374904D01*
X302514Y370078D01*
X303714D01*
Y336782D01*
X284456Y317524D01*
X283670Y316348D01*
X283394Y314960D01*
X283394Y314960D01*
Y282172D01*
X272564Y271342D01*
X211896D01*
Y276098D01*
X204877D01*
X204391Y277271D01*
X208726Y281606D01*
X213624D01*
X213658Y281523D01*
X215002Y279772D01*
X216753Y278428D01*
X218792Y277584D01*
X220980Y277296D01*
X223168Y277584D01*
X225207Y278428D01*
X226958Y279772D01*
X228302Y281523D01*
X229146Y283562D01*
X229434Y285750D01*
X229146Y287938D01*
X228302Y289977D01*
X226958Y291728D01*
X225207Y293072D01*
X223168Y293916D01*
X220980Y294204D01*
X218792Y293916D01*
X216753Y293072D01*
X215002Y291728D01*
X213658Y289977D01*
X213624Y289894D01*
X207010D01*
X206557Y289804D01*
X205931Y290974D01*
X213592Y298634D01*
X229919D01*
X230168Y298033D01*
X231512Y296282D01*
X233263Y294938D01*
X235302Y294094D01*
X237490Y293806D01*
X239678Y294094D01*
X241717Y294938D01*
X243468Y296282D01*
X244812Y298033D01*
X245656Y300072D01*
X245944Y302260D01*
X245656Y304448D01*
X244812Y306487D01*
X243468Y308238D01*
X241717Y309582D01*
X239678Y310426D01*
X237490Y310714D01*
X235302Y310426D01*
X233263Y309582D01*
X231512Y308238D01*
X230168Y306487D01*
X229919Y305886D01*
X212090D01*
X212090Y305886D01*
X210702Y305610D01*
X210231Y305295D01*
X209526Y304824D01*
X209526Y304824D01*
X188506Y283804D01*
X188484Y283770D01*
X187214Y284155D01*
Y293108D01*
X188169Y293945D01*
X189230Y293806D01*
X191418Y294094D01*
X193457Y294938D01*
X195208Y296282D01*
X196552Y298033D01*
X197396Y300072D01*
X197684Y302260D01*
X197396Y304448D01*
X196552Y306487D01*
X195208Y308238D01*
X193457Y309582D01*
X191418Y310426D01*
X189230Y310714D01*
X187042Y310426D01*
X185003Y309582D01*
X183252Y308238D01*
X181908Y306487D01*
X181064Y304448D01*
X180776Y302260D01*
X181064Y300072D01*
X181098Y299988D01*
X180140Y299030D01*
X179242Y297686D01*
X178926Y296100D01*
Y276606D01*
X176276D01*
Y267716D01*
Y258826D01*
X180340D01*
Y259334D01*
X211896D01*
Y264090D01*
X274066D01*
X274066Y264090D01*
X275453Y264366D01*
X276630Y265152D01*
X288474Y276997D01*
X289744Y276471D01*
Y270742D01*
X275612Y256610D01*
X230378D01*
Y257810D01*
X213614D01*
Y248158D01*
Y240030D01*
Y232156D01*
Y224028D01*
Y215964D01*
Y207964D01*
Y199964D01*
Y191964D01*
X224548D01*
X237627Y178886D01*
X237101Y177616D01*
X215630D01*
X211896Y181350D01*
Y190246D01*
X195214D01*
Y196150D01*
X194898Y197736D01*
X194768Y197931D01*
X199778Y202941D01*
X199796Y202968D01*
X201077Y203498D01*
X202828Y204842D01*
X204172Y206593D01*
X205016Y208632D01*
X205304Y210820D01*
X205016Y213008D01*
X204172Y215047D01*
X202828Y216798D01*
X201077Y218142D01*
X199038Y218986D01*
X196850Y219274D01*
X194662Y218986D01*
X192623Y218142D01*
X190872Y216798D01*
X189528Y215047D01*
X188684Y213008D01*
X188396Y210820D01*
X188684Y208632D01*
X189528Y206593D01*
X190478Y205355D01*
X187386Y202264D01*
X180539D01*
X180256Y203534D01*
X181817Y205568D01*
X182866Y208101D01*
X182956Y208788D01*
X162484D01*
X162574Y208101D01*
X163149Y206713D01*
X163050Y206564D01*
X162734Y204978D01*
Y190754D01*
X161544D01*
Y190246D01*
X146050D01*
Y173482D01*
X147250D01*
Y163808D01*
X139950Y156507D01*
X139348Y156756D01*
X137160Y157044D01*
X134972Y156756D01*
X132933Y155912D01*
X131182Y154568D01*
X129838Y152817D01*
X128994Y150778D01*
X128706Y148590D01*
X128994Y146402D01*
X129838Y144363D01*
X131182Y142612D01*
X132933Y141268D01*
X134972Y140424D01*
X137160Y140136D01*
X139348Y140424D01*
X141387Y141268D01*
X143138Y142612D01*
X144482Y144363D01*
X145326Y146402D01*
X145614Y148590D01*
X145326Y150778D01*
X145077Y151380D01*
X153440Y159742D01*
X153440Y159742D01*
X153911Y160447D01*
X154108Y160743D01*
X154822Y160718D01*
X155378Y160532D01*
Y144836D01*
X154523Y144482D01*
X152772Y143138D01*
X151428Y141387D01*
X150584Y139348D01*
X150296Y137160D01*
X150584Y134972D01*
X151428Y132933D01*
X152772Y131182D01*
X154523Y129838D01*
X156562Y128994D01*
X158750Y128706D01*
X160938Y128994D01*
X162977Y129838D01*
X164728Y131182D01*
X166072Y132933D01*
X166916Y134972D01*
X167204Y137160D01*
X166916Y139348D01*
X166072Y141387D01*
X164728Y143138D01*
X162977Y144482D01*
X162630Y144626D01*
Y172974D01*
X165608D01*
Y181864D01*
X168148D01*
Y172974D01*
X170862D01*
Y156464D01*
X171178Y154878D01*
X172076Y153534D01*
X202866Y122744D01*
Y119736D01*
X196977D01*
Y102464D01*
X217043D01*
Y119736D01*
X211154D01*
Y124460D01*
X210838Y126046D01*
X209940Y127390D01*
X179150Y158180D01*
Y172974D01*
X181800D01*
Y181864D01*
X184340D01*
Y172974D01*
X188404D01*
Y173482D01*
X195444D01*
Y150180D01*
X195444Y150180D01*
X195720Y148792D01*
X196506Y147616D01*
X228576Y115546D01*
X228576Y115546D01*
X229281Y115075D01*
X229753Y114760D01*
X231140Y114484D01*
X231189D01*
X231438Y113883D01*
X232782Y112132D01*
X234533Y110788D01*
X236572Y109944D01*
X238760Y109656D01*
X240948Y109944D01*
X242987Y110788D01*
X244738Y112132D01*
X246082Y113883D01*
X246926Y115922D01*
X247214Y118110D01*
X246926Y120298D01*
X246082Y122337D01*
X244738Y124088D01*
X242987Y125432D01*
X240948Y126276D01*
X238760Y126564D01*
X236572Y126276D01*
X234533Y125432D01*
X232782Y124088D01*
X232286Y123442D01*
X231019Y123359D01*
X202696Y151682D01*
Y173482D01*
X209509D01*
X211564Y171426D01*
X211564Y171426D01*
X212741Y170640D01*
X214128Y170364D01*
X305838D01*
X307359Y168843D01*
X308067Y167906D01*
X308067D01*
X308067Y167906D01*
Y143522D01*
X318735D01*
Y167906D01*
X317263D01*
X317040Y169028D01*
X316725Y169499D01*
X316254Y170204D01*
X316254Y170204D01*
X311013Y175444D01*
X311539Y176714D01*
X313458D01*
X321143Y169030D01*
X320767Y167906D01*
X320767D01*
X320767Y167906D01*
Y143522D01*
X331435D01*
Y167906D01*
X329727D01*
Y169199D01*
X329451Y170587D01*
X329136Y171058D01*
X328665Y171763D01*
X328665Y171763D01*
X319323Y181105D01*
X319762Y182461D01*
X320321Y182551D01*
X333843Y169030D01*
X333467Y167906D01*
X333467D01*
X333467Y167906D01*
Y143522D01*
X344135D01*
Y167906D01*
X342427D01*
Y169199D01*
X342427Y169199D01*
X342151Y170586D01*
X341365Y171763D01*
X341365Y171763D01*
X323874Y189254D01*
X323149Y189738D01*
X323534Y191008D01*
X323596D01*
X328422Y195834D01*
Y205486D01*
X325347Y208561D01*
X325833Y209734D01*
X328698D01*
X334518Y203915D01*
Y195834D01*
X339344Y191008D01*
X348996D01*
X353822Y195834D01*
Y205486D01*
X348996Y210312D01*
X339344D01*
X338376D01*
X332764Y215924D01*
X331587Y216710D01*
X330200Y216986D01*
X330200Y216986D01*
X325833D01*
X325347Y218159D01*
X328422Y221234D01*
Y230886D01*
X325347Y233961D01*
X325833Y235134D01*
X329968D01*
X334518Y230585D01*
Y221234D01*
X339344Y216408D01*
X348996D01*
X353822Y221234D01*
Y230886D01*
X348996Y235712D01*
X339646D01*
X334034Y241324D01*
X332858Y242110D01*
X331470Y242386D01*
X331470Y242386D01*
X325833D01*
X325347Y243559D01*
X328422Y246634D01*
Y256286D01*
X323596Y261112D01*
X313944D01*
X309118Y256286D01*
Y246634D01*
X312193Y243559D01*
X311707Y242386D01*
X306070D01*
X306070Y242386D01*
X304683Y242110D01*
X303506Y241324D01*
X302790Y240608D01*
X282745D01*
X282359Y241878D01*
X282980Y242292D01*
X302284Y261596D01*
X302284Y261596D01*
X302755Y262301D01*
X303070Y262773D01*
X303346Y264160D01*
Y308378D01*
X351814Y356846D01*
X351814Y356846D01*
X352285Y357551D01*
X352600Y358022D01*
X352876Y359410D01*
Y388620D01*
X352876Y388620D01*
X352600Y390008D01*
X351814Y391184D01*
X348004Y394994D01*
X346828Y395780D01*
X345440Y396056D01*
X345440Y396056D01*
X340565D01*
X340079Y397229D01*
X342900Y400050D01*
Y403860D01*
D02*
G37*
G36*
X261620Y415290D02*
X257810D01*
Y406400D01*
X266700D01*
Y410210D01*
X261620Y415290D01*
D02*
G37*
G36*
X255270D02*
X251460D01*
X246380Y410210D01*
Y406400D01*
X255270D01*
Y415290D01*
D02*
G37*
G36*
X47625Y418592D02*
X23495D01*
Y376428D01*
X47625D01*
Y391295D01*
X86745D01*
Y387858D01*
X110875D01*
Y391295D01*
X114265D01*
X120785Y384776D01*
Y372110D01*
X121179Y370126D01*
X121258Y369731D01*
X122605Y367715D01*
X126465Y363855D01*
X122605Y359995D01*
X121258Y357979D01*
X121179Y357584D01*
X120785Y355600D01*
Y293370D01*
X121179Y291386D01*
X121258Y290991D01*
X122605Y288975D01*
X128757Y282824D01*
X128994Y281022D01*
X129838Y278983D01*
X131182Y277232D01*
X132933Y275888D01*
X134972Y275044D01*
X137160Y274756D01*
X139348Y275044D01*
X141387Y275888D01*
X143138Y277232D01*
X144482Y278983D01*
X145326Y281022D01*
X145614Y283210D01*
X145326Y285398D01*
X144482Y287437D01*
X143138Y289188D01*
X141387Y290532D01*
X139348Y291376D01*
X137547Y291614D01*
X133215Y295944D01*
Y353026D01*
X138464Y358275D01*
X142875D01*
Y345440D01*
X172085D01*
Y384556D01*
X163695D01*
Y389301D01*
X164802Y390743D01*
X165646Y392782D01*
X165934Y394970D01*
X165646Y397158D01*
X164802Y399197D01*
X163458Y400948D01*
X161707Y402292D01*
X159668Y403136D01*
X157480Y403424D01*
X155292Y403136D01*
X153253Y402292D01*
X151502Y400948D01*
X150158Y399197D01*
X149314Y397158D01*
X149026Y394970D01*
X149314Y392782D01*
X150158Y390743D01*
X151265Y389301D01*
Y384556D01*
X142875D01*
Y370705D01*
X137194D01*
X133215Y374684D01*
Y387350D01*
X132742Y389729D01*
X132295Y390398D01*
X131395Y391745D01*
X121235Y401905D01*
X119219Y403252D01*
X118824Y403331D01*
X116840Y403725D01*
X110875D01*
Y407162D01*
X86745D01*
Y403725D01*
X47625D01*
Y418592D01*
D02*
G37*
G36*
X73736Y334518D02*
X65532D01*
Y326314D01*
X66219Y326404D01*
X68752Y327453D01*
X70927Y329123D01*
X72597Y331298D01*
X73646Y333831D01*
X73736Y334518D01*
D02*
G37*
G36*
X61468D02*
X53264D01*
X53354Y333831D01*
X54403Y331298D01*
X56073Y329123D01*
X58248Y327453D01*
X60781Y326404D01*
X61468Y326314D01*
Y334518D01*
D02*
G37*
G36*
X110875Y384162D02*
X86745D01*
Y364858D01*
X94666D01*
Y354316D01*
X94583Y354282D01*
X92832Y352938D01*
X91488Y351187D01*
X90644Y349148D01*
X90356Y346960D01*
X90644Y344772D01*
X91488Y342733D01*
X92832Y340982D01*
X94583Y339638D01*
X96622Y338794D01*
X98810Y338506D01*
X100998Y338794D01*
X103037Y339638D01*
X104788Y340982D01*
X106132Y342733D01*
X106976Y344772D01*
X107264Y346960D01*
X106976Y349148D01*
X106132Y351187D01*
X104788Y352938D01*
X103037Y354282D01*
X102954Y354316D01*
Y364858D01*
X110875D01*
Y384162D01*
D02*
G37*
G36*
X65532Y346786D02*
Y338582D01*
X73736D01*
X73646Y339269D01*
X72597Y341802D01*
X70927Y343977D01*
X68752Y345647D01*
X66219Y346696D01*
X65532Y346786D01*
D02*
G37*
G36*
X61468D02*
X60781Y346696D01*
X58248Y345647D01*
X56073Y343977D01*
X54403Y341802D01*
X53354Y339269D01*
X53264Y338582D01*
X61468D01*
Y346786D01*
D02*
G37*
G36*
X172593Y428740D02*
X158750D01*
Y409944D01*
X172593D01*
Y428740D01*
D02*
G37*
G36*
X156210D02*
X142367D01*
Y409944D01*
X156210D01*
Y428740D01*
D02*
G37*
G36*
X69850Y441825D02*
X26670D01*
X24686Y441431D01*
X24291Y441352D01*
X22275Y440005D01*
X10845Y428575D01*
X9498Y426559D01*
X9419Y426164D01*
X9025Y424180D01*
Y325755D01*
X8890D01*
Y296545D01*
X9025D01*
Y250190D01*
X9419Y248206D01*
X9498Y247811D01*
X10845Y245795D01*
X20794Y235846D01*
X21076Y233700D01*
X22049Y231352D01*
X23596Y229336D01*
X25612Y227789D01*
X27960Y226816D01*
X30480Y226485D01*
X45720D01*
X48240Y226816D01*
X50588Y227789D01*
X52604Y229336D01*
X53117Y230005D01*
X61874D01*
Y222377D01*
X79146D01*
Y242443D01*
X74654D01*
Y247777D01*
X79146D01*
Y267843D01*
X61874D01*
Y247777D01*
X66366D01*
Y242443D01*
X61874D01*
Y242435D01*
X53117D01*
X52604Y243104D01*
X50588Y244651D01*
X48240Y245624D01*
X45720Y245955D01*
X30480D01*
X28522Y245698D01*
X21455Y252764D01*
Y296545D01*
X48006D01*
Y325755D01*
X21455D01*
Y421605D01*
X29244Y429395D01*
X67276D01*
X80441Y416229D01*
X82457Y414882D01*
X82852Y414803D01*
X84836Y414409D01*
X86745D01*
Y410972D01*
X110875D01*
Y416226D01*
X118374D01*
X118408Y416143D01*
X119752Y414392D01*
X121503Y413048D01*
X123542Y412204D01*
X125730Y411916D01*
X127918Y412204D01*
X129957Y413048D01*
X131708Y414392D01*
X133052Y416143D01*
X133896Y418182D01*
X134184Y420370D01*
X133896Y422558D01*
X133052Y424597D01*
X131708Y426348D01*
X129957Y427692D01*
X127918Y428536D01*
X125730Y428824D01*
X123542Y428536D01*
X121503Y427692D01*
X119752Y426348D01*
X118408Y424597D01*
X118374Y424514D01*
X110875D01*
Y430276D01*
X86745D01*
Y429164D01*
X85572Y428678D01*
X74245Y440005D01*
X72229Y441352D01*
X71834Y441431D01*
X69850Y441825D01*
D02*
G37*
G36*
X172593Y450076D02*
X158750D01*
Y431280D01*
X172593D01*
Y450076D01*
D02*
G37*
G36*
X156210D02*
X142367D01*
Y431280D01*
X156210D01*
Y450076D01*
D02*
G37*
G36*
X337820Y415290D02*
X334010D01*
Y406400D01*
X342900D01*
Y410210D01*
X337820Y415290D01*
D02*
G37*
G36*
X287020D02*
X283210D01*
Y406400D01*
X292100D01*
Y410210D01*
X287020Y415290D01*
D02*
G37*
G36*
X280670D02*
X276860D01*
X271780Y410210D01*
Y406400D01*
X280670D01*
Y415290D01*
D02*
G37*
G36*
X306070D02*
X302260D01*
X297180Y410210D01*
Y406400D01*
X306070D01*
Y415290D01*
D02*
G37*
G36*
X331470D02*
X327660D01*
X322580Y410210D01*
Y406400D01*
X331470D01*
Y415290D01*
D02*
G37*
G36*
X312420D02*
X308610D01*
Y406400D01*
X317500D01*
Y410210D01*
X312420Y415290D01*
D02*
G37*
G36*
X113526Y326263D02*
X94730D01*
Y312420D01*
X113526D01*
Y326263D01*
D02*
G37*
G36*
X348996Y261112D02*
X339344D01*
X334518Y256286D01*
Y246634D01*
X339344Y241808D01*
X348996D01*
X353822Y246634D01*
Y256286D01*
X348996Y261112D01*
D02*
G37*
G36*
X144526Y257810D02*
X127762D01*
Y248158D01*
Y240030D01*
Y232480D01*
X122660D01*
X119888Y235252D01*
Y246380D01*
X103632D01*
Y230124D01*
X114761D01*
X118594Y226290D01*
X119498Y225687D01*
X119224Y224417D01*
X111570D01*
X110182Y224141D01*
X109611Y223759D01*
X108868Y224066D01*
X106680Y224354D01*
X104492Y224066D01*
X102453Y223222D01*
X100702Y221878D01*
X99358Y220127D01*
X98514Y218088D01*
X98226Y215900D01*
X98514Y213712D01*
X99358Y211673D01*
X100702Y209922D01*
X102453Y208578D01*
X104492Y207734D01*
X106680Y207446D01*
X108868Y207734D01*
X110907Y208578D01*
X111534Y207532D01*
X98329Y194327D01*
X97796Y194790D01*
X97577Y194980D01*
X97493Y195053D01*
X97442Y195098D01*
X97368Y196070D01*
X97368Y196305D01*
Y196339D01*
Y196339D01*
Y211328D01*
X92866D01*
Y222377D01*
X98298D01*
Y242443D01*
X81026D01*
Y222377D01*
X85614D01*
Y211328D01*
X81112D01*
Y195072D01*
X96101D01*
X96101D01*
X96135D01*
X96370Y195072D01*
X97343Y194998D01*
X97387Y194947D01*
X97460Y194863D01*
X97650Y194644D01*
X98113Y194111D01*
X92686Y188684D01*
X91900Y187507D01*
X91624Y186120D01*
X91624Y186120D01*
Y184101D01*
X91023Y183852D01*
X89272Y182508D01*
X87928Y180757D01*
X87084Y178718D01*
X86796Y176530D01*
X87084Y174342D01*
X87928Y172303D01*
X89272Y170552D01*
X91023Y169208D01*
X93062Y168364D01*
X95250Y168076D01*
X97438Y168364D01*
X99477Y169208D01*
X101228Y170552D01*
X102572Y172303D01*
X103416Y174342D01*
X103704Y176530D01*
X103416Y178718D01*
X102572Y180757D01*
X101228Y182508D01*
X99692Y183687D01*
X99480Y184580D01*
X99482Y185224D01*
X122778Y208521D01*
X122901Y208490D01*
X123109Y208086D01*
X123231Y207098D01*
X114276Y198144D01*
X113490Y196968D01*
X113214Y195580D01*
X113214Y195580D01*
Y184101D01*
X112613Y183852D01*
X110862Y182508D01*
X109518Y180757D01*
X108674Y178718D01*
X108386Y176530D01*
X108674Y174342D01*
X109518Y172303D01*
X110862Y170552D01*
X112613Y169208D01*
X114652Y168364D01*
X116840Y168076D01*
X119028Y168364D01*
X121067Y169208D01*
X122818Y170552D01*
X124162Y172303D01*
X125006Y174342D01*
X125294Y176530D01*
X125006Y178718D01*
X124162Y180757D01*
X122818Y182508D01*
X121067Y183852D01*
X120466Y184101D01*
Y194078D01*
X126492Y200105D01*
X126852Y200065D01*
X127762Y199578D01*
Y191964D01*
X132458D01*
Y173146D01*
X117878Y158566D01*
X76432D01*
X71698Y163300D01*
Y195072D01*
X76200D01*
Y211328D01*
X59944D01*
Y195072D01*
X64446D01*
Y161798D01*
X64446Y161798D01*
X64722Y160410D01*
X65508Y159234D01*
X72366Y152376D01*
X72366Y152376D01*
X73542Y151590D01*
X74930Y151314D01*
X74930Y151314D01*
X119380D01*
X119380Y151314D01*
X120767Y151590D01*
X121944Y152376D01*
X138648Y169080D01*
X138648Y169080D01*
X139434Y170257D01*
X139710Y171644D01*
X139710Y171644D01*
Y191964D01*
X144526D01*
Y199964D01*
Y207964D01*
Y215964D01*
Y224028D01*
Y232156D01*
Y240030D01*
Y248158D01*
Y257810D01*
D02*
G37*
G36*
X98298Y267843D02*
X81026D01*
Y247777D01*
X98298D01*
Y253666D01*
X103632D01*
Y251292D01*
X119888D01*
Y267548D01*
X103632D01*
Y261954D01*
X98298D01*
Y267843D01*
D02*
G37*
G36*
X348996Y286512D02*
X339344D01*
X334518Y281686D01*
Y272034D01*
X339344Y267208D01*
X348996D01*
X353822Y272034D01*
Y281686D01*
X348996Y286512D01*
D02*
G37*
G36*
X323596D02*
X313944D01*
X309118Y281686D01*
Y272034D01*
X313944Y267208D01*
X323596D01*
X328422Y272034D01*
Y281686D01*
X323596Y286512D01*
D02*
G37*
G36*
X36830Y221068D02*
X30480D01*
X27828Y220718D01*
X25356Y219695D01*
X23234Y218066D01*
X21605Y215944D01*
X20582Y213472D01*
X20399Y212090D01*
X36830D01*
Y221068D01*
D02*
G37*
G36*
X55800Y209550D02*
X39370D01*
Y200572D01*
X45720D01*
X48372Y200921D01*
X50844Y201945D01*
X52966Y203574D01*
X54595Y205696D01*
X55619Y208168D01*
X55800Y209550D01*
D02*
G37*
G36*
X45720Y221068D02*
X39370D01*
Y212090D01*
X55800D01*
X55619Y213472D01*
X54595Y215944D01*
X52966Y218066D01*
X50844Y219695D01*
X48372Y220718D01*
X45720Y221068D01*
D02*
G37*
G36*
X174752Y221056D02*
Y212852D01*
X182956D01*
X182866Y213539D01*
X181817Y216072D01*
X180147Y218247D01*
X177972Y219917D01*
X175439Y220966D01*
X174752Y221056D01*
D02*
G37*
G36*
X170688D02*
X170001Y220966D01*
X167468Y219917D01*
X165293Y218247D01*
X163623Y216072D01*
X162574Y213539D01*
X162484Y212852D01*
X170688D01*
Y221056D01*
D02*
G37*
G36*
X342900Y300990D02*
X334010D01*
Y297180D01*
X339090Y292100D01*
X342900D01*
Y300990D01*
D02*
G37*
G36*
Y312420D02*
X339090D01*
X334010Y307340D01*
Y303530D01*
X342900D01*
Y312420D01*
D02*
G37*
G36*
X113526Y309880D02*
X94730D01*
Y296037D01*
X113526D01*
Y309880D01*
D02*
G37*
G36*
X92190Y326263D02*
X73394D01*
Y312420D01*
X92190D01*
Y326263D01*
D02*
G37*
G36*
X349250Y312420D02*
X345440D01*
Y303530D01*
X354330D01*
Y307340D01*
X349250Y312420D01*
D02*
G37*
G36*
X354330Y300990D02*
X345440D01*
Y292100D01*
X349250D01*
X354330Y297180D01*
Y300990D01*
D02*
G37*
G36*
X323596Y311912D02*
X313944D01*
X309118Y307086D01*
Y297434D01*
X313944Y292608D01*
X323596D01*
X328422Y297434D01*
Y307086D01*
X323596Y311912D01*
D02*
G37*
G36*
X92190Y309880D02*
X73394D01*
Y296037D01*
X92190D01*
Y309880D01*
D02*
G37*
%LPD*%
G36*
X245086Y210796D02*
X245086Y210796D01*
X246262Y210010D01*
X247650Y209734D01*
X247650Y209734D01*
X311707D01*
X312193Y208561D01*
X309118Y205486D01*
Y204286D01*
X249152D01*
X238084Y215354D01*
X237682Y215622D01*
X238018Y216925D01*
X238852Y217030D01*
X245086Y210796D01*
D02*
G37*
G36*
Y198096D02*
X245086Y198096D01*
X245791Y197625D01*
X246262Y197310D01*
X247650Y197034D01*
X309118D01*
Y195834D01*
X313366Y191586D01*
X312840Y190316D01*
X250422D01*
X233384Y207354D01*
X232983Y207622D01*
X233318Y208925D01*
X234152Y209030D01*
X245086Y198096D01*
D02*
G37*
G36*
X263074Y343938D02*
Y314911D01*
X262473Y314662D01*
X260722Y313318D01*
X259378Y311567D01*
X258896Y310402D01*
X257626Y310655D01*
Y336550D01*
X257626Y336550D01*
X257350Y337938D01*
X256564Y339114D01*
X256564Y339114D01*
X248944Y346734D01*
X248703Y346894D01*
X249089Y348164D01*
X258848D01*
X263074Y343938D01*
D02*
G37*
G36*
X309118Y221234D02*
X312193Y218159D01*
X311707Y216986D01*
X249152D01*
X242784Y223354D01*
X241879Y223958D01*
X242149Y225228D01*
X309118D01*
Y221234D01*
D02*
G37*
G36*
X345624Y387118D02*
Y360912D01*
X337636Y352923D01*
X336366Y353449D01*
Y370078D01*
X337566D01*
X342392Y374904D01*
Y384556D01*
X339317Y387631D01*
X339803Y388804D01*
X343938D01*
X345624Y387118D01*
D02*
G37*
G36*
X326163Y387631D02*
X323088Y384556D01*
Y374904D01*
X327914Y370078D01*
X329114D01*
Y353292D01*
X312236Y336413D01*
X310966Y336939D01*
Y370078D01*
X312166D01*
X316992Y374904D01*
Y384556D01*
X313917Y387631D01*
X314403Y388804D01*
X325677D01*
X326163Y387631D01*
D02*
G37*
D10*
X207010Y91948D02*
D03*
Y111100D02*
D03*
D11*
X35560Y397510D02*
D03*
D12*
X98810Y420624D02*
D03*
Y397510D02*
D03*
Y374510D02*
D03*
D13*
X111760Y259420D02*
D03*
Y238252D02*
D03*
D14*
X338801Y155714D02*
D03*
Y94246D02*
D03*
X326101Y155714D02*
D03*
X313401D02*
D03*
X326101Y94246D02*
D03*
X313401D02*
D03*
X300701Y155714D02*
D03*
Y94246D02*
D03*
X280381Y155714D02*
D03*
Y94246D02*
D03*
X267681Y155714D02*
D03*
X254981D02*
D03*
X267681Y94246D02*
D03*
X254981D02*
D03*
X242281Y155714D02*
D03*
Y94246D02*
D03*
D15*
X93472Y109220D02*
D03*
X28460D02*
D03*
X28448Y311150D02*
D03*
X93460D02*
D03*
D16*
X89240Y203200D02*
D03*
X68072D02*
D03*
D17*
X89662Y232410D02*
D03*
X70510D02*
D03*
X89662Y257810D02*
D03*
X70510D02*
D03*
D18*
X157480Y364998D02*
D03*
Y430010D02*
D03*
D19*
X136144Y196790D02*
D03*
Y204790D02*
D03*
Y212790D02*
D03*
Y220790D02*
D03*
Y228854D02*
D03*
Y236982D02*
D03*
Y244856D02*
D03*
Y252984D02*
D03*
X221996D02*
D03*
Y244856D02*
D03*
Y236982D02*
D03*
Y228854D02*
D03*
Y220790D02*
D03*
Y212790D02*
D03*
Y204790D02*
D03*
Y196790D02*
D03*
D20*
X150876Y267716D02*
D03*
X159004D02*
D03*
X166878D02*
D03*
X175006D02*
D03*
X183070D02*
D03*
X191070D02*
D03*
X199070D02*
D03*
X207070D02*
D03*
Y181864D02*
D03*
X199070D02*
D03*
X191070D02*
D03*
X183070D02*
D03*
X175006D02*
D03*
X166878D02*
D03*
X159004D02*
D03*
X150876D02*
D03*
D21*
X189100Y198120D02*
X196850Y205870D01*
Y210820D01*
D22*
X166878Y204978D02*
X172720Y210820D01*
X166878Y181864D02*
Y204978D01*
X189100Y198120D02*
X191070Y196150D01*
Y181864D02*
Y196150D01*
X175006Y195834D02*
X177292Y198120D01*
X175006Y181864D02*
Y195834D01*
X177292Y198120D02*
X189100D01*
X183070Y296100D02*
X189230Y302260D01*
X183070Y267716D02*
Y296100D01*
X199070Y277810D02*
X207010Y285750D01*
X199070Y267716D02*
Y277810D01*
X207010Y285750D02*
X220980D01*
X207010Y111100D02*
Y124460D01*
X175006Y156464D02*
X207010Y124460D01*
X175006Y156464D02*
Y181864D01*
X98810Y346960D02*
Y374510D01*
X339090Y72390D02*
Y93957D01*
X338801Y94246D02*
X339090Y93957D01*
X280670Y72390D02*
Y93957D01*
X280381Y94246D02*
X280670Y93957D01*
X89662Y257810D02*
X110150D01*
X70510Y232410D02*
Y257810D01*
X326101Y80530D02*
Y94246D01*
X254981Y79721D02*
Y94246D01*
X257810Y25400D02*
Y39370D01*
X283210Y37639D02*
X326101Y80530D01*
X207010Y25400D02*
Y31750D01*
X254981Y79721D01*
X283210Y25400D02*
Y37639D01*
X257810Y39370D02*
X273050Y54610D01*
X285750D01*
X313401Y82261D01*
Y94246D01*
X232410Y25400D02*
Y43180D01*
X267681Y78451D01*
Y94246D01*
X207010Y63500D02*
Y91948D01*
X183070Y178054D02*
Y181864D01*
X99064Y420370D02*
X125730D01*
D23*
X191070Y281240D02*
X212090Y302260D01*
X191070Y267716D02*
Y281240D01*
X212090Y302260D02*
X237490D01*
X254000Y298450D02*
Y336550D01*
X246380Y344170D02*
X254000Y336550D01*
X194310Y344170D02*
X246380D01*
X174688Y324548D02*
X194310Y344170D01*
X174688Y302959D02*
Y324548D01*
X166878Y295148D02*
X174688Y302959D01*
X166878Y267716D02*
Y295148D01*
X191770Y351790D02*
X260350D01*
X168148Y328168D02*
X191770Y351790D01*
X168148Y306578D02*
Y328168D01*
X266700Y307340D02*
Y345440D01*
X260350Y351790D02*
X266700Y345440D01*
X159004Y297434D02*
X168148Y306578D01*
X159004Y267716D02*
Y297434D01*
X254000Y298450D02*
X266700Y285750D01*
X89240Y203200D02*
Y231988D01*
X68072Y161798D02*
Y203200D01*
X121920Y212790D02*
X136144D01*
X95250Y186120D02*
X121920Y212790D01*
X95250Y176530D02*
Y186120D01*
X116840Y195580D02*
X126050Y204790D01*
X116840Y176530D02*
Y195580D01*
X74930Y154940D02*
X119380D01*
X68072Y161798D02*
X74930Y154940D01*
X119380D02*
X136084Y171644D01*
X137160Y148590D02*
X150876Y162306D01*
Y181864D01*
Y267716D02*
Y310896D01*
X287020Y314960D02*
X307340Y335280D01*
X287020Y280670D02*
Y314960D01*
X274066Y267716D02*
X287020Y280670D01*
X293370Y312420D02*
X332740Y351790D01*
X293370Y269240D02*
Y312420D01*
X277114Y252984D02*
X293370Y269240D01*
X207070Y267716D02*
X274066D01*
X307340Y335280D02*
Y379730D01*
X332740Y351790D02*
Y379730D01*
X299720Y309880D02*
X349250Y359410D01*
X299720Y264160D02*
Y309880D01*
X349250Y359410D02*
Y388620D01*
X221996Y252984D02*
X277114D01*
X280416Y244856D02*
X299720Y264160D01*
X221996Y244856D02*
X280416D01*
X199070Y150180D02*
Y181864D01*
Y150180D02*
X231140Y118110D01*
X289560D02*
Y130810D01*
X280670Y139700D02*
X289560Y130810D01*
X280670Y139700D02*
Y155425D01*
X231140Y118110D02*
X238760D01*
X214128Y173990D02*
X307340D01*
X207070Y181048D02*
X214128Y173990D01*
X207070Y181048D02*
Y181864D01*
X226060Y147320D02*
Y151130D01*
Y147320D02*
X234950Y138430D01*
X267970Y132080D02*
Y155425D01*
X126050Y204790D02*
X136144D01*
X136084Y171644D02*
Y196850D01*
X111760Y238252D02*
X121158Y228854D01*
X136144D01*
X250190Y138430D02*
X254981Y143221D01*
Y155714D01*
X267681D02*
X267970Y155425D01*
X234950Y138430D02*
X250190D01*
X313690Y156003D02*
Y167640D01*
X326101Y155714D02*
Y169199D01*
X338801Y155714D02*
Y169199D01*
X221996Y228854D02*
X315976D01*
X318770Y226060D01*
X221996Y204790D02*
X230820D01*
X221996Y212790D02*
X235520D01*
X247650Y200660D01*
X318770D01*
X342900D02*
X344170D01*
X330200Y213360D02*
X342900Y200660D01*
X221996Y220790D02*
X240220D01*
X247650Y213360D01*
X330200D01*
X331470Y238760D02*
X344170Y226060D01*
X221996Y236982D02*
X304292D01*
X306070Y238760D01*
X331470D01*
X221996Y196790D02*
X224850D01*
X230820Y204790D02*
X248920Y186690D01*
X321310D01*
X338801Y169199D01*
X224850Y196790D02*
X241300Y180340D01*
X314960D01*
X326101Y169199D01*
X307340Y173990D02*
X313690Y167640D01*
X345440Y392430D02*
X349250Y388620D01*
X243840Y392430D02*
X345440D01*
X231140Y379730D02*
X243840Y392430D01*
X159004Y137414D02*
Y181864D01*
D24*
X106680Y215900D02*
X111570Y220790D01*
X136144D01*
D25*
X127000Y293370D02*
X137160Y283210D01*
X127000Y293370D02*
Y355600D01*
X157480Y364998D02*
Y394970D01*
X15240Y424180D02*
X26670Y435610D01*
X69850D01*
X84836Y420624D01*
X98810D01*
X93472Y109220D02*
X123190D01*
X156210Y76200D01*
Y63500D02*
Y76200D01*
X15240Y250190D02*
X29210Y236220D01*
X38100D01*
X15240Y250190D02*
Y424180D01*
X116840Y397510D02*
X127000Y387350D01*
Y372110D02*
Y387350D01*
Y372110D02*
X134620Y364490D01*
X156972D01*
X157480Y364998D01*
X38100Y160020D02*
Y185420D01*
Y160020D02*
X88900Y109220D01*
X93472D01*
X38100Y236220D02*
X66650D01*
X134620Y363220D02*
Y364490D01*
X127000Y355600D02*
X134620Y363220D01*
X98810Y397510D02*
X116840D01*
X35560D02*
X98810D01*
D26*
X0Y0D02*
Y459740D01*
X369570D01*
X370840Y461010D01*
Y0D02*
Y461010D01*
X0Y0D02*
X370840D01*
D27*
X40000Y40000D02*
D03*
X330000D02*
D03*
D28*
X318770Y302260D02*
D03*
Y276860D02*
D03*
Y251460D02*
D03*
Y226060D02*
D03*
Y200660D02*
D03*
X344170Y302260D02*
D03*
Y276860D02*
D03*
Y251460D02*
D03*
Y226060D02*
D03*
Y200660D02*
D03*
D29*
X207010Y63500D02*
D03*
X181610D02*
D03*
X156210D02*
D03*
X130810D02*
D03*
X207010Y25400D02*
D03*
X232410D02*
D03*
X257810D02*
D03*
X283210D02*
D03*
X87630D02*
D03*
X113030D02*
D03*
X138430D02*
D03*
X163830D02*
D03*
D30*
X38100Y236220D02*
D03*
Y210820D02*
D03*
Y185420D02*
D03*
D31*
X332740Y405130D02*
D03*
Y379730D02*
D03*
X307340Y405130D02*
D03*
Y379730D02*
D03*
X281940Y405130D02*
D03*
Y379730D02*
D03*
X256540Y405130D02*
D03*
Y379730D02*
D03*
X231140Y405130D02*
D03*
Y379730D02*
D03*
D32*
X196850Y210820D02*
D03*
X172720D02*
D03*
X189230Y302260D02*
D03*
X220980Y285750D02*
D03*
X237490Y302260D02*
D03*
X266700Y285750D02*
D03*
Y307340D02*
D03*
X106680Y215900D02*
D03*
X116840Y176530D02*
D03*
X95250D02*
D03*
X158750Y137160D02*
D03*
X137160Y148590D02*
D03*
X150876Y310896D02*
D03*
X137160Y283210D02*
D03*
X157480Y394970D02*
D03*
X98810Y346960D02*
D03*
X289560Y118110D02*
D03*
X238760D02*
D03*
X226060Y151130D02*
D03*
X267970Y132080D02*
D03*
X321310Y121920D02*
D03*
X339090Y72390D02*
D03*
X280670D02*
D03*
X125730Y420370D02*
D03*
X63500Y336550D02*
D03*
M02*
