%FSLAX44Y44*%
%MOMM*%
G71*
G01*
G75*
%ADD10R,1.6002X1.3208*%
%ADD11R,2.0066X3.8100*%
%ADD12R,2.0066X1.5240*%
%ADD13R,1.2192X1.2192*%
%ADD14R,0.6604X2.0320*%
%ADD15R,3.5052X2.5146*%
%ADD16R,1.2192X1.2192*%
%ADD17R,1.3208X1.6002*%
%ADD18R,2.5146X3.5052*%
%ADD19R,1.2700X0.5588*%
%ADD20R,0.5588X1.2700*%
%ADD21C,0.4060*%
%ADD22C,0.4064*%
%ADD23C,0.3048*%
%ADD24C,0.3050*%
%ADD25C,0.8128*%
%ADD26C,0.2540*%
%ADD27C,3.5560*%
G04:AMPARAMS|DCode=28|XSize=1.524mm|YSize=1.524mm|CornerRadius=0mm|HoleSize=0mm|Usage=FLASHONLY|Rotation=270.000|XOffset=0mm|YOffset=0mm|HoleType=Round|Shape=Octagon|*
%AMOCTAGOND28*
4,1,8,-0.3810,-0.7620,0.3810,-0.7620,0.7620,-0.3810,0.7620,0.3810,0.3810,0.7620,-0.3810,0.7620,-0.7620,0.3810,-0.7620,-0.3810,-0.3810,-0.7620,0.0*
%
%ADD28OCTAGOND28*%

%ADD29O,1.5240X3.0480*%
%ADD30O,3.0480X1.5240*%
G04:AMPARAMS|DCode=31|XSize=1.524mm|YSize=1.524mm|CornerRadius=0mm|HoleSize=0mm|Usage=FLASHONLY|Rotation=0.000|XOffset=0mm|YOffset=0mm|HoleType=Round|Shape=Octagon|*
%AMOCTAGOND31*
4,1,8,0.7620,-0.3810,0.7620,0.3810,0.3810,0.7620,-0.3810,0.7620,-0.7620,0.3810,-0.7620,-0.3810,-0.3810,-0.7620,0.3810,-0.7620,0.7620,-0.3810,0.0*
%
%ADD31OCTAGOND31*%

%ADD32C,1.2700*%
%ADD33R,1.2192X0.8128*%
%ADD34R,2.7432X2.1590*%
%ADD35R,1.0160X1.2192*%
%ADD36R,1.0160X1.5240*%
%ADD37R,0.8128X1.2192*%
%ADD38C,0.6096*%
%ADD39C,0.1524*%
%ADD40C,0.2032*%
%ADD41C,0.0000*%
%ADD42C,0.0508*%
%ADD43C,0.0648*%
%ADD44C,0.0518*%
%ADD45R,0.2016X0.2032*%
%ADD46R,1.2700X1.9050*%
%ADD47R,0.7620X1.7780*%
%ADD48R,1.2700X0.7620*%
%ADD49R,0.2032X0.2016*%
%ADD50R,2.0066X1.7272*%
%ADD51R,2.4130X4.2164*%
%ADD52R,2.4130X1.9304*%
%ADD53R,1.6256X1.6256*%
%ADD54R,1.0668X2.4384*%
%ADD55R,3.9116X2.9210*%
%ADD56R,1.6256X1.6256*%
%ADD57R,1.7272X2.0066*%
%ADD58R,2.9210X3.9116*%
%ADD59R,1.6764X0.9652*%
%ADD60R,0.9652X1.6764*%
%ADD61C,3.9624*%
%ADD62C,4.3688*%
G04:AMPARAMS|DCode=63|XSize=1.9304mm|YSize=1.9304mm|CornerRadius=0mm|HoleSize=0mm|Usage=FLASHONLY|Rotation=270.000|XOffset=0mm|YOffset=0mm|HoleType=Round|Shape=Octagon|*
%AMOCTAGOND63*
4,1,8,-0.4826,-0.9652,0.4826,-0.9652,0.9652,-0.4826,0.9652,0.4826,0.4826,0.9652,-0.4826,0.9652,-0.9652,0.4826,-0.9652,-0.4826,-0.4826,-0.9652,0.0*
%
%ADD63OCTAGOND63*%

%ADD64O,1.9304X3.4544*%
%ADD65O,3.4544X1.9304*%
G04:AMPARAMS|DCode=66|XSize=1.9304mm|YSize=1.9304mm|CornerRadius=0mm|HoleSize=0mm|Usage=FLASHONLY|Rotation=0.000|XOffset=0mm|YOffset=0mm|HoleType=Round|Shape=Octagon|*
%AMOCTAGOND66*
4,1,8,0.9652,-0.4826,0.9652,0.4826,0.4826,0.9652,-0.4826,0.9652,-0.9652,0.4826,-0.9652,-0.4826,-0.4826,-0.9652,0.4826,-0.9652,0.9652,-0.4826,0.0*
%
%ADD66OCTAGOND66*%

%ADD67C,1.6764*%
%ADD68R,1.6256X1.2192*%
%ADD69R,3.1496X2.5654*%
%ADD70R,1.4224X1.6256*%
%ADD71R,1.4224X1.9304*%
%ADD72R,1.2192X1.6256*%
%ADD73C,0.0762*%
%ADD74C,0.1270*%
%ADD75R,0.3024X0.7056*%
%ADD76C,0.1693*%
D26*
X0Y0D02*
Y459740D01*
X369570D01*
X370840Y461010D01*
Y0D02*
Y461010D01*
X0Y0D02*
X370840D01*
D74*
X23998Y40000D02*
X56002D01*
X40000Y23998D02*
Y56002D01*
X313998Y40000D02*
X346002D01*
X330000Y23998D02*
Y56002D01*
X313690Y302260D02*
X323850D01*
X318770Y297180D02*
Y307340D01*
X313690Y276860D02*
X323850D01*
X318770Y271780D02*
Y281940D01*
X313690Y251460D02*
X323850D01*
X318770Y246380D02*
Y256540D01*
X313690Y226060D02*
X323850D01*
X318770Y220980D02*
Y231140D01*
X313690Y200660D02*
X323850D01*
X318770Y195580D02*
Y205740D01*
X339090Y302260D02*
X349250D01*
X344170Y297180D02*
Y307340D01*
X339090Y276860D02*
X349250D01*
X344170Y271780D02*
Y281940D01*
X339090Y251460D02*
X349250D01*
X344170Y246380D02*
Y256540D01*
X339090Y226060D02*
X349250D01*
X344170Y220980D02*
Y231140D01*
X339090Y200660D02*
X349250D01*
X344170Y195580D02*
Y205740D01*
X201930Y63500D02*
X212090D01*
X207010Y58420D02*
Y68580D01*
X176530Y63500D02*
X186690D01*
X181610Y58420D02*
Y68580D01*
X151130Y63500D02*
X161290D01*
X156210Y58420D02*
Y68580D01*
X125730Y63500D02*
X135890D01*
X130810Y58420D02*
Y68580D01*
X201930Y25400D02*
X212090D01*
X207010Y20320D02*
Y30480D01*
X227330Y25400D02*
X237490D01*
X232410Y20320D02*
Y30480D01*
X252730Y25400D02*
X262890D01*
X257810Y20320D02*
Y30480D01*
X278130Y25400D02*
X288290D01*
X283210Y20320D02*
Y30480D01*
X82550Y25400D02*
X92710D01*
X87630Y20320D02*
Y30480D01*
X107950Y25400D02*
X118110D01*
X113030Y20320D02*
Y30480D01*
X133350Y25400D02*
X143510D01*
X138430Y20320D02*
Y30480D01*
X158750Y25400D02*
X168910D01*
X163830Y20320D02*
Y30480D01*
X33020Y236220D02*
X43180D01*
X38100Y231140D02*
Y241300D01*
X33020Y210820D02*
X43180D01*
X38100Y205740D02*
Y215900D01*
X33020Y185420D02*
X43180D01*
X38100Y180340D02*
Y190500D01*
X327660Y405130D02*
X337820D01*
X332740Y400050D02*
Y410210D01*
X327660Y379730D02*
X337820D01*
X332740Y374650D02*
Y384810D01*
X302260Y405130D02*
X312420D01*
X307340Y400050D02*
Y410210D01*
X302260Y379730D02*
X312420D01*
X307340Y374650D02*
Y384810D01*
X276860Y405130D02*
X287020D01*
X281940Y400050D02*
Y410210D01*
X276860Y379730D02*
X287020D01*
X281940Y374650D02*
Y384810D01*
X251460Y405130D02*
X261620D01*
X256540Y400050D02*
Y410210D01*
X251460Y379730D02*
X261620D01*
X256540Y374650D02*
Y384810D01*
X226060Y405130D02*
X236220D01*
X231140Y400050D02*
Y410210D01*
X226060Y379730D02*
X236220D01*
X231140Y374650D02*
Y384810D01*
X192850Y210820D02*
X200850D01*
X196850Y206820D02*
Y214820D01*
X168720Y210820D02*
X176720D01*
X172720Y206820D02*
Y214820D01*
X185230Y302260D02*
X193230D01*
X189230Y298260D02*
Y306260D01*
X216980Y285750D02*
X224980D01*
X220980Y281750D02*
Y289750D01*
X233490Y302260D02*
X241490D01*
X237490Y298260D02*
Y306260D01*
X262700Y285750D02*
X270700D01*
X266700Y281750D02*
Y289750D01*
X262700Y307340D02*
X270700D01*
X266700Y303340D02*
Y311340D01*
X102680Y215900D02*
X110680D01*
X106680Y211900D02*
Y219900D01*
X112840Y176530D02*
X120840D01*
X116840Y172530D02*
Y180530D01*
X91250Y176530D02*
X99250D01*
X95250Y172530D02*
Y180530D01*
X154750Y137160D02*
X162750D01*
X158750Y133160D02*
Y141160D01*
X133160Y148590D02*
X141160D01*
X137160Y144590D02*
Y152590D01*
X146876Y310896D02*
X154876D01*
X150876Y306896D02*
Y314896D01*
X133160Y283210D02*
X141160D01*
X137160Y279210D02*
Y287210D01*
X153480Y394970D02*
X161480D01*
X157480Y390970D02*
Y398970D01*
X94810Y346960D02*
X102810D01*
X98810Y342960D02*
Y350960D01*
X285560Y118110D02*
X293560D01*
X289560Y114110D02*
Y122110D01*
X234760Y118110D02*
X242760D01*
X238760Y114110D02*
Y122110D01*
X222060Y151130D02*
X230060D01*
X226060Y147130D02*
Y155130D01*
X263970Y132080D02*
X271970D01*
X267970Y128080D02*
Y136080D01*
X317310Y121920D02*
X325310D01*
X321310Y117920D02*
Y125920D01*
X335090Y72390D02*
X343090D01*
X339090Y68390D02*
Y76390D01*
X276670Y72390D02*
X284670D01*
X280670Y68390D02*
Y76390D01*
X121730Y420370D02*
X129730D01*
X125730Y416370D02*
Y424370D01*
X59500Y336550D02*
X67500D01*
X63500Y332550D02*
Y340550D01*
M02*
