%FSLAX44Y44*%
%MOMM*%
G71*
G01*
G75*
G04 Layer_Color=2752767*
%ADD10R,1.6002X1.3208*%
%ADD11R,2.0066X3.8100*%
%ADD12R,2.0066X1.5240*%
%ADD13R,1.2192X1.2192*%
%ADD14R,0.6604X2.0320*%
%ADD15R,3.5052X2.5146*%
%ADD16R,1.2192X1.2192*%
%ADD17R,1.3208X1.6002*%
%ADD18R,2.5146X3.5052*%
%ADD19R,1.2700X0.5588*%
%ADD20R,0.5588X1.2700*%
%ADD21C,0.4060*%
%ADD22C,0.4064*%
%ADD23C,0.3048*%
%ADD24C,0.3050*%
%ADD25C,0.8128*%
%ADD26C,0.2540*%
%ADD27C,3.5560*%
G04:AMPARAMS|DCode=28|XSize=1.524mm|YSize=1.524mm|CornerRadius=0mm|HoleSize=0mm|Usage=FLASHONLY|Rotation=270.000|XOffset=0mm|YOffset=0mm|HoleType=Round|Shape=Octagon|*
%AMOCTAGOND28*
4,1,8,-0.3810,-0.7620,0.3810,-0.7620,0.7620,-0.3810,0.7620,0.3810,0.3810,0.7620,-0.3810,0.7620,-0.7620,0.3810,-0.7620,-0.3810,-0.3810,-0.7620,0.0*
%
%ADD28OCTAGOND28*%

%ADD29O,1.5240X3.0480*%
%ADD30O,3.0480X1.5240*%
G04:AMPARAMS|DCode=31|XSize=1.524mm|YSize=1.524mm|CornerRadius=0mm|HoleSize=0mm|Usage=FLASHONLY|Rotation=0.000|XOffset=0mm|YOffset=0mm|HoleType=Round|Shape=Octagon|*
%AMOCTAGOND31*
4,1,8,0.7620,-0.3810,0.7620,0.3810,0.3810,0.7620,-0.3810,0.7620,-0.7620,0.3810,-0.7620,-0.3810,-0.3810,-0.7620,0.3810,-0.7620,0.7620,-0.3810,0.0*
%
%ADD31OCTAGOND31*%

%ADD32C,1.2700*%
%ADD33R,1.2192X0.8128*%
%ADD34R,2.7432X2.1590*%
%ADD35R,1.0160X1.2192*%
%ADD36R,1.0160X1.5240*%
%ADD37R,0.8128X1.2192*%
%ADD38C,0.6096*%
%ADD39C,0.1524*%
%ADD40C,0.2032*%
%ADD41C,0.0000*%
%ADD42C,0.0508*%
%ADD43C,0.0648*%
%ADD44C,0.0518*%
%ADD45R,0.2016X0.2032*%
%ADD46R,1.2700X1.9050*%
%ADD47R,0.7620X1.7780*%
%ADD48R,1.2700X0.7620*%
%ADD49R,0.2032X0.2016*%
%ADD50R,2.0066X1.7272*%
%ADD51R,2.4130X4.2164*%
%ADD52R,2.4130X1.9304*%
%ADD53R,1.6256X1.6256*%
%ADD54R,1.0668X2.4384*%
%ADD55R,3.9116X2.9210*%
%ADD56R,1.6256X1.6256*%
%ADD57R,1.7272X2.0066*%
%ADD58R,2.9210X3.9116*%
%ADD59R,1.6764X0.9652*%
%ADD60R,0.9652X1.6764*%
%ADD61C,3.9624*%
%ADD62C,4.3688*%
G04:AMPARAMS|DCode=63|XSize=1.9304mm|YSize=1.9304mm|CornerRadius=0mm|HoleSize=0mm|Usage=FLASHONLY|Rotation=270.000|XOffset=0mm|YOffset=0mm|HoleType=Round|Shape=Octagon|*
%AMOCTAGOND63*
4,1,8,-0.4826,-0.9652,0.4826,-0.9652,0.9652,-0.4826,0.9652,0.4826,0.4826,0.9652,-0.4826,0.9652,-0.9652,0.4826,-0.9652,-0.4826,-0.4826,-0.9652,0.0*
%
%ADD63OCTAGOND63*%

%ADD64O,1.9304X3.4544*%
%ADD65O,3.4544X1.9304*%
G04:AMPARAMS|DCode=66|XSize=1.9304mm|YSize=1.9304mm|CornerRadius=0mm|HoleSize=0mm|Usage=FLASHONLY|Rotation=0.000|XOffset=0mm|YOffset=0mm|HoleType=Round|Shape=Octagon|*
%AMOCTAGOND66*
4,1,8,0.9652,-0.4826,0.9652,0.4826,0.4826,0.9652,-0.4826,0.9652,-0.9652,0.4826,-0.9652,-0.4826,-0.4826,-0.9652,0.4826,-0.9652,0.9652,-0.4826,0.0*
%
%ADD66OCTAGOND66*%

%ADD67C,1.6764*%
%ADD68R,1.6256X1.2192*%
%ADD69R,3.1496X2.5654*%
%ADD70R,1.4224X1.6256*%
%ADD71R,1.4224X1.9304*%
%ADD72R,1.2192X1.6256*%
%ADD73C,0.0762*%
%ADD74C,0.1270*%
%ADD75R,0.3024X0.7056*%
%ADD76C,0.1693*%
D26*
X0Y0D02*
Y459740D01*
X369570D01*
X370840Y461010D01*
Y0D02*
Y461010D01*
X0Y0D02*
X370840D01*
D74*
X34920Y34920D02*
Y45080D01*
X45080D01*
Y34920D01*
X34920D01*
X324920D02*
Y45080D01*
X335080D01*
Y34920D01*
X324920D01*
X196850Y205740D02*
X191770Y215900D01*
X201930D01*
X196850Y205740D01*
X172720D02*
X167640Y215900D01*
X177800D01*
X172720Y205740D01*
X189230Y297180D02*
X184150Y307340D01*
X194310D01*
X189230Y297180D01*
X220980Y280670D02*
X215900Y290830D01*
X226060D01*
X220980Y280670D01*
X237490Y297180D02*
X232410Y307340D01*
X242570D01*
X237490Y297180D01*
X266700Y280670D02*
X261620Y290830D01*
X271780D01*
X266700Y280670D01*
Y302260D02*
X261620Y312420D01*
X271780D01*
X266700Y302260D01*
X106680Y210820D02*
X101600Y220980D01*
X111760D01*
X106680Y210820D01*
X116840Y171450D02*
X111760Y181610D01*
X121920D01*
X116840Y171450D01*
X95250D02*
X90170Y181610D01*
X100330D01*
X95250Y171450D01*
X158750Y132080D02*
X153670Y142240D01*
X163830D01*
X158750Y132080D01*
X137160Y143510D02*
X132080Y153670D01*
X142240D01*
X137160Y143510D01*
X150876Y305816D02*
X145796Y315976D01*
X155956D01*
X150876Y305816D01*
X137160Y278130D02*
X132080Y288290D01*
X142240D01*
X137160Y278130D01*
X157480Y389890D02*
X152400Y400050D01*
X162560D01*
X157480Y389890D01*
X98810Y341880D02*
X93730Y352040D01*
X103890D01*
X98810Y341880D01*
X289560Y113030D02*
X284480Y123190D01*
X294640D01*
X289560Y113030D01*
X238760D02*
X233680Y123190D01*
X243840D01*
X238760Y113030D01*
X226060Y146050D02*
X220980Y156210D01*
X231140D01*
X226060Y146050D01*
X267970Y127000D02*
X262890Y137160D01*
X273050D01*
X267970Y127000D01*
X321310Y116840D02*
X316230Y127000D01*
X326390D01*
X321310Y116840D01*
X339090Y67310D02*
X334010Y77470D01*
X344170D01*
X339090Y67310D01*
X280670D02*
X275590Y77470D01*
X285750D01*
X280670Y67310D01*
X125730Y415290D02*
X120650Y425450D01*
X130810D01*
X125730Y415290D01*
X63500Y331470D02*
X58420Y341630D01*
X68580D01*
X63500Y331470D01*
D76*
X323850Y302260D02*
G03*
X323850Y302260I-5080J0D01*
G01*
Y276860D02*
G03*
X323850Y276860I-5080J0D01*
G01*
Y251460D02*
G03*
X323850Y251460I-5080J0D01*
G01*
Y226060D02*
G03*
X323850Y226060I-5080J0D01*
G01*
Y200660D02*
G03*
X323850Y200660I-5080J0D01*
G01*
X349250Y302260D02*
G03*
X349250Y302260I-5080J0D01*
G01*
Y276860D02*
G03*
X349250Y276860I-5080J0D01*
G01*
Y251460D02*
G03*
X349250Y251460I-5080J0D01*
G01*
Y226060D02*
G03*
X349250Y226060I-5080J0D01*
G01*
Y200660D02*
G03*
X349250Y200660I-5080J0D01*
G01*
X212090Y63500D02*
G03*
X212090Y63500I-5080J0D01*
G01*
X186690D02*
G03*
X186690Y63500I-5080J0D01*
G01*
X161290D02*
G03*
X161290Y63500I-5080J0D01*
G01*
X135890D02*
G03*
X135890Y63500I-5080J0D01*
G01*
X212090Y25400D02*
G03*
X212090Y25400I-5080J0D01*
G01*
X237490D02*
G03*
X237490Y25400I-5080J0D01*
G01*
X262890D02*
G03*
X262890Y25400I-5080J0D01*
G01*
X288290D02*
G03*
X288290Y25400I-5080J0D01*
G01*
X92710D02*
G03*
X92710Y25400I-5080J0D01*
G01*
X118110D02*
G03*
X118110Y25400I-5080J0D01*
G01*
X143510D02*
G03*
X143510Y25400I-5080J0D01*
G01*
X168910D02*
G03*
X168910Y25400I-5080J0D01*
G01*
X43180Y236220D02*
G03*
X43180Y236220I-5080J0D01*
G01*
Y210820D02*
G03*
X43180Y210820I-5080J0D01*
G01*
Y185420D02*
G03*
X43180Y185420I-5080J0D01*
G01*
X337820Y405130D02*
G03*
X337820Y405130I-5080J0D01*
G01*
Y379730D02*
G03*
X337820Y379730I-5080J0D01*
G01*
X312420Y405130D02*
G03*
X312420Y405130I-5080J0D01*
G01*
Y379730D02*
G03*
X312420Y379730I-5080J0D01*
G01*
X287020Y405130D02*
G03*
X287020Y405130I-5080J0D01*
G01*
Y379730D02*
G03*
X287020Y379730I-5080J0D01*
G01*
X261620Y405130D02*
G03*
X261620Y405130I-5080J0D01*
G01*
Y379730D02*
G03*
X261620Y379730I-5080J0D01*
G01*
X236220Y405130D02*
G03*
X236220Y405130I-5080J0D01*
G01*
Y379730D02*
G03*
X236220Y379730I-5080J0D01*
G01*
M02*
