%FSLAX44Y44*%
%MOMM*%
G71*
G01*
G75*
G04 Layer_Physical_Order=2*
G04 Layer_Color=16711680*
%ADD10R,1.6002X1.3208*%
%ADD11R,2.0066X3.8100*%
%ADD12R,2.0066X1.5240*%
%ADD13R,1.2192X1.2192*%
%ADD14R,0.6604X2.0320*%
%ADD15R,3.5052X2.5146*%
%ADD16R,1.2192X1.2192*%
%ADD17R,1.3208X1.6002*%
%ADD18R,2.5146X3.5052*%
%ADD19R,1.2700X0.5588*%
%ADD20R,0.5588X1.2700*%
%ADD21C,0.4060*%
%ADD22C,0.4064*%
%ADD23C,0.3048*%
%ADD24C,0.3050*%
%ADD25C,0.8128*%
%ADD26C,0.2540*%
%ADD27C,3.5560*%
G04:AMPARAMS|DCode=28|XSize=1.524mm|YSize=1.524mm|CornerRadius=0mm|HoleSize=0mm|Usage=FLASHONLY|Rotation=270.000|XOffset=0mm|YOffset=0mm|HoleType=Round|Shape=Octagon|*
%AMOCTAGOND28*
4,1,8,-0.3810,-0.7620,0.3810,-0.7620,0.7620,-0.3810,0.7620,0.3810,0.3810,0.7620,-0.3810,0.7620,-0.7620,0.3810,-0.7620,-0.3810,-0.3810,-0.7620,0.0*
%
%ADD28OCTAGOND28*%

%ADD29O,1.5240X3.0480*%
%ADD30O,3.0480X1.5240*%
G04:AMPARAMS|DCode=31|XSize=1.524mm|YSize=1.524mm|CornerRadius=0mm|HoleSize=0mm|Usage=FLASHONLY|Rotation=0.000|XOffset=0mm|YOffset=0mm|HoleType=Round|Shape=Octagon|*
%AMOCTAGOND31*
4,1,8,0.7620,-0.3810,0.7620,0.3810,0.3810,0.7620,-0.3810,0.7620,-0.7620,0.3810,-0.7620,-0.3810,-0.3810,-0.7620,0.3810,-0.7620,0.7620,-0.3810,0.0*
%
%ADD31OCTAGOND31*%

%ADD32C,1.2700*%
%ADD33R,1.2192X0.8128*%
%ADD34R,2.7432X2.1590*%
%ADD35R,1.0160X1.2192*%
%ADD36R,1.0160X1.5240*%
%ADD37R,0.8128X1.2192*%
%ADD38C,0.6096*%
G36*
X370000Y898D02*
X369102Y-0D01*
X-0Y-0D01*
X-0Y460000D01*
X185000Y460000D01*
X370000D01*
Y898D01*
D02*
G37*
%LPC*%
G36*
X84328Y150241D02*
X52832D01*
Y143629D01*
X43688D01*
Y150241D01*
X12192D01*
Y124587D01*
X43688D01*
Y131199D01*
X52832D01*
Y124587D01*
X76173D01*
X123418Y77342D01*
X122379Y75988D01*
X121406Y73640D01*
X121075Y71120D01*
Y55880D01*
X121406Y53360D01*
X122379Y51012D01*
X123926Y48996D01*
X125942Y47449D01*
X128290Y46476D01*
X130810Y46145D01*
X133330Y46476D01*
X135678Y47449D01*
X137694Y48996D01*
X139241Y51012D01*
X140214Y53360D01*
X140545Y55880D01*
Y71120D01*
X140214Y73640D01*
X139241Y75988D01*
X137694Y78004D01*
X137025Y78517D01*
Y78740D01*
X136631Y80724D01*
X136552Y81119D01*
X135205Y83135D01*
X84328Y134012D01*
Y150241D01*
D02*
G37*
G36*
X323342Y132156D02*
Y123952D01*
X331546D01*
X331456Y124639D01*
X330407Y127172D01*
X328737Y129347D01*
X326562Y131017D01*
X324029Y132066D01*
X323342Y132156D01*
D02*
G37*
G36*
X319278D02*
X318591Y132066D01*
X316058Y131017D01*
X313883Y129347D01*
X312213Y127172D01*
X311164Y124639D01*
X311074Y123952D01*
X319278D01*
Y132156D01*
D02*
G37*
G36*
X116840Y184984D02*
X114652Y184696D01*
X112613Y183852D01*
X110862Y182508D01*
X109518Y180757D01*
X108674Y178718D01*
X108386Y176530D01*
X108674Y174342D01*
X109518Y172303D01*
X110862Y170552D01*
X112613Y169208D01*
X114652Y168364D01*
X116840Y168076D01*
X119028Y168364D01*
X121067Y169208D01*
X122818Y170552D01*
X124162Y172303D01*
X125006Y174342D01*
X125294Y176530D01*
X125006Y178718D01*
X124162Y180757D01*
X122818Y182508D01*
X121067Y183852D01*
X119028Y184696D01*
X116840Y184984D01*
D02*
G37*
G36*
X95250D02*
X93062Y184696D01*
X91023Y183852D01*
X89272Y182508D01*
X87928Y180757D01*
X87084Y178718D01*
X86796Y176530D01*
X87084Y174342D01*
X87928Y172303D01*
X89272Y170552D01*
X91023Y169208D01*
X93062Y168364D01*
X95250Y168076D01*
X97438Y168364D01*
X99477Y169208D01*
X101228Y170552D01*
X102572Y172303D01*
X103416Y174342D01*
X103704Y176530D01*
X103416Y178718D01*
X102572Y180757D01*
X101228Y182508D01*
X99477Y183852D01*
X97438Y184696D01*
X95250Y184984D01*
D02*
G37*
G36*
X237490Y310714D02*
X235302Y310426D01*
X233263Y309582D01*
X231512Y308238D01*
X230168Y306487D01*
X229324Y304448D01*
X229036Y302260D01*
X229324Y300072D01*
X230168Y298033D01*
X231512Y296282D01*
X233263Y294938D01*
X233864Y294689D01*
Y184382D01*
X214398Y164916D01*
X128270D01*
X128270Y164916D01*
X126882Y164640D01*
X125706Y163854D01*
X121896Y160044D01*
X121110Y158868D01*
X120834Y157480D01*
X120834Y157480D01*
Y129540D01*
X120834Y129540D01*
X121110Y128153D01*
X121896Y126976D01*
X126976Y121896D01*
X126976Y121896D01*
X128153Y121110D01*
X129540Y120834D01*
X129540Y120834D01*
X145396D01*
X146177Y119888D01*
X146177Y119564D01*
Y102616D01*
X166243D01*
Y106956D01*
X171577D01*
Y102464D01*
X190629D01*
X191345Y101594D01*
X191155Y101092D01*
X182880D01*
Y93218D01*
X192151D01*
Y93952D01*
X193421Y94337D01*
X193920Y93590D01*
X198340Y89170D01*
X199684Y88272D01*
X201270Y87956D01*
X202057D01*
Y83464D01*
X222123D01*
Y100736D01*
X202720D01*
X201573Y101773D01*
X201548Y101826D01*
Y102377D01*
X202057Y102616D01*
X202264Y102616D01*
X222123D01*
Y119888D01*
X208582D01*
X201446Y127024D01*
X200270Y127810D01*
X198882Y128086D01*
X198882Y128086D01*
X162064D01*
X161812Y129356D01*
X162977Y129838D01*
X164728Y131182D01*
X166072Y132933D01*
X166321Y133534D01*
X239798D01*
X243816Y129516D01*
X243816Y129516D01*
X244993Y128730D01*
X246380Y128454D01*
X246380Y128454D01*
X260399D01*
X260648Y127853D01*
X261992Y126102D01*
X263743Y124758D01*
X265782Y123914D01*
X267970Y123626D01*
X270158Y123914D01*
X272197Y124758D01*
X273948Y126102D01*
X275292Y127853D01*
X276136Y129892D01*
X276424Y132080D01*
X276136Y134268D01*
X275292Y136307D01*
X273948Y138058D01*
X272197Y139402D01*
X270158Y140246D01*
X267970Y140534D01*
X265782Y140246D01*
X263743Y139402D01*
X261992Y138058D01*
X260648Y136307D01*
X260399Y135706D01*
X247882D01*
X243864Y139724D01*
X242687Y140510D01*
X241300Y140786D01*
X241300Y140786D01*
X166321D01*
X166072Y141387D01*
X164728Y143138D01*
X162977Y144482D01*
X160938Y145326D01*
X158750Y145614D01*
X156562Y145326D01*
X154523Y144482D01*
X152772Y143138D01*
X151428Y141387D01*
X150584Y139348D01*
X150296Y137160D01*
X150584Y134972D01*
X151428Y132933D01*
X152772Y131182D01*
X154523Y129838D01*
X155688Y129356D01*
X155435Y128086D01*
X131042D01*
X128086Y131042D01*
Y145275D01*
X129356Y145528D01*
X129838Y144363D01*
X131182Y142612D01*
X132933Y141268D01*
X134972Y140424D01*
X137160Y140136D01*
X139348Y140424D01*
X141387Y141268D01*
X143138Y142612D01*
X144482Y144363D01*
X145326Y146402D01*
X145471Y147504D01*
X218489D01*
X218738Y146903D01*
X220082Y145152D01*
X221833Y143808D01*
X223872Y142964D01*
X226060Y142676D01*
X228248Y142964D01*
X230287Y143808D01*
X232038Y145152D01*
X233382Y146903D01*
X234226Y148942D01*
X234514Y151130D01*
X234226Y153318D01*
X233382Y155357D01*
X232038Y157108D01*
X230287Y158452D01*
X228248Y159296D01*
X226060Y159584D01*
X223872Y159296D01*
X221833Y158452D01*
X220082Y157108D01*
X218738Y155357D01*
X218489Y154756D01*
X142894D01*
X141387Y155912D01*
X140222Y156394D01*
X140475Y157664D01*
X215900D01*
X215900Y157664D01*
X217288Y157940D01*
X218464Y158726D01*
X240054Y180316D01*
X240054Y180316D01*
X240840Y181493D01*
X241116Y182880D01*
X241116Y182880D01*
Y294689D01*
X241717Y294938D01*
X243468Y296282D01*
X244812Y298033D01*
X245656Y300072D01*
X245944Y302260D01*
X245656Y304448D01*
X244812Y306487D01*
X243468Y308238D01*
X241717Y309582D01*
X239678Y310426D01*
X237490Y310714D01*
D02*
G37*
G36*
X289560Y126564D02*
X287372Y126276D01*
X285333Y125432D01*
X283582Y124088D01*
X282238Y122337D01*
X281989Y121736D01*
X246331D01*
X246082Y122337D01*
X244738Y124088D01*
X242987Y125432D01*
X240948Y126276D01*
X238760Y126564D01*
X236572Y126276D01*
X234533Y125432D01*
X232782Y124088D01*
X231438Y122337D01*
X230594Y120298D01*
X230306Y118110D01*
X230594Y115922D01*
X231438Y113883D01*
X232782Y112132D01*
X234533Y110788D01*
X236572Y109944D01*
X238760Y109656D01*
X240948Y109944D01*
X242987Y110788D01*
X244738Y112132D01*
X246082Y113883D01*
X246331Y114484D01*
X281989D01*
X282238Y113883D01*
X283582Y112132D01*
X285333Y110788D01*
X287372Y109944D01*
X289560Y109656D01*
X291748Y109944D01*
X293787Y110788D01*
X295538Y112132D01*
X296882Y113883D01*
X297726Y115922D01*
X298014Y118110D01*
X297726Y120298D01*
X296882Y122337D01*
X295538Y124088D01*
X293787Y125432D01*
X291748Y126276D01*
X289560Y126564D01*
D02*
G37*
G36*
X309337Y103136D02*
X304003D01*
Y95770D01*
X309337D01*
Y103136D01*
D02*
G37*
G36*
X258791D02*
X253457D01*
Y95770D01*
X258791D01*
Y103136D01*
D02*
G37*
G36*
X250917D02*
X245583D01*
Y95770D01*
X250917D01*
Y103136D01*
D02*
G37*
G36*
X331546Y119888D02*
X323342D01*
Y111684D01*
X324029Y111774D01*
X326562Y112823D01*
X328737Y114493D01*
X330407Y116668D01*
X331456Y119201D01*
X331546Y119888D01*
D02*
G37*
G36*
X319278D02*
X311074D01*
X311164Y119201D01*
X312213Y116668D01*
X313883Y114493D01*
X316058Y112823D01*
X318591Y111774D01*
X319278Y111684D01*
Y119888D01*
D02*
G37*
G36*
X317211Y103136D02*
X311877D01*
Y95770D01*
X317211D01*
Y103136D01*
D02*
G37*
G36*
X36830Y209550D02*
X20399D01*
X20582Y208168D01*
X21605Y205696D01*
X23234Y203574D01*
X25356Y201945D01*
X27828Y200921D01*
X30480Y200572D01*
X36830D01*
Y209550D01*
D02*
G37*
G36*
X80391Y199390D02*
X71120D01*
Y191516D01*
X80391D01*
Y199390D01*
D02*
G37*
G36*
X68580D02*
X59309D01*
Y191516D01*
X68580D01*
Y199390D01*
D02*
G37*
G36*
X182956Y208788D02*
X174752D01*
Y200584D01*
X175439Y200674D01*
X177972Y201723D01*
X180147Y203393D01*
X181817Y205568D01*
X182866Y208101D01*
X182956Y208788D01*
D02*
G37*
G36*
X170688D02*
X162484D01*
X162574Y208101D01*
X163623Y205568D01*
X165293Y203393D01*
X167468Y201723D01*
X170001Y200674D01*
X170688Y200584D01*
Y208788D01*
D02*
G37*
G36*
X55800Y209550D02*
X39370D01*
Y200572D01*
X45720D01*
X48372Y200921D01*
X50844Y201945D01*
X52966Y203574D01*
X54595Y205696D01*
X55619Y208168D01*
X55800Y209550D01*
D02*
G37*
G36*
X348996Y210312D02*
X339344D01*
X334518Y205486D01*
Y195834D01*
X339344Y191008D01*
X348996D01*
X353822Y195834D01*
Y205486D01*
X348996Y210312D01*
D02*
G37*
G36*
X155956Y187850D02*
X148590D01*
Y182516D01*
X155956D01*
Y187850D01*
D02*
G37*
G36*
X146050D02*
X138684D01*
Y182516D01*
X146050D01*
Y187850D01*
D02*
G37*
G36*
X45720Y195155D02*
X30480D01*
X27960Y194824D01*
X25612Y193851D01*
X23596Y192304D01*
X22049Y190288D01*
X21076Y187940D01*
X20745Y185420D01*
X21076Y182900D01*
X22049Y180552D01*
X23596Y178536D01*
X25612Y176989D01*
X27960Y176016D01*
X30480Y175685D01*
X45720D01*
X48240Y176016D01*
X50484Y176946D01*
X51325Y176105D01*
X53341Y174758D01*
X55720Y174285D01*
X59817D01*
Y171864D01*
X79883D01*
Y189136D01*
X59817D01*
Y186715D01*
X58295D01*
X55195Y189815D01*
X53797Y190749D01*
X52604Y192304D01*
X50588Y193851D01*
X48240Y194824D01*
X45720Y195155D01*
D02*
G37*
G36*
X323596Y210312D02*
X313944D01*
X309118Y205486D01*
Y195834D01*
X313944Y191008D01*
X323596D01*
X328422Y195834D01*
Y205486D01*
X323596Y210312D01*
D02*
G37*
G36*
X155956Y195724D02*
X148590D01*
Y190390D01*
X155956D01*
Y195724D01*
D02*
G37*
G36*
X146050D02*
X138684D01*
Y190390D01*
X146050D01*
Y195724D01*
D02*
G37*
G36*
X283210Y42755D02*
X280690Y42424D01*
X278342Y41451D01*
X276326Y39904D01*
X274779Y37888D01*
X273806Y35540D01*
X273475Y33020D01*
Y17780D01*
X273806Y15260D01*
X274779Y12912D01*
X276326Y10896D01*
X278342Y9349D01*
X280690Y8376D01*
X283210Y8045D01*
X285730Y8376D01*
X288078Y9349D01*
X290094Y10896D01*
X291641Y12912D01*
X292614Y15260D01*
X292945Y17780D01*
Y33020D01*
X292614Y35540D01*
X291641Y37888D01*
X290094Y39904D01*
X288078Y41451D01*
X285730Y42424D01*
X283210Y42755D01*
D02*
G37*
G36*
X257810D02*
X255290Y42424D01*
X252942Y41451D01*
X250926Y39904D01*
X249379Y37888D01*
X248406Y35540D01*
X248075Y33020D01*
Y17780D01*
X248406Y15260D01*
X249379Y12912D01*
X250926Y10896D01*
X252942Y9349D01*
X255290Y8376D01*
X257810Y8045D01*
X260330Y8376D01*
X262678Y9349D01*
X264694Y10896D01*
X266241Y12912D01*
X267214Y15260D01*
X267545Y17780D01*
Y33020D01*
X267214Y35540D01*
X266241Y37888D01*
X264694Y39904D01*
X262678Y41451D01*
X260330Y42424D01*
X257810Y42755D01*
D02*
G37*
G36*
X232410D02*
X229890Y42424D01*
X227542Y41451D01*
X225526Y39904D01*
X223979Y37888D01*
X223006Y35540D01*
X222675Y33020D01*
Y17780D01*
X223006Y15260D01*
X223979Y12912D01*
X225526Y10896D01*
X227542Y9349D01*
X229890Y8376D01*
X232410Y8045D01*
X234930Y8376D01*
X237278Y9349D01*
X239294Y10896D01*
X240841Y12912D01*
X241814Y15260D01*
X242145Y17780D01*
Y33020D01*
X241814Y35540D01*
X240841Y37888D01*
X239294Y39904D01*
X237278Y41451D01*
X234930Y42424D01*
X232410Y42755D01*
D02*
G37*
G36*
X137160Y43101D02*
X135778Y42919D01*
X133306Y41895D01*
X131184Y40266D01*
X129555Y38144D01*
X128532Y35672D01*
X128182Y33020D01*
Y26670D01*
X137160D01*
Y43101D01*
D02*
G37*
G36*
X330000Y59908D02*
X326116Y59525D01*
X322382Y58393D01*
X318940Y56553D01*
X315923Y54077D01*
X313447Y51060D01*
X311607Y47618D01*
X310475Y43884D01*
X310092Y40000D01*
X310475Y36116D01*
X311607Y32382D01*
X313447Y28940D01*
X315923Y25923D01*
X318940Y23447D01*
X322382Y21607D01*
X326116Y20475D01*
X330000Y20092D01*
X333884Y20475D01*
X337618Y21607D01*
X341060Y23447D01*
X344077Y25923D01*
X346553Y28940D01*
X348392Y32382D01*
X349525Y36116D01*
X349908Y40000D01*
X349525Y43884D01*
X348392Y47618D01*
X346553Y51060D01*
X344077Y54077D01*
X341060Y56553D01*
X337618Y58393D01*
X333884Y59525D01*
X330000Y59908D01*
D02*
G37*
G36*
X40000D02*
X36116Y59525D01*
X32382Y58393D01*
X28940Y56553D01*
X25923Y54077D01*
X23447Y51060D01*
X21607Y47618D01*
X20475Y43884D01*
X20092Y40000D01*
X20475Y36116D01*
X21607Y32382D01*
X23447Y28940D01*
X25923Y25923D01*
X28940Y23447D01*
X32382Y21607D01*
X36116Y20475D01*
X40000Y20092D01*
X43884Y20475D01*
X47618Y21607D01*
X51060Y23447D01*
X54077Y25923D01*
X56553Y28940D01*
X58393Y32382D01*
X59525Y36116D01*
X59908Y40000D01*
X59525Y43884D01*
X58393Y47618D01*
X56553Y51060D01*
X54077Y54077D01*
X51060Y56553D01*
X47618Y58393D01*
X43884Y59525D01*
X40000Y59908D01*
D02*
G37*
G36*
X207010Y42755D02*
X204490Y42424D01*
X202142Y41451D01*
X200126Y39904D01*
X198579Y37888D01*
X197606Y35540D01*
X197275Y33020D01*
Y17780D01*
X197606Y15260D01*
X198579Y12912D01*
X200126Y10896D01*
X202142Y9349D01*
X204490Y8376D01*
X207010Y8045D01*
X209530Y8376D01*
X211878Y9349D01*
X213894Y10896D01*
X215441Y12912D01*
X216414Y15260D01*
X216745Y17780D01*
Y33020D01*
X216414Y35540D01*
X215441Y37888D01*
X213894Y39904D01*
X211878Y41451D01*
X209530Y42424D01*
X207010Y42755D01*
D02*
G37*
G36*
X162560Y24130D02*
X153582D01*
Y17780D01*
X153932Y15128D01*
X154955Y12656D01*
X156584Y10534D01*
X158706Y8905D01*
X161178Y7882D01*
X162560Y7699D01*
Y24130D01*
D02*
G37*
G36*
X148678D02*
X139700D01*
Y7699D01*
X141082Y7882D01*
X143554Y8905D01*
X145676Y10534D01*
X147305Y12656D01*
X148329Y15128D01*
X148678Y17780D01*
Y24130D01*
D02*
G37*
G36*
X137160D02*
X128182D01*
Y17780D01*
X128532Y15128D01*
X129555Y12656D01*
X131184Y10534D01*
X133306Y8905D01*
X135778Y7882D01*
X137160Y7699D01*
Y24130D01*
D02*
G37*
G36*
X84074Y106045D02*
X52578D01*
Y80391D01*
X67029D01*
X106016Y41405D01*
X106146Y39904D01*
X104599Y37888D01*
X103626Y35540D01*
X103295Y33020D01*
Y17780D01*
X103626Y15260D01*
X104599Y12912D01*
X106146Y10896D01*
X108162Y9349D01*
X110510Y8376D01*
X113030Y8045D01*
X115550Y8376D01*
X117898Y9349D01*
X119914Y10896D01*
X121461Y12912D01*
X122434Y15260D01*
X122765Y17780D01*
Y33020D01*
X122434Y35540D01*
X121461Y37888D01*
X119914Y39904D01*
X119245Y40417D01*
Y43180D01*
X118772Y45559D01*
X117425Y47575D01*
X84074Y80926D01*
Y106045D01*
D02*
G37*
G36*
X43434D02*
X11938D01*
Y80391D01*
X22984D01*
X23799Y79171D01*
X37515Y65455D01*
X39531Y64108D01*
X39926Y64029D01*
X41910Y63635D01*
X52035D01*
X78784Y36886D01*
X78226Y35540D01*
X77895Y33020D01*
Y17780D01*
X78226Y15260D01*
X79199Y12912D01*
X80746Y10896D01*
X82762Y9349D01*
X85110Y8376D01*
X87630Y8045D01*
X90150Y8376D01*
X92498Y9349D01*
X94514Y10896D01*
X96061Y12912D01*
X97034Y15260D01*
X97365Y17780D01*
Y33020D01*
X97034Y35540D01*
X96061Y37888D01*
X94514Y39904D01*
X92498Y41451D01*
X91305Y41945D01*
X59005Y74245D01*
X56989Y75592D01*
X56594Y75671D01*
X54610Y76065D01*
X44485D01*
X41332Y79218D01*
X41818Y80391D01*
X43434D01*
Y106045D01*
D02*
G37*
G36*
X174078Y24130D02*
X165100D01*
Y7699D01*
X166482Y7882D01*
X168954Y8905D01*
X171076Y10534D01*
X172705Y12656D01*
X173729Y15128D01*
X174078Y17780D01*
Y24130D01*
D02*
G37*
G36*
X258791Y93230D02*
X253457D01*
Y85864D01*
X258791D01*
Y93230D01*
D02*
G37*
G36*
X250917D02*
X245583D01*
Y85864D01*
X250917D01*
Y93230D01*
D02*
G37*
G36*
X192151Y90678D02*
X171069D01*
Y82804D01*
X177466D01*
Y80401D01*
X176486Y79995D01*
X174364Y78366D01*
X172735Y76244D01*
X171712Y73772D01*
X171362Y71120D01*
Y64770D01*
X191858D01*
Y71120D01*
X191509Y73772D01*
X190485Y76244D01*
X188856Y78366D01*
X186734Y79995D01*
X185754Y80401D01*
Y82804D01*
X192151D01*
Y90678D01*
D02*
G37*
G36*
X180340Y101092D02*
X171069D01*
Y93218D01*
X180340D01*
Y101092D01*
D02*
G37*
G36*
X317211Y93230D02*
X311877D01*
Y85864D01*
X317211D01*
Y93230D01*
D02*
G37*
G36*
X309337D02*
X304003D01*
Y85864D01*
X309337D01*
Y93230D01*
D02*
G37*
G36*
X207010Y80855D02*
X204490Y80524D01*
X202142Y79551D01*
X200126Y78004D01*
X198579Y75988D01*
X197606Y73640D01*
X197275Y71120D01*
Y55880D01*
X197606Y53360D01*
X198579Y51012D01*
X200126Y48996D01*
X202142Y47449D01*
X204490Y46476D01*
X207010Y46145D01*
X209530Y46476D01*
X211878Y47449D01*
X213894Y48996D01*
X215441Y51012D01*
X216414Y53360D01*
X216745Y55880D01*
Y71120D01*
X216414Y73640D01*
X215441Y75988D01*
X213894Y78004D01*
X211878Y79551D01*
X209530Y80524D01*
X207010Y80855D01*
D02*
G37*
G36*
X165100Y43101D02*
Y26670D01*
X174078D01*
Y33020D01*
X173729Y35672D01*
X172705Y38144D01*
X171076Y40266D01*
X168954Y41895D01*
X166482Y42919D01*
X165100Y43101D01*
D02*
G37*
G36*
X162560D02*
X161178Y42919D01*
X158706Y41895D01*
X156584Y40266D01*
X154955Y38144D01*
X153932Y35672D01*
X153582Y33020D01*
Y26670D01*
X162560D01*
Y43101D01*
D02*
G37*
G36*
X139700D02*
Y26670D01*
X148678D01*
Y33020D01*
X148329Y35672D01*
X147305Y38144D01*
X145676Y40266D01*
X143554Y41895D01*
X141082Y42919D01*
X139700Y43101D01*
D02*
G37*
G36*
X166243Y100736D02*
X146177D01*
Y83464D01*
X152066D01*
Y79851D01*
X151342Y79551D01*
X149326Y78004D01*
X147779Y75988D01*
X146806Y73640D01*
X146475Y71120D01*
Y55880D01*
X146806Y53360D01*
X147779Y51012D01*
X149326Y48996D01*
X151342Y47449D01*
X153690Y46476D01*
X156210Y46145D01*
X158730Y46476D01*
X161078Y47449D01*
X163094Y48996D01*
X164641Y51012D01*
X165614Y53360D01*
X165945Y55880D01*
Y71120D01*
X165614Y73640D01*
X164641Y75988D01*
X163094Y78004D01*
X161078Y79551D01*
X160354Y79851D01*
Y83464D01*
X166243D01*
Y100736D01*
D02*
G37*
G36*
X191858Y62230D02*
X182880D01*
Y45799D01*
X184262Y45981D01*
X186734Y47005D01*
X188856Y48634D01*
X190485Y50756D01*
X191509Y53228D01*
X191858Y55880D01*
Y62230D01*
D02*
G37*
G36*
X180340D02*
X171362D01*
Y55880D01*
X171712Y53228D01*
X172735Y50756D01*
X174364Y48634D01*
X176486Y47005D01*
X178958Y45981D01*
X180340Y45799D01*
Y62230D01*
D02*
G37*
G36*
X80391Y217170D02*
X59309D01*
Y209296D01*
Y201930D01*
X80391D01*
Y209296D01*
Y217170D01*
D02*
G37*
G36*
X342900Y403860D02*
X334010D01*
Y394970D01*
X337820D01*
X342900Y400050D01*
Y403860D01*
D02*
G37*
G36*
X331470D02*
X322580D01*
Y400050D01*
X327660Y394970D01*
X331470D01*
Y403860D01*
D02*
G37*
G36*
X317500D02*
X308610D01*
Y394970D01*
X312420D01*
X317500Y400050D01*
Y403860D01*
D02*
G37*
G36*
X204470Y409050D02*
X197104D01*
Y403716D01*
X204470D01*
Y409050D01*
D02*
G37*
G36*
X65024Y412750D02*
X57150D01*
Y403479D01*
X65024D01*
Y412750D01*
D02*
G37*
G36*
X54610D02*
X46736D01*
Y403479D01*
X54610D01*
Y412750D01*
D02*
G37*
G36*
X306070Y403860D02*
X297180D01*
Y400050D01*
X302260Y394970D01*
X306070D01*
Y403860D01*
D02*
G37*
G36*
X337566Y389382D02*
X327914D01*
X323088Y384556D01*
Y374904D01*
X327914Y370078D01*
X337566D01*
X342392Y374904D01*
Y384556D01*
X337566Y389382D01*
D02*
G37*
G36*
X312166D02*
X302514D01*
X297688Y384556D01*
Y374904D01*
X302514Y370078D01*
X312166D01*
X316992Y374904D01*
Y384556D01*
X312166Y389382D01*
D02*
G37*
G36*
X125730Y428824D02*
X123542Y428536D01*
X121503Y427692D01*
X119752Y426348D01*
X118408Y424597D01*
X117564Y422558D01*
X117276Y420370D01*
X117564Y418182D01*
X118408Y416143D01*
X119752Y414392D01*
X121503Y413048D01*
X123542Y412204D01*
X125730Y411916D01*
X127918Y412204D01*
X129957Y413048D01*
X131708Y414392D01*
X133052Y416143D01*
X133086Y416226D01*
X173036D01*
X177038Y412224D01*
Y401320D01*
Y386636D01*
X96496Y306094D01*
X95710Y304918D01*
X95434Y303530D01*
X95434Y303530D01*
Y223520D01*
X95434Y223520D01*
X95710Y222132D01*
X96496Y220956D01*
X98763Y218690D01*
X98514Y218088D01*
X98226Y215900D01*
X98514Y213712D01*
X99358Y211673D01*
X100702Y209922D01*
X102453Y208578D01*
X104492Y207734D01*
X106680Y207446D01*
X108868Y207734D01*
X110907Y208578D01*
X112658Y209922D01*
X114002Y211673D01*
X114846Y213712D01*
X115134Y215900D01*
X114846Y218088D01*
X114002Y220127D01*
X112658Y221878D01*
X110907Y223222D01*
X108868Y224066D01*
X106680Y224354D01*
X104492Y224066D01*
X103890Y223817D01*
X102686Y225022D01*
Y302028D01*
X182925Y382268D01*
X191262D01*
Y388550D01*
X197612D01*
Y386080D01*
X213868D01*
Y388550D01*
X223823D01*
X224309Y387377D01*
X221488Y384556D01*
Y374904D01*
X226314Y370078D01*
X235966D01*
X240792Y374904D01*
Y384556D01*
X237971Y387377D01*
X238457Y388550D01*
X249223D01*
X249709Y387377D01*
X246888Y384556D01*
Y374904D01*
X251714Y370078D01*
X261366D01*
X266192Y374904D01*
Y384556D01*
X263371Y387377D01*
X263857Y388550D01*
X267992D01*
X272288Y384254D01*
Y374904D01*
X277114Y370078D01*
X286766D01*
X291592Y374904D01*
Y384556D01*
X286766Y389382D01*
X277416D01*
X272058Y394740D01*
X270882Y395526D01*
X269494Y395802D01*
X269494Y395802D01*
X264111D01*
X263625Y396975D01*
X266700Y400050D01*
Y403860D01*
X246380D01*
Y400050D01*
X249455Y396975D01*
X248969Y395802D01*
X237949D01*
X237463Y396975D01*
X240792Y400304D01*
Y409956D01*
X235966Y414782D01*
X226314D01*
X221488Y409956D01*
Y400304D01*
X224817Y396975D01*
X224331Y395802D01*
X213868D01*
Y398272D01*
X197612D01*
Y395802D01*
X191262D01*
Y401320D01*
Y420624D01*
X180358D01*
X177682Y423300D01*
X176338Y424198D01*
X174752Y424514D01*
X133086D01*
X133052Y424597D01*
X131708Y426348D01*
X129957Y427692D01*
X127918Y428536D01*
X125730Y428824D01*
D02*
G37*
G36*
X292100Y403860D02*
X283210D01*
Y394970D01*
X287020D01*
X292100Y400050D01*
Y403860D01*
D02*
G37*
G36*
X280670D02*
X271780D01*
Y400050D01*
X276860Y394970D01*
X280670D01*
Y403860D01*
D02*
G37*
G36*
X84676Y424053D02*
X67404D01*
Y403987D01*
X70078D01*
X70564Y402814D01*
X69564Y401814D01*
X63660D01*
X62074Y401498D01*
X60730Y400600D01*
X55490Y395360D01*
X54592Y394016D01*
X54276Y392430D01*
Y392303D01*
X47752D01*
Y372491D01*
X47752Y372281D01*
X47244Y371221D01*
Y371219D01*
X47244Y371177D01*
Y361950D01*
X65532D01*
Y371177D01*
X65532Y371219D01*
Y371221D01*
X65024Y372281D01*
X65024Y372491D01*
Y392303D01*
X65024Y392303D01*
X65024D01*
X65564Y393168D01*
X66854Y392848D01*
X66904Y392303D01*
X66904Y392256D01*
Y372237D01*
X71396D01*
Y370713D01*
X66904D01*
Y350647D01*
X79713D01*
X86330Y344030D01*
X87674Y343132D01*
X89260Y342816D01*
X91454D01*
X91488Y342733D01*
X92832Y340982D01*
X94583Y339638D01*
X96622Y338794D01*
X98810Y338506D01*
X100998Y338794D01*
X103037Y339638D01*
X104788Y340982D01*
X106132Y342733D01*
X106976Y344772D01*
X107264Y346960D01*
X106976Y349148D01*
X106132Y351187D01*
X104788Y352938D01*
X103037Y354282D01*
X100998Y355126D01*
X98810Y355414D01*
X96622Y355126D01*
X94583Y354282D01*
X92832Y352938D01*
X91958Y351800D01*
X90446Y351679D01*
X90361Y351719D01*
X84176Y357904D01*
Y370713D01*
X79684D01*
Y372237D01*
X84176D01*
Y392096D01*
X84176Y392303D01*
X84675Y393366D01*
X149237D01*
X149314Y392782D01*
X150158Y390743D01*
X151502Y388992D01*
X153253Y387648D01*
X155292Y386804D01*
X157480Y386516D01*
X159668Y386804D01*
X161707Y387648D01*
X163458Y388992D01*
X164802Y390743D01*
X165646Y392782D01*
X165934Y394970D01*
X165646Y397158D01*
X164802Y399197D01*
X163458Y400948D01*
X161707Y402292D01*
X159668Y403136D01*
X157480Y403424D01*
X155292Y403136D01*
X153253Y402292D01*
X152421Y401654D01*
X82676D01*
X81516Y402814D01*
X82002Y403987D01*
X84676D01*
Y424053D01*
D02*
G37*
G36*
X204470Y416924D02*
X197104D01*
Y411590D01*
X204470D01*
Y416924D01*
D02*
G37*
G36*
X337820Y415290D02*
X334010D01*
Y406400D01*
X342900D01*
Y410210D01*
X337820Y415290D01*
D02*
G37*
G36*
X331470D02*
X327660D01*
X322580Y410210D01*
Y406400D01*
X331470D01*
Y415290D01*
D02*
G37*
G36*
X65024Y424561D02*
X57150D01*
Y415290D01*
X65024D01*
Y424561D01*
D02*
G37*
G36*
X54610D02*
X46736D01*
Y415290D01*
X54610D01*
Y424561D01*
D02*
G37*
G36*
X214376Y416924D02*
X207010D01*
Y411590D01*
X214376D01*
Y416924D01*
D02*
G37*
G36*
X312420Y415290D02*
X308610D01*
Y406400D01*
X317500D01*
Y410210D01*
X312420Y415290D01*
D02*
G37*
G36*
X261620D02*
X257810D01*
Y406400D01*
X266700D01*
Y410210D01*
X261620Y415290D01*
D02*
G37*
G36*
X255270D02*
X251460D01*
X246380Y410210D01*
Y406400D01*
X255270D01*
Y415290D01*
D02*
G37*
G36*
X214376Y409050D02*
X207010D01*
Y403716D01*
X214376D01*
Y409050D01*
D02*
G37*
G36*
X306070Y415290D02*
X302260D01*
X297180Y410210D01*
Y406400D01*
X306070D01*
Y415290D01*
D02*
G37*
G36*
X287020D02*
X283210D01*
Y406400D01*
X292100D01*
Y410210D01*
X287020Y415290D01*
D02*
G37*
G36*
X280670D02*
X276860D01*
X271780Y410210D01*
Y406400D01*
X280670D01*
Y415290D01*
D02*
G37*
G36*
X65532Y359410D02*
X57658D01*
Y350139D01*
X65532D01*
Y359410D01*
D02*
G37*
G36*
X161036Y234840D02*
X153670D01*
Y229506D01*
X161036D01*
Y234840D01*
D02*
G37*
G36*
X151130D02*
X143764D01*
Y229506D01*
X151130D01*
Y234840D01*
D02*
G37*
G36*
X229616Y228964D02*
X222250D01*
Y223630D01*
X229616D01*
Y228964D01*
D02*
G37*
G36*
X161036Y242714D02*
X153670D01*
Y237380D01*
X161036D01*
Y242714D01*
D02*
G37*
G36*
X151130D02*
X143764D01*
Y237380D01*
X151130D01*
Y242714D01*
D02*
G37*
G36*
X205740Y234840D02*
X198374D01*
Y229506D01*
X205740D01*
Y234840D01*
D02*
G37*
G36*
X215646D02*
X208280D01*
Y229506D01*
X211299D01*
X212344Y228964D01*
X212344Y228236D01*
Y223630D01*
X219710D01*
Y228964D01*
X216691D01*
X215646Y229506D01*
X215646Y230234D01*
Y234840D01*
D02*
G37*
G36*
X219710Y221090D02*
X212344D01*
Y215756D01*
X219710D01*
Y221090D01*
D02*
G37*
G36*
X45720Y221068D02*
X39370D01*
Y212090D01*
X55800D01*
X55619Y213472D01*
X54595Y215944D01*
X52966Y218066D01*
X50844Y219695D01*
X48372Y220718D01*
X45720Y221068D01*
D02*
G37*
G36*
X36830D02*
X30480D01*
X27828Y220718D01*
X25356Y219695D01*
X23234Y218066D01*
X21605Y215944D01*
X20582Y213472D01*
X20399Y212090D01*
X36830D01*
Y221068D01*
D02*
G37*
G36*
X68580Y227584D02*
X59309D01*
Y219710D01*
X68580D01*
Y227584D01*
D02*
G37*
G36*
X348996Y235712D02*
X339344D01*
X334518Y230886D01*
Y221234D01*
X339344Y216408D01*
X348996D01*
X353822Y221234D01*
Y230886D01*
X348996Y235712D01*
D02*
G37*
G36*
X229616Y221090D02*
X222250D01*
Y215756D01*
X229616D01*
Y221090D01*
D02*
G37*
G36*
X354787Y337312D02*
X345516D01*
Y329438D01*
X354787D01*
Y337312D01*
D02*
G37*
G36*
X342976D02*
X333705D01*
Y329438D01*
X342976D01*
Y337312D01*
D02*
G37*
G36*
X73736Y334518D02*
X65532D01*
Y326314D01*
X66219Y326404D01*
X68752Y327453D01*
X70927Y329123D01*
X72597Y331298D01*
X73646Y333831D01*
X73736Y334518D01*
D02*
G37*
G36*
X55118Y359410D02*
X47244D01*
Y350139D01*
X55118D01*
Y359410D01*
D02*
G37*
G36*
X65532Y346786D02*
Y338582D01*
X73736D01*
X73646Y339269D01*
X72597Y341802D01*
X70927Y343977D01*
X68752Y345647D01*
X66219Y346696D01*
X65532Y346786D01*
D02*
G37*
G36*
X61468D02*
X60781Y346696D01*
X58248Y345647D01*
X56073Y343977D01*
X54403Y341802D01*
X53354Y339269D01*
X53264Y338582D01*
X61468D01*
Y346786D01*
D02*
G37*
G36*
Y334518D02*
X53264D01*
X53354Y333831D01*
X54403Y331298D01*
X56073Y329123D01*
X58248Y327453D01*
X60781Y326404D01*
X61468Y326314D01*
Y334518D01*
D02*
G37*
G36*
X189230Y310714D02*
X187042Y310426D01*
X185003Y309582D01*
X183252Y308238D01*
X181908Y306487D01*
X181064Y304448D01*
X180776Y302260D01*
X181064Y300072D01*
X181908Y298033D01*
X183252Y296282D01*
X184165Y295581D01*
X184294Y293914D01*
X167250Y276870D01*
X166352Y275526D01*
X166036Y273940D01*
Y260604D01*
X163068D01*
Y256620D01*
X160528D01*
Y260350D01*
X144272D01*
Y248158D01*
X160528D01*
Y248332D01*
X163068D01*
Y244348D01*
X177292D01*
Y260604D01*
X174324D01*
Y272224D01*
X192160Y290060D01*
X193058Y291404D01*
X193374Y292990D01*
Y294904D01*
X193457Y294938D01*
X195208Y296282D01*
X196552Y298033D01*
X197396Y300072D01*
X197684Y302260D01*
X197396Y304448D01*
X196552Y306487D01*
X195208Y308238D01*
X193457Y309582D01*
X191418Y310426D01*
X189230Y310714D01*
D02*
G37*
G36*
X215646Y242714D02*
X208280D01*
Y237380D01*
X215646D01*
Y242714D01*
D02*
G37*
G36*
X205740D02*
X198374D01*
Y237380D01*
X205740D01*
Y242714D01*
D02*
G37*
G36*
X354787Y326898D02*
X333705D01*
Y319024D01*
X340102D01*
Y312420D01*
X339090D01*
X334010Y307340D01*
Y303530D01*
X354330D01*
Y307340D01*
X349250Y312420D01*
X348390D01*
Y319024D01*
X354787D01*
Y326898D01*
D02*
G37*
G36*
X328803Y356108D02*
X308737D01*
Y338836D01*
X328803D01*
Y343846D01*
X334213D01*
Y338684D01*
X354279D01*
Y342377D01*
X355549Y342904D01*
X357054Y341398D01*
Y298682D01*
X355600Y297227D01*
X354330Y297754D01*
Y300990D01*
X334010D01*
Y297180D01*
X336831Y294359D01*
X336345Y293186D01*
X331470D01*
X331470Y293186D01*
X330083Y292910D01*
X328906Y292124D01*
X328906Y292124D01*
X323294Y286512D01*
X313944D01*
X309118Y281686D01*
Y272034D01*
X312193Y268959D01*
X311707Y267786D01*
X310112D01*
X307156Y270742D01*
Y295910D01*
X307156Y295910D01*
X306880Y297297D01*
X306094Y298474D01*
X274467Y330101D01*
X274538Y330614D01*
X274914Y331371D01*
X282335D01*
X309118Y304587D01*
Y297434D01*
X313944Y292608D01*
X323596D01*
X328422Y297434D01*
Y307086D01*
X323596Y311912D01*
X322914D01*
Y319684D01*
X328803D01*
Y336956D01*
X308737D01*
Y321414D01*
X307467Y320888D01*
X288143Y340213D01*
X286462Y341335D01*
X284480Y341730D01*
X149860D01*
X149860Y341730D01*
X147878Y341335D01*
X146198Y340213D01*
X116987Y311003D01*
X115865Y309322D01*
X115471Y307340D01*
Y238760D01*
X115865Y236778D01*
X116987Y235098D01*
X120550Y231535D01*
Y210425D01*
X112155Y202029D01*
X97395D01*
X92809Y206615D01*
Y228600D01*
X92415Y230582D01*
X91292Y232262D01*
X83673Y239883D01*
X81992Y241005D01*
X80010Y241399D01*
X79883D01*
Y247236D01*
X59817D01*
Y241399D01*
X53912D01*
X52604Y243104D01*
X50588Y244651D01*
X48240Y245624D01*
X45720Y245955D01*
X30480D01*
X27960Y245624D01*
X25612Y244651D01*
X23596Y243104D01*
X22049Y241088D01*
X21076Y238740D01*
X20745Y236220D01*
X21076Y233700D01*
X22049Y231352D01*
X23596Y229336D01*
X25612Y227789D01*
X27960Y226816D01*
X30480Y226485D01*
X45720D01*
X48240Y226816D01*
X50588Y227789D01*
X52604Y229336D01*
X53912Y231040D01*
X59817D01*
Y229964D01*
X78941D01*
X80051Y228854D01*
X79525Y227584D01*
X71120D01*
Y219710D01*
X80391D01*
Y226718D01*
X81476Y227167D01*
X82451Y226374D01*
Y204470D01*
X82845Y202488D01*
X83968Y200807D01*
X91587Y193188D01*
X93268Y192065D01*
X95250Y191670D01*
X114300D01*
X116282Y192065D01*
X117963Y193188D01*
X126859Y202085D01*
X139192D01*
Y201168D01*
X155448D01*
Y209711D01*
X162727Y216990D01*
X163684Y216151D01*
X163623Y216072D01*
X162574Y213539D01*
X162484Y212852D01*
X182956D01*
X182866Y213539D01*
X181817Y216072D01*
X180147Y218247D01*
X177972Y219917D01*
X175439Y220966D01*
X175696Y222172D01*
X177292D01*
Y226156D01*
X182118D01*
Y222172D01*
X191501D01*
X192708Y220965D01*
Y218177D01*
X192623Y218142D01*
X190872Y216798D01*
X189528Y215047D01*
X188684Y213008D01*
X188396Y210820D01*
X188684Y208632D01*
X189528Y206593D01*
X190872Y204842D01*
X192623Y203498D01*
X194662Y202654D01*
X196850Y202366D01*
X199038Y202654D01*
X199124Y202689D01*
X200525Y201287D01*
X200525Y201287D01*
X201869Y200390D01*
X203454Y200074D01*
X203454Y200074D01*
X212852D01*
Y198120D01*
X229108D01*
Y210312D01*
X212852D01*
Y208358D01*
X206213D01*
X205146Y209618D01*
X205304Y210820D01*
X205016Y213008D01*
X204172Y215047D01*
X202828Y216798D01*
X201077Y218142D01*
X200992Y218177D01*
Y222680D01*
X200992Y222680D01*
X200676Y224265D01*
X199778Y225609D01*
X196342Y229045D01*
Y238428D01*
X182118D01*
Y234444D01*
X177292D01*
Y238428D01*
X163068D01*
Y229045D01*
X147383Y213360D01*
X139192D01*
Y212444D01*
X130910D01*
Y233680D01*
X130515Y235662D01*
X129392Y237342D01*
X125829Y240905D01*
Y305195D01*
X152005Y331371D01*
X164506D01*
X164883Y330614D01*
X164953Y330101D01*
X153666Y318813D01*
X153064Y319062D01*
X150876Y319350D01*
X148688Y319062D01*
X146649Y318218D01*
X144898Y316874D01*
X143554Y315123D01*
X142710Y313084D01*
X142422Y310896D01*
X142710Y308708D01*
X143554Y306669D01*
X144898Y304918D01*
X146649Y303574D01*
X148688Y302730D01*
X150876Y302442D01*
X153064Y302730D01*
X155103Y303574D01*
X156854Y304918D01*
X158198Y306669D01*
X159042Y308708D01*
X159330Y310896D01*
X159042Y313084D01*
X158793Y313686D01*
X169142Y324034D01*
X176815D01*
X177301Y322861D01*
X143598Y289158D01*
X143138Y289188D01*
X141387Y290532D01*
X139348Y291376D01*
X137160Y291664D01*
X134972Y291376D01*
X132933Y290532D01*
X131182Y289188D01*
X129838Y287437D01*
X128994Y285398D01*
X128706Y283210D01*
X128994Y281022D01*
X129838Y278983D01*
X131182Y277232D01*
X132933Y275888D01*
X134972Y275044D01*
X137160Y274756D01*
X139348Y275044D01*
X141387Y275888D01*
X143138Y277232D01*
X144482Y278983D01*
X144607Y279284D01*
X145096Y279382D01*
X146440Y280280D01*
X183326Y317166D01*
X243394D01*
X248586Y311974D01*
Y275590D01*
X248902Y274004D01*
X249800Y272660D01*
X295576Y226884D01*
Y185420D01*
X295892Y183834D01*
X296790Y182490D01*
X309490Y169790D01*
X310834Y168892D01*
X312420Y168576D01*
X333564D01*
X347646Y154494D01*
Y84037D01*
X344504Y80894D01*
X343234Y81420D01*
Y84161D01*
X342918Y85747D01*
X342020Y87091D01*
X334847Y94264D01*
Y102628D01*
X322655D01*
Y86372D01*
X331019D01*
X334946Y82445D01*
Y79746D01*
X334863Y79712D01*
X333112Y78368D01*
X331768Y76617D01*
X331734Y76534D01*
X288026D01*
X287992Y76617D01*
X286648Y78368D01*
X284897Y79712D01*
X282858Y80556D01*
X280670Y80844D01*
X278482Y80556D01*
X278194Y80437D01*
X274475Y84156D01*
Y86372D01*
X276427D01*
Y102628D01*
X264235D01*
Y86372D01*
X266187D01*
Y82440D01*
X266503Y80854D01*
X267401Y79510D01*
X272484Y74427D01*
X272216Y72390D01*
X272504Y70202D01*
X273348Y68163D01*
X274692Y66412D01*
X276443Y65068D01*
X278482Y64224D01*
X280670Y63936D01*
X282858Y64224D01*
X284897Y65068D01*
X286648Y66412D01*
X287992Y68163D01*
X288026Y68246D01*
X331734D01*
X331768Y68163D01*
X333112Y66412D01*
X334863Y65068D01*
X336902Y64224D01*
X339090Y63936D01*
X341278Y64224D01*
X343317Y65068D01*
X345068Y66412D01*
X346412Y68163D01*
X347256Y70202D01*
X347518Y72188D01*
X354720Y79390D01*
X355618Y80735D01*
X355934Y82320D01*
Y156210D01*
X355618Y157796D01*
X354720Y159140D01*
X338210Y175650D01*
X336866Y176548D01*
X335280Y176864D01*
X314136D01*
X303864Y187136D01*
Y228600D01*
X303548Y230186D01*
X302650Y231530D01*
X256874Y277306D01*
Y313690D01*
X256558Y315276D01*
X255660Y316620D01*
X249419Y322861D01*
X249905Y324034D01*
X270278D01*
X299904Y294408D01*
Y269629D01*
X298902Y269097D01*
X298673Y269064D01*
X296996Y270742D01*
Y289560D01*
X296720Y290947D01*
X295934Y292124D01*
X295934Y292124D01*
X278154Y309904D01*
X276978Y310690D01*
X275590Y310966D01*
X275590Y310966D01*
X274271D01*
X274022Y311567D01*
X272678Y313318D01*
X270927Y314662D01*
X268888Y315506D01*
X266700Y315794D01*
X264512Y315506D01*
X262473Y314662D01*
X260722Y313318D01*
X259378Y311567D01*
X258534Y309528D01*
X258246Y307340D01*
X258534Y305152D01*
X259378Y303113D01*
X260722Y301362D01*
X262473Y300018D01*
X264512Y299174D01*
X266700Y298886D01*
X268888Y299174D01*
X270927Y300018D01*
X272678Y301362D01*
X273532Y302474D01*
X275121Y302682D01*
X289744Y288058D01*
Y269240D01*
X289744Y269240D01*
X290020Y267852D01*
X290806Y266676D01*
X308586Y248896D01*
X308586Y248896D01*
X309118Y248541D01*
Y246634D01*
X312193Y243559D01*
X311707Y242386D01*
X307572D01*
X288106Y261852D01*
Y267970D01*
X287830Y269357D01*
X287044Y270534D01*
X287044Y270534D01*
X274617Y282960D01*
X274866Y283562D01*
X275154Y285750D01*
X274866Y287938D01*
X274022Y289977D01*
X272678Y291728D01*
X270927Y293072D01*
X268888Y293916D01*
X266700Y294204D01*
X264512Y293916D01*
X262473Y293072D01*
X260722Y291728D01*
X259378Y289977D01*
X258534Y287938D01*
X258246Y285750D01*
X258534Y283562D01*
X259378Y281523D01*
X260722Y279772D01*
X262473Y278428D01*
X264512Y277584D01*
X266700Y277296D01*
X268888Y277584D01*
X269490Y277833D01*
X280854Y266468D01*
Y260350D01*
X280854Y260350D01*
X281130Y258962D01*
X281916Y257786D01*
X303506Y236196D01*
X303506Y236196D01*
X304683Y235410D01*
X306070Y235134D01*
X306070Y235134D01*
X311707D01*
X312193Y233961D01*
X309118Y230886D01*
Y221234D01*
X313944Y216408D01*
X323596D01*
X328422Y221234D01*
Y230886D01*
X325347Y233961D01*
X325833Y235134D01*
X331470D01*
X331470Y235134D01*
X332858Y235410D01*
X334034Y236196D01*
X339646Y241808D01*
X348996D01*
X353822Y246634D01*
Y256286D01*
X348996Y261112D01*
X339344D01*
X334518Y256286D01*
Y246936D01*
X329968Y242386D01*
X325833D01*
X325347Y243559D01*
X328422Y246634D01*
Y256286D01*
X325347Y259361D01*
X325833Y260534D01*
X331470D01*
X331470Y260534D01*
X332858Y260810D01*
X334034Y261596D01*
X339646Y267208D01*
X348996D01*
X353822Y272034D01*
Y281686D01*
X350747Y284761D01*
X351233Y285934D01*
X353060D01*
X353060Y285934D01*
X354448Y286210D01*
X355624Y286996D01*
X363244Y294616D01*
X363244Y294616D01*
X364030Y295793D01*
X364306Y297180D01*
X364306Y297180D01*
Y342900D01*
X364306Y342900D01*
X364030Y344287D01*
X363244Y345464D01*
X363244Y345464D01*
X358824Y349884D01*
X357648Y350670D01*
X356260Y350946D01*
X356260Y350946D01*
X354279D01*
Y355956D01*
X334213D01*
Y351098D01*
X328803D01*
Y356108D01*
D02*
G37*
G36*
X220980Y294204D02*
X218792Y293916D01*
X216753Y293072D01*
X215002Y291728D01*
X213658Y289977D01*
X212814Y287938D01*
X212526Y285750D01*
X212814Y283562D01*
X213658Y281523D01*
X215002Y279772D01*
X216753Y278428D01*
X216836Y278394D01*
Y271780D01*
X216838Y271770D01*
Y269939D01*
X207249Y260350D01*
X198882D01*
Y257126D01*
X196342D01*
Y260604D01*
X182118D01*
Y244348D01*
X196342D01*
Y248842D01*
X198882D01*
Y248158D01*
X215138D01*
Y256525D01*
X223909Y265295D01*
X223909Y265296D01*
X224806Y266639D01*
X225122Y268224D01*
Y271770D01*
X225124Y271780D01*
Y278394D01*
X225207Y278428D01*
X226958Y279772D01*
X228302Y281523D01*
X229146Y283562D01*
X229434Y285750D01*
X229146Y287938D01*
X228302Y289977D01*
X226958Y291728D01*
X225207Y293072D01*
X223168Y293916D01*
X220980Y294204D01*
D02*
G37*
%LPD*%
D10*
X318770Y347472D02*
D03*
Y328320D02*
D03*
X344246Y328168D02*
D03*
Y347320D02*
D03*
X69850Y238600D02*
D03*
Y218440D02*
D03*
Y180500D02*
D03*
Y200660D02*
D03*
X181610Y91948D02*
D03*
Y111100D02*
D03*
X156210Y111252D02*
D03*
Y92100D02*
D03*
X212090Y111252D02*
D03*
Y92100D02*
D03*
D17*
X76040Y414020D02*
D03*
X55880D02*
D03*
X56388Y360680D02*
D03*
X75540D02*
D03*
X56388Y382270D02*
D03*
X75540D02*
D03*
D21*
X189230Y230300D02*
X196850Y222680D01*
Y210820D02*
Y222680D01*
X203454Y204216D02*
X220980D01*
X196850Y210820D02*
X203454Y204216D01*
X147320Y207264D02*
Y207440D01*
X170180Y230300D01*
X191008Y252984D02*
X207010D01*
X220980Y268224D02*
Y271780D01*
X207010Y254254D02*
X220980Y268224D01*
D22*
X170180Y230300D02*
X189230D01*
X220980Y271780D02*
Y285750D01*
X170180Y252476D02*
Y273940D01*
X154178Y252476D02*
X170180D01*
Y273940D02*
X189230Y292990D01*
Y302260D01*
X181610Y321310D02*
X245110D01*
X143510Y283210D02*
X181610Y321310D01*
X137160Y283210D02*
X143510D01*
X252730Y275590D02*
Y313690D01*
X245110Y321310D02*
X252730Y313690D01*
X312420Y172720D02*
X335280D01*
X299720Y185420D02*
X312420Y172720D01*
X252730Y275590D02*
X299720Y228600D01*
Y185420D02*
Y228600D01*
X154940Y397510D02*
X157480Y394970D01*
X80960Y397510D02*
X154940D01*
X76040Y402430D02*
X80960Y397510D01*
X76040Y402430D02*
Y414020D01*
X71280Y397670D02*
X76040Y402430D01*
X63660Y397670D02*
X71280D01*
X58420Y392430D02*
X63660Y397670D01*
X58420Y384302D02*
Y392430D01*
X174752Y420370D02*
X184150Y410972D01*
X125730Y420370D02*
X174752D01*
X89260Y346960D02*
X98810D01*
X78080Y358140D02*
X89260Y346960D01*
X270331Y82440D02*
X280381Y72390D01*
X270331Y82440D02*
Y93120D01*
X341860Y72390D02*
X351790Y82320D01*
X280381Y72390D02*
X341860D01*
X351790Y82320D02*
Y156210D01*
X328751Y94500D02*
X339090Y84161D01*
Y72390D02*
Y84161D01*
X75540Y360680D02*
Y382270D01*
X56388D02*
X58420Y384302D01*
X156210Y63500D02*
Y92100D01*
X181610Y63500D02*
Y93142D01*
X201270Y92100D02*
X213360D01*
X196850Y96520D02*
X201270Y92100D01*
X192430Y111100D02*
X196850Y106680D01*
Y96520D02*
Y106680D01*
X181610Y111100D02*
X192430D01*
X157328D02*
X181610D01*
X318770Y302260D02*
Y328320D01*
X344246Y302336D02*
Y328168D01*
X183640Y392430D02*
X184150Y391920D01*
X335280Y172720D02*
X351790Y156210D01*
D23*
X139700Y151130D02*
X226060D01*
X137160Y148590D02*
X139700Y151130D01*
X215900Y161290D02*
X237490Y182880D01*
Y302260D01*
X306070Y238760D02*
X331470D01*
X284480Y260350D02*
X306070Y238760D01*
X284480Y260350D02*
Y267970D01*
X266700Y285750D02*
X284480Y267970D01*
X271780Y327660D02*
X303530Y295910D01*
X167640Y327660D02*
X271780D01*
X150876Y310896D02*
X167640Y327660D01*
X293370Y269240D02*
X311150Y251460D01*
X293370Y269240D02*
Y289560D01*
X275590Y307340D02*
X293370Y289560D01*
X266700Y307340D02*
X275590D01*
X311150Y251460D02*
X318770D01*
X303530Y269240D02*
Y295910D01*
Y269240D02*
X308610Y264160D01*
X331470D01*
Y238760D02*
X344170Y251460D01*
X331470Y264160D02*
X344170Y276860D01*
X99060Y303530D02*
X183640Y388110D01*
X99060Y223520D02*
Y303530D01*
Y223520D02*
X106680Y215900D01*
X246380Y132080D02*
X267970D01*
X241300Y137160D02*
X246380Y132080D01*
X158750Y137160D02*
X241300D01*
X129540Y124460D02*
X198882D01*
X124460Y129540D02*
X129540Y124460D01*
X124460Y129540D02*
Y157480D01*
X198882Y124460D02*
X212090Y111252D01*
X128270Y161290D02*
X215900D01*
X124460Y157480D02*
X128270Y161290D01*
X183640Y388110D02*
Y392430D01*
X238760Y118110D02*
X289560D01*
X318770Y347472D02*
X344094D01*
X344246Y347320D02*
X356260D01*
X360680Y342900D01*
Y297180D02*
Y342900D01*
X353060Y289560D02*
X360680Y297180D01*
X331470Y289560D02*
X353060D01*
X318770Y276860D02*
X331470Y289560D01*
X184406Y392176D02*
X205740D01*
X269494D01*
X281940Y379730D01*
D25*
X38100Y185420D02*
X50800D01*
X55720Y180500D01*
X69850D01*
X27940Y137414D02*
X68580D01*
X72136D02*
X130810Y78740D01*
X68580Y137414D02*
X72136D01*
X130810Y63500D02*
Y78740D01*
X28194Y83566D02*
Y93218D01*
Y83566D02*
X41910Y69850D01*
X54610D01*
X87630Y36830D01*
Y25400D02*
Y36830D01*
X68834Y87376D02*
Y93218D01*
Y87376D02*
X113030Y43180D01*
Y25400D02*
Y43180D01*
D26*
X0Y0D02*
Y459740D01*
X369570D01*
X370840Y461010D01*
Y0D02*
Y461010D01*
X0Y0D02*
X370840D01*
D27*
X40000Y40000D02*
D03*
X330000D02*
D03*
D28*
X318770Y302260D02*
D03*
Y276860D02*
D03*
Y251460D02*
D03*
Y226060D02*
D03*
Y200660D02*
D03*
X344170Y302260D02*
D03*
Y276860D02*
D03*
Y251460D02*
D03*
Y226060D02*
D03*
Y200660D02*
D03*
D29*
X207010Y63500D02*
D03*
X181610D02*
D03*
X156210D02*
D03*
X130810D02*
D03*
X207010Y25400D02*
D03*
X232410D02*
D03*
X257810D02*
D03*
X283210D02*
D03*
X87630D02*
D03*
X113030D02*
D03*
X138430D02*
D03*
X163830D02*
D03*
D30*
X38100Y236220D02*
D03*
Y210820D02*
D03*
Y185420D02*
D03*
D31*
X332740Y405130D02*
D03*
Y379730D02*
D03*
X307340Y405130D02*
D03*
Y379730D02*
D03*
X281940Y405130D02*
D03*
Y379730D02*
D03*
X256540Y405130D02*
D03*
Y379730D02*
D03*
X231140Y405130D02*
D03*
Y379730D02*
D03*
D32*
X196850Y210820D02*
D03*
X172720D02*
D03*
X189230Y302260D02*
D03*
X220980Y285750D02*
D03*
X237490Y302260D02*
D03*
X266700Y285750D02*
D03*
Y307340D02*
D03*
X106680Y215900D02*
D03*
X116840Y176530D02*
D03*
X95250D02*
D03*
X158750Y137160D02*
D03*
X137160Y148590D02*
D03*
X150876Y310896D02*
D03*
X137160Y283210D02*
D03*
X157480Y394970D02*
D03*
X98810Y346960D02*
D03*
X289560Y118110D02*
D03*
X238760D02*
D03*
X226060Y151130D02*
D03*
X267970Y132080D02*
D03*
X321310Y121920D02*
D03*
X339090Y72390D02*
D03*
X280670D02*
D03*
X125730Y420370D02*
D03*
X63500Y336550D02*
D03*
D33*
X147320Y207264D02*
D03*
Y189120D02*
D03*
X207010Y254254D02*
D03*
Y236110D02*
D03*
X152400Y254254D02*
D03*
Y236110D02*
D03*
X205740Y392176D02*
D03*
Y410320D02*
D03*
X220980Y204216D02*
D03*
Y222360D02*
D03*
D34*
X27686Y93218D02*
D03*
X27940Y137414D02*
D03*
X68326Y93218D02*
D03*
X68580Y137414D02*
D03*
D35*
X189230Y252476D02*
D03*
Y230300D02*
D03*
X170180Y252476D02*
D03*
Y230300D02*
D03*
D36*
X184150Y410972D02*
D03*
Y391920D02*
D03*
D37*
X310607Y94500D02*
D03*
X328751D02*
D03*
X252187D02*
D03*
X270331D02*
D03*
D38*
X95250Y196850D02*
X114300D01*
X125730Y208280D01*
Y233680D01*
X284480Y336550D02*
X318770Y302260D01*
X149860Y336550D02*
X284480D01*
X87630Y204470D02*
X95250Y196850D01*
X87630Y204470D02*
Y228600D01*
X80010Y236220D02*
X87630Y228600D01*
X38100Y236220D02*
X80010D01*
X120650Y238760D02*
X125730Y233680D01*
X120650Y238760D02*
Y307340D01*
X125730Y207264D02*
X147320D01*
X120650Y307340D02*
X149860Y336550D01*
M02*
